<svg xmlns="http://www.w3.org/2000/svg" xmlns:xlink="http://www.w3.org/1999/xlink" width="202.175" height="171.627" viewBox="0 0 202.175 171.627"><defs><style>.a{fill:url(#a);}</style><linearGradient id="a" x1="0.5" x2="0.5" y2="1" gradientUnits="objectBoundingBox"><stop offset="0" stop-color="#5bab2f"/><stop offset="1" stop-color="#a8e063"/></linearGradient></defs><g transform="translate(-4.665 -9.987)"><g transform="translate(4.665 9.987)"><path class="a" d="M204.292,77.827a3.373,3.373,0,0,0-2.7.245c-3.432.735-14.708,1.226-18.63-1.471a61.943,61.943,0,0,0-33.339-24.759,193.952,193.952,0,0,0-46.576-8.825c-4.412-.245-12.257.981-15.2,7.354a14.305,14.305,0,0,0,.49,12.257,13.323,13.323,0,0,0,8.825,6.619,68.657,68.657,0,0,1,16.914,5.393L85.891,72.924,55.739,58.706,45.2,51.107c-1.471-.981-9.07-6.374-14.953-3.677-4.412,1.961-5.883,5.883-6.374,9.56-.49,0-1.226-.245-1.716-.245-4.412-.981-12.747-.49-15.934,6.619-4.658,9.315,2.206,15.2,6.619,17.9,11.521,6.864,90.946,35.545,94.378,36.771.245,0,.49,0,.49.245l62.755,12.992h.49l27.7,2.451h.245a4.237,4.237,0,0,0,4.167-3.677,4.092,4.092,0,0,0-3.677-4.412l-27.455-2.206-62.51-12.992C86.381,101.85,25.832,79.3,16.762,74.149c-5.393-3.187-4.167-5.393-3.432-7.109l.245-.49c1.226-2.7,6.864-1.716,6.864-1.716h.245C29.264,66.06,55,75.865,64.319,79.542a2.21,2.21,0,0,0,1.226.245L83.93,81.013h1.226l44.86,2.7a4.745,4.745,0,0,0,4.167-2.451A4.2,4.2,0,0,0,133.2,76.6c-.49-.49-12.992-11.521-34.564-15.444a5.2,5.2,0,0,1-3.187-2.451,6.253,6.253,0,0,1-.245-5.148c.981-1.961,5.148-2.451,7.109-2.451a196.008,196.008,0,0,1,44.615,8.335,54.179,54.179,0,0,1,28.926,21.572c.245.245.245.49.49.735a46.587,46.587,0,0,1,4.412,8.335,4.032,4.032,0,1,0,7.6-2.7,10.3,10.3,0,0,1-.49-1.226,41.552,41.552,0,0,0,5.393.245c5.638,0,10.541-.735,11.276-1.226a4.122,4.122,0,0,0,2.206-4.167C207.234,79.788,205.763,78.317,204.292,77.827ZM33.677,55.029c.981-.245,4.167.981,6.619,2.7L51.081,65.57h0c-6.374-2.206-13.237-4.9-19.366-6.619C31.716,57.725,31.961,55.764,33.677,55.029Z" transform="translate(-4.665 37.909)"/><path class="a" d="M92.56,47.77A43.011,43.011,0,0,0,98.2,12.96a3.884,3.884,0,0,0-4.412-2.942C82.509,11,71.968,17.618,65.1,28.159h0a42.863,42.863,0,0,0-5.638,34.809c0,.245.245.245.245.49L58.976,66.4A45.509,45.509,0,0,0,48.925,55.859h0a43.081,43.081,0,0,0-33.094-8.335A4.3,4.3,0,0,0,12.4,51.937c.49,10.786,6.619,21.327,16.424,28.681a43.888,43.888,0,0,0,26.23,8.825,15.079,15.079,0,0,0,3.187-.245,63.167,63.167,0,0,0,2.942,12.257,3.977,3.977,0,0,0,3.922,2.7,1.837,1.837,0,0,0,1.226-.245,4.138,4.138,0,0,0,2.7-5.148C64.614,85.766,65.1,74.489,67.556,65.419,77.606,63.458,86.431,57.33,92.56,47.77ZM72.213,32.816c4.658-7.109,11.521-12.257,18.876-13.728A36.37,36.37,0,0,1,85.7,43.6,32.471,32.471,0,0,1,71.478,55.859c4.658-9.07,10.541-14.463,11.031-14.708a4.175,4.175,0,0,0-5.393-6.374c-.245,0-5.393,4.658-10.3,12.747A34.409,34.409,0,0,1,72.213,32.816ZM33.727,73.754c-6.619-4.9-11.031-11.521-12.5-18.63a37.475,37.475,0,0,1,22.8,7.109h0c6.619,4.9,11.031,11.521,12.5,18.63A34.547,34.547,0,0,1,33.727,73.754Z" transform="translate(6.561 -9.987)"/></g></g></svg>