<svg xmlns="http://www.w3.org/2000/svg" width="1451.611" height="1323.968" viewBox="0 0 1451.611 1323.968"><defs><style>.a{fill:none;stroke:rgba(0,0,0,0.08);stroke-miterlimit:10;stroke-width:3px;}</style></defs><g transform="translate(-159.331 -169.097)"><path class="a" d="M647.077,170.929c88.788-4.048,178.682,30.649,241.715,93.32C959.73,334.766,998.519,438.52,1085.21,488.408c80.831,46.513,183.04,33.946,270.1,67.357,125.868,48.308,197.04,183.144,228.406,314.268a938.5,938.5,0,0,1,25.125,251.269c-2.494,70.145-13.3,141.317-44.6,204.135-47.609,95.555-147.774,166.745-254.541,166.123-161.316-.941-290.852-152.417-452.038-158.925-174.875-7.052-327.689,158.77-500.856,133.4-34.525-5.058-68.039-17.97-96.2-38.564-59.736-43.691-90.592-118.35-97.808-192s6.309-147.584,19.783-220.361c20.922-113.068,41.9-226.334,73.244-336.977,17.694-62.437,35.69-124.987,59.589-185.319C397.887,284.653,558.288,174.977,647.077,170.929Z"/><path class="a" d="M371.213,533.786c75.091-189.4,221.086-289.22,302-292.984,80.831-3.729,162.654,27.784,220.068,84.732,64.621,64.077,100.017,158.381,178.949,203.72,73.693,42.258,166.753,30.848,245.909,61.221,114.734,44.122,179.648,167.038,208.252,286.605a854.62,854.62,0,0,1,22.864,229.122c-2.3,63.957-12.2,128.837-40.756,186.113-43.38,87.019-134.568,151.865-231.772,151.4-146.867-.708-264.889-138.314-411.688-144.192-159.27-6.378-298.49,144.338-456.181,121.146-31.435-4.626-61.963-16.391-87.615-35.146-54.385-39.859-82.5-107.889-89.09-175s5.679-134.5,17.927-200.812c19.032-103.047,38.15-206.275,66.745-307.087C332.96,645.741,349.4,588.749,371.213,533.786Z" transform="translate(-9.516 -9.568)"/><path class="a" d="M427,574.764c67.72-170.637,199.319-260.6,272.355-264.078,72.864-3.4,146.626,24.927,198.421,76.144,58.312,57.63,90.316,142.483,161.471,183.282,66.555,38.011,150.475,27.74,221.708,55.084,103.6,39.945,162.248,150.933,188.09,258.943a770.082,770.082,0,0,1,20.6,206.974c-2.106,57.777-11.091,116.365-36.915,168.091-39.151,78.483-121.362,136.985-209,136.674-132.427-.466-238.927-124.2-371.346-129.45-143.665-5.7-269.291,129.9-411.506,108.9-28.353-4.186-55.878-14.8-79.018-31.719-49.042-36.035-74.409-97.42-80.382-158s5.049-121.405,16.08-181.271c17.133-93.026,34.4-186.208,60.254-277.2C392.393,675.774,407.265,624.35,427,574.764Z" transform="translate(-19.027 -19.137)"/><path class="a" d="M482.786,615.734c60.349-151.882,177.542-231.987,242.7-235.164,64.9-3.073,130.6,22.061,176.774,67.556,52,51.191,80.606,126.593,144,162.835,59.417,33.765,134.188,24.642,197.506,48.938,92.465,35.767,144.848,134.827,167.927,231.28a685.9,685.9,0,0,1,18.341,184.827c-1.916,51.588-9.986,103.893-33.074,150.069-34.922,69.947-108.148,122.1-186.234,121.958-117.979-.224-212.973-110.09-331-114.716-128.06-5.023-240.092,115.467-366.831,96.643-25.263-3.755-49.8-13.223-70.43-28.3-43.691-32.2-66.313-86.959-71.673-141.007s4.419-108.312,14.224-161.73c15.234-83,30.649-166.141,53.755-247.3C451.818,705.817,465.136,659.951,482.786,615.734Z" transform="translate(-28.538 -28.706)"/><path class="a" d="M538.571,656.7c52.987-133.118,155.775-203.367,213.051-206.258,56.931-2.753,114.578,19.2,155.127,58.977,45.685,44.744,70.9,110.694,126.524,142.4,52.27,29.518,117.944,21.431,173.3,42.8,81.4,31.426,127.456,118.721,147.774,203.617a602.045,602.045,0,0,1,16.08,162.679c-1.726,45.4-8.881,91.421-29.234,132.048-30.692,61.411-94.942,107.216-163.465,107.233-103.539.017-187.011-95.987-290.662-99.983-112.455-4.342-210.893,101.027-322.148,84.386-22.182-3.314-43.717-11.643-61.833-24.875-38.339-28.371-58.217-76.5-62.964-124.012s3.789-95.219,12.377-142.18c13.335-72.976,26.9-146.073,47.264-217.409C511.253,735.849,523,695.55,538.571,656.7Z" transform="translate(-38.051 -38.274)"/><path class="a" d="M594.353,697.669c45.615-114.354,134-174.746,183.394-177.352,48.964-2.425,98.55,16.33,133.472,50.389,39.375,38.3,61.117,94.942,109.046,121.958,45.063,25.393,101.675,18.3,149.111,36.665,70.275,27.205,110.055,102.624,127.611,175.954a517.546,517.546,0,0,1,13.818,140.532c-1.536,39.211-7.777,78.949-25.393,114.026-26.463,52.874-81.737,92.336-140.7,92.508-89.09.259-161.048-81.875-250.311-85.25-96.841-3.66-181.694,86.6-277.473,72.139a121.207,121.207,0,0,1-53.245-21.457c-32.988-24.547-50.121-66.037-54.247-107.009s3.159-82.125,10.521-122.64c11.436-62.955,23.149-126.006,40.765-187.52C570.687,765.89,580.871,731.149,594.353,697.669Z" transform="translate(-47.562 -47.842)"/><path class="a" d="M650.139,738.646c38.469-95.5,112.222-146.22,153.746-148.438a151.452,151.452,0,0,1,111.825,41.8c33.066,31.857,51.4,79.07,91.576,101.519,37.908,21.172,85.4,15.174,124.91,30.52,59.158,22.985,92.664,86.518,107.458,148.291a433.723,433.723,0,0,1,11.557,118.385c-1.338,33.023-6.672,66.468-21.543,96-22.234,44.338-68.523,77.456-117.927,77.784-74.642.5-135.094-67.763-209.969-70.516-81.236-2.986-152.495,72.156-232.8,59.883a102.1,102.1,0,0,1-44.649-18.039c-27.646-20.715-42.025-55.576-45.538-90.014s2.529-69.032,8.674-103.1C597,929.8,606.863,876.778,621.734,825.1,630.115,795.931,638.806,766.775,650.139,738.646Z" transform="translate(-57.076 -57.41)"/><path class="a" d="M705.918,779.613c31.133-76.722,90.454-117.608,124.09-119.532a122.359,122.359,0,0,1,90.178,33.213c26.748,25.419,41.671,63.206,74.1,81.072,30.753,16.952,69.127,12.049,100.708,24.383,48.041,18.764,75.263,70.413,87.3,120.629a349.341,349.341,0,0,1,9.3,96.237c-1.148,26.843-5.567,54-17.7,77.982-18,35.793-55.317,62.576-95.158,63.059-60.2.742-109.132-53.66-169.628-55.783-65.631-2.3-123.3,57.716-188.124,47.627a83.144,83.144,0,0,1-36.061-14.613c-22.294-16.891-33.929-45.115-36.829-73.011s1.9-55.938,6.819-83.549c7.638-42.905,15.657-85.88,27.775-127.741C689.545,825.962,696.683,802.382,705.918,779.613Z" transform="translate(-66.584 -66.977)"/><path class="a" d="M761.715,820.581c23.8-57.949,68.678-89,94.442-90.618a93.262,93.262,0,0,1,68.531,24.625c20.439,18.98,31.961,47.333,56.629,60.634,23.606,12.722,52.848,8.925,76.515,18.246,36.924,14.543,57.872,54.307,67.133,92.966a265.624,265.624,0,0,1,7.034,74.09c-.958,20.654-4.462,41.524-13.862,59.96-13.775,27.257-42.111,47.687-72.389,48.343-45.754.984-83.169-39.548-129.277-41.05-50.026-1.631-94.1,43.285-143.449,35.37a64.057,64.057,0,0,1-27.464-11.195c-16.943-13.059-25.842-34.654-28.112-56.016s1.269-42.845,4.972-64.008c5.748-32.885,11.9-65.812,21.284-97.851C748.976,856,754.569,837.981,761.715,820.581Z" transform="translate(-76.101 -76.545)"/><path class="a" d="M817.5,861.547c16.442-39.177,46.9-60.4,64.794-61.713a64.373,64.373,0,0,1,46.884,16.045c14.086,12.576,22.242,31.461,39.151,40.2,16.46,8.5,36.57,5.809,52.313,12.109,25.816,10.331,40.471,38.2,46.979,65.3a182.092,182.092,0,0,1,4.782,51.942c-.768,14.466-3.392,29.035-10.021,41.939-9.6,18.695-28.906,32.807-49.62,33.618-31.305,1.226-57.216-25.436-88.935-26.316-34.421-.949-64.906,28.845-98.766,23.123a45.044,45.044,0,0,1-18.876-7.768c-11.592-9.227-17.746-24.193-19.4-39.021s.639-29.751,3.116-44.468c3.849-22.855,8.156-45.745,14.785-67.961A360.654,360.654,0,0,1,817.5,861.547Z" transform="translate(-85.613 -86.11)"/><path class="a" d="M873.277,902.52c9.071-20.413,25.125-31.78,35.137-32.807a35.59,35.59,0,0,1,25.237,7.457c7.777,6.137,12.55,15.57,21.681,19.757,9.33,4.272,20.283,2.71,28.112,5.964,14.7,6.111,23.08,22.1,26.817,37.64a98.406,98.406,0,0,1,2.52,29.795c-.57,8.277-2.287,16.563-6.18,23.917-5.369,10.159-15.691,17.927-26.851,18.894-16.865,1.459-31.253-11.333-48.593-11.583-18.816-.276-35.707,14.414-54.091,10.867a26.16,26.16,0,0,1-10.28-4.35c-6.249-5.4-9.65-13.732-10.694-22.018s.009-16.658,1.269-24.918a255.376,255.376,0,0,1,8.294-38.072A188.307,188.307,0,0,1,873.277,902.52Z" transform="translate(-95.12 -95.675)"/><path class="a" d="M946.2,937.309c7.293,5.015,9.46,16.14,4.583,23.528s-15.968,9.753-23.442,5.006a20.888,20.888,0,0,1,1.666-22.648C933.962,936.869,946.2,937.309,946.2,937.309Z" transform="translate(-104.579 -104.95)"/></g></svg>