<svg xmlns="http://www.w3.org/2000/svg" width="867.451" height="791.293" viewBox="0 0 867.451 791.293"><defs><style>.a{fill:none;stroke:rgba(255,255,255,0.17);stroke-miterlimit:10;stroke-width:3px;}</style></defs><g transform="translate(-198.627 -208.625)"><path class="a" d="M322.624,432.649c49.2-124.086,144.845-189.483,197.858-191.948,52.956-2.443,106.563,18.2,144.178,55.512C707,338.193,730.185,399.976,781.9,429.68c48.28,27.685,109.249,20.21,161.108,40.109,75.168,28.907,117.7,109.435,136.436,187.77a559.907,559.907,0,0,1,14.979,150.109c-1.5,41.9-7.99,84.408-26.7,121.932-28.42,57.011-88.162,99.494-151.845,99.189-96.22-.464-173.542-90.616-269.717-94.467-104.346-4.179-195.556,94.563-298.867,79.369a129.353,129.353,0,0,1-57.4-23.026c-35.63-26.113-54.048-70.684-58.368-114.654s3.721-88.117,11.745-131.562c12.469-67.511,24.994-135.141,43.728-201.188C297.562,506,308.334,468.658,322.624,432.649Z" transform="translate(-30.209 -30.372)"/><path class="a" d="M383.128,483.6c44.367-111.793,130.584-170.732,178.434-173.011,47.737-2.228,96.062,16.331,130,49.886,38.2,37.756,59.171,93.348,105.788,120.077,43.6,24.9,98.584,18.174,145.252,36.088,67.873,26.17,106.3,98.883,123.227,169.646a504.516,504.516,0,0,1,13.5,135.6c-1.38,37.852-7.266,76.236-24.185,110.125-25.65,51.418-79.511,89.746-136.928,89.542-86.76-.305-156.533-81.371-243.287-84.809-94.122-3.732-176.426,85.1-269.6,71.345a116.782,116.782,0,0,1-51.769-20.781C321.424,963.7,304.8,923.486,300.892,883.8s3.308-79.539,10.535-118.76C322.651,704.09,333.96,643.042,350.9,583.43,360.458,549.779,370.2,516.089,383.128,483.6Z" transform="translate(-60.398 -60.748)"/><path class="a" d="M443.64,534.551c39.538-99.506,116.317-151.987,159-154.068a156.651,156.651,0,0,1,115.814,44.259c34.07,33.538,52.809,82.937,94.343,106.681,38.927,22.121,87.913,16.144,129.4,32.062,60.579,23.433,94.9,88.332,110.018,151.523A449.373,449.373,0,0,1,1064.23,836.1c-1.255,33.8-6.542,68.065-21.669,98.318-22.879,45.826-70.853,80-122.011,79.9-77.294-.147-139.529-72.126-216.857-75.156-83.9-3.291-157.3,75.648-240.33,63.316a104.332,104.332,0,0,1-46.142-18.542c-28.624-21.1-43.445-56.971-46.957-92.381s2.9-70.961,9.319-105.958c9.981-54.375,20.08-108.847,35.217-162.018C423.351,593.569,432.076,563.52,443.64,534.551Z" transform="translate(-90.59 -91.124)"/><path class="a" d="M504.153,585.494c34.714-87.212,102.056-133.236,139.58-135.13A137.563,137.563,0,0,1,745.365,489c29.93,29.314,46.448,72.521,82.892,93.291,34.245,19.339,77.271,14.041,113.54,28.042,53.329,20.589,83.5,77.78,96.814,133.4a394.428,394.428,0,0,1,10.535,106.579c-1.131,29.744-5.819,59.895-19.152,86.511-20.108,40.233-62.2,70.243-107.094,70.254-67.834.011-122.52-62.886-190.427-65.5-73.675-2.844-138.167,66.188-211.056,55.286a91.829,91.829,0,0,1-40.51-16.3c-25.118-18.587-38.141-50.118-41.251-81.247s2.482-62.382,8.109-93.15c8.736-47.81,17.626-95.7,30.965-142.436C486.255,637.347,493.951,610.945,504.153,585.494Z" transform="translate(-120.788 -121.496)"/><path class="a" d="M564.658,636.437c29.885-74.919,87.789-114.485,120.151-116.193a118.505,118.505,0,0,1,87.444,33.012c25.8,25.1,40.041,62.2,71.441,79.9,29.523,16.636,66.612,11.988,97.69,24.021,46.041,17.824,72.1,67.234,83.6,115.276a339.065,339.065,0,0,1,9.053,92.07c-1.006,25.689-5.095,51.723-16.636,74.7-17.337,34.641-53.55,60.494-92.177,60.607-58.368.17-105.511-53.64-163.992-55.851-63.446-2.4-119.037,56.733-181.787,47.262a79.409,79.409,0,0,1-34.884-14.058c-21.612-16.082-32.837-43.264-35.54-70.107s2.07-53.8,6.893-80.347c7.492-41.245,15.166-82.553,26.707-122.854C549.153,681.132,555.826,658.372,564.658,636.437Z" transform="translate(-150.979 -151.867)"/><path class="a" d="M685.671,738.328c20.4-50.265,59.261-77.051,81.3-78.312a80.164,80.164,0,0,1,59.08,21.759c17.524,16.653,27.3,41.409,48.546,53.115,20.148,11.106,45.288,7.894,65.979,15.974,31.474,12.293,49.309,46.131,57.192,79.03a228.868,228.868,0,0,1,6.09,63.05c-.752,17.586-3.647,35.376-11.6,51.09-11.8,23.45-36.241,41-62.343,41.313-39.441.486-71.5-35.155-111.132-36.546-43-1.51-80.777,37.813-123.25,31.2a54.471,54.471,0,0,1-23.625-9.573c-14.606-11.066-22.229-29.557-24.129-47.833s1.244-36.648,4.467-54.737c5-28.109,10.258-56.264,18.2-83.689C674.945,768.694,679.621,753.245,685.671,738.328Z" transform="translate(-211.362 -212.609)"/><path class="a" d="M746.2,789.272c15.59-37.966,44.994-58.311,61.874-59.369a61.1,61.1,0,0,1,44.9,16.133c13.39,12.435,20.939,31.01,37.1,39.724,15.466,8.335,34.624,5.847,50.129,11.954,24.191,9.528,37.915,35.579,43.982,60.907a174.021,174.021,0,0,1,4.609,48.54c-.628,13.532-2.923,27.2-9.081,39.283-9.025,17.857-27.589,31.242-47.426,31.672-29.975.645-54.489-25.91-84.7-26.894-32.775-1.069-61.647,28.358-93.981,23.173a41.968,41.968,0,0,1-17.993-7.334c-11.1-8.556-16.93-22.7-18.417-36.7s.831-28.07,3.257-41.935c3.766-21.544,7.8-43.117,13.944-64.107A349.988,349.988,0,0,1,746.2,789.272Z" transform="translate(-241.572 -242.981)"/><path class="a" d="M806.712,840.21c10.772-25.667,30.728-39.572,42.45-40.431a42.174,42.174,0,0,1,30.716,10.512c9.228,8.239,14.572,20.611,25.65,26.334,10.784,5.57,23.959,3.806,34.273,7.934,16.913,6.769,26.515,25.028,30.779,42.783a119.3,119.3,0,0,1,3.133,34.03c-.5,9.477-2.222,19.022-6.565,27.476-6.288,12.248-18.938,21.493-32.509,22.025-20.51.8-37.485-16.664-58.266-17.241-22.551-.622-42.523,18.9-64.707,15.149a29.512,29.512,0,0,1-12.367-5.089c-7.594-6.045-11.626-15.85-12.712-25.565s.418-19.492,2.041-29.133c2.522-14.974,5.344-29.97,9.686-44.525A236.3,236.3,0,0,1,806.712,840.21Z" transform="translate(-271.768 -273.347)"/><path class="a" d="M867.2,891.148c5.943-13.373,16.461-20.821,23.02-21.493a23.316,23.316,0,0,1,16.534,4.886c5.095,4.02,8.222,10.2,14.2,12.944,6.113,2.8,13.289,1.776,18.417,3.907,9.63,4,15.121,14.476,17.569,24.66a64.473,64.473,0,0,1,1.651,19.52,39.069,39.069,0,0,1-4.049,15.669c-3.517,6.656-10.28,11.745-17.592,12.378-11.049.956-20.476-7.425-31.836-7.589-12.327-.181-23.393,9.443-35.438,7.119a17.14,17.14,0,0,1-6.735-2.85c-4.094-3.54-6.322-9-7.006-14.425s.006-10.914.831-16.325a167.311,167.311,0,0,1,5.434-24.943A123.352,123.352,0,0,1,867.2,891.148Z" transform="translate(-301.945 -303.708)"/><path class="a" d="M938.811,937.307A11.206,11.206,0,0,1,926.455,956a13.685,13.685,0,0,1,1.091-14.838C930.792,937.018,938.811,937.307,938.811,937.307Z" transform="translate(-331.973 -333.151)"/></g></svg>