<svg xmlns="http://www.w3.org/2000/svg" width="274.109" height="252.682" viewBox="0 0 274.109 252.682"><defs><style>.a{fill:#f5f5f5;}.b{fill:#e6e6e6;}.c{fill:#5bab2f;}.al,.d{opacity:0.3;}.ac,.ad,.ae,.af,.ag,.e,.m{fill:#fff;}.f,.r{opacity:0.1;}.g{fill:#37474f;}.h{fill:#455a64;}.i{fill:#263238;}.ah,.j{opacity:0.15;}.k{fill:#ebebeb;}.l{fill:#e0e0e0;}.ab,.m,.o,.w{opacity:0.5;}.ai,.n{opacity:0.2;}.p{fill:#ffa8a7;}.q{fill:#f28f8f;}.s,.u,.v,.w,.x,.y{fill:#f0f0f0;}.t{fill:#fafafa;}.ac,.u{opacity:0.9;}.af,.v{opacity:0.6;}.am,.ao,.x{opacity:0.4;}.ag,.y{opacity:0.8;}.z{opacity:0.25;}.aa{opacity:0.35;}.ad{opacity:0.75;}.ae,.an{opacity:0.7;}.aj{fill:#ffbda7;}.ak{fill:#b16668;}</style></defs><g transform="translate(-19.71 -49.07)"><g transform="translate(19.71 144.328)"><ellipse class="a" cx="136.331" cy="78.712" rx="136.331" ry="78.712"/></g><g transform="translate(58.598 135.704)"><path class="b" d="M307.094,271.684l-77.457,44.737a2.646,2.646,0,0,1-2.4,0L98.066,241.83a.734.734,0,0,1,0-1.391L175.523,195.7a2.646,2.646,0,0,1,2.4,0l129.168,74.592a.734.734,0,0,1,0,1.391Z" transform="translate(-90.364 -195.412)"/><ellipse class="b" cx="48.195" cy="27.824" rx="48.195" ry="27.824" transform="translate(0 92.735)"/><ellipse class="b" cx="34.904" cy="20.152" rx="34.904" ry="20.152" transform="translate(62.213 73.862)"/></g><g transform="translate(257.521 162.575)"><path class="c" d="M421.42,270.52s1.184-9.691,6.115-17.168,11.585-12.106,17.76-12.527,11.13,5.328,4.47,9.158-18.47,7.7-24.035,22.265Z" transform="translate(-421.42 -240.803)"/><g class="d"><path d="M421.42,270.52s1.184-9.691,6.115-17.168,11.585-12.106,17.76-12.527,11.13,5.328,4.47,9.158-18.47,7.7-24.035,22.265Z" transform="translate(-421.42 -240.803)"/></g><path class="e" d="M424.345,270h-.065a.331.331,0,0,1-.178-.432c6.7-15.984,19.2-22.591,24.864-23.834a.333.333,0,0,1,.142.651c-5.559,1.184-17.813,7.7-24.408,23.437a.332.332,0,0,1-.355.178Z" transform="translate(-422.504 -242.812)"/><path class="c" d="M458.254,273.868a5.173,5.173,0,0,1-3.037,2.3,5.971,5.971,0,0,0-3.179,2.137c-1.32,2.273.841,5.476-.592,7.7a4.085,4.085,0,0,1-2.788,1.61,26.262,26.262,0,0,1-2.729.243,10.45,10.45,0,0,1-1.3-.1,5.92,5.92,0,0,0-3.765.4c-1.811,1.018-2.368,3.3-3.463,5.062a8.59,8.59,0,0,1-6.092,3.818c-1.439.189-2.794.592-3.807-.746a7.1,7.1,0,0,1-.947-2.19l-2.871-9.472c-.373-1.225-.728-2.6-.118-3.73a5.647,5.647,0,0,1,2.072-1.812,17.434,17.434,0,0,0,4.055-3.747c1.1-1.4,1.616-3.067,2.611-4.458,1.918-2.67,5.358-4.523,8.673-3.966,1.906.32,3.771,1.391,5.736,1.3s3.789-.592,5.742-.462a6.877,6.877,0,0,1,5.287,2.759A3.605,3.605,0,0,1,458.254,273.868Z" transform="translate(-422.16 -251.415)"/><g class="f" transform="translate(1.074 15.398)"><path d="M458.254,273.868a5.173,5.173,0,0,1-3.037,2.3,5.971,5.971,0,0,0-3.179,2.137c-1.32,2.273.841,5.476-.592,7.7a4.085,4.085,0,0,1-2.788,1.61,26.262,26.262,0,0,1-2.729.243,10.45,10.45,0,0,1-1.3-.1,5.92,5.92,0,0,0-3.765.4c-1.811,1.018-2.368,3.3-3.463,5.062a8.59,8.59,0,0,1-6.092,3.818c-1.439.189-2.794.592-3.807-.746a7.1,7.1,0,0,1-.947-2.19l-2.871-9.472c-.373-1.225-.728-2.6-.118-3.73a5.647,5.647,0,0,1,2.072-1.812,17.434,17.434,0,0,0,4.055-3.747c1.1-1.4,1.616-3.067,2.611-4.458,1.918-2.67,5.358-4.523,8.673-3.966,1.906.32,3.771,1.391,5.736,1.3s3.789-.592,5.742-.462a6.877,6.877,0,0,1,5.287,2.759A3.605,3.605,0,0,1,458.254,273.868Z" transform="translate(-423.234 -266.813)"/></g><path class="e" d="M430.05,293.309h0a.3.3,0,0,1-.207-.361c4.736-17.819,23.538-20.394,27.93-20.075a.3.3,0,0,1-.041.592c-4.3-.314-22.668,2.2-27.321,19.642A.3.3,0,0,1,430.05,293.309Z" transform="translate(-424.853 -253.878)"/><path class="e" d="M456.3,289.07a.326.326,0,0,1-.154-.083,15.617,15.617,0,0,0-12.781-3.605.29.29,0,0,1-.332-.243.3.3,0,0,1,.249-.337,16.215,16.215,0,0,1,13.279,3.771.3.3,0,0,1-.26.5Z" transform="translate(-430.239 -258.667)"/></g><g transform="translate(76.589 49.07)"><g transform="translate(0 35.344)"><path class="g" d="M324.872,289.9V340.89a1.48,1.48,0,0,1-.657,1.148l-1.409.811a1.48,1.48,0,0,1-1.32,0l-1.409-.811a1.48,1.48,0,0,1-.657-1.148V289.9c0-.42.3-.592.657-.379l1.409.811a1.48,1.48,0,0,0,1.32,0l1.409-.811C324.576,289.3,324.872,289.475,324.872,289.9Z" transform="translate(-198.872 -182.479)"/><path class="h" d="M321.486,342.85l-1.409-.811a1.48,1.48,0,0,1-.657-1.148V289.9c0-.42.3-.592.657-.379l1.409.811a1.462,1.462,0,0,1,.657,1.143v50.983C322.131,342.885,321.847,343.045,321.486,342.85Z" transform="translate(-198.872 -182.479)"/><path class="g" d="M426.148,231.392V282.38a1.462,1.462,0,0,1-.663,1.148l-1.4.811a1.456,1.456,0,0,1-1.326,0l-1.4-.811a1.462,1.462,0,0,1-.663-1.148V231.392c0-.426.3-.592.663-.385l1.4.811a1.456,1.456,0,0,0,1.326,0l1.4-.811C425.852,230.794,426.148,230.965,426.148,231.392Z" transform="translate(-240.19 -158.607)"/><path class="h" d="M422.756,284.342l-1.4-.811a1.462,1.462,0,0,1-.663-1.148V231.394c0-.426.3-.592.663-.385l1.4.811a1.462,1.462,0,0,1,.663,1.148v50.995C423.419,284.383,423.123,284.555,422.756,284.342Z" transform="translate(-240.19 -158.609)"/><path class="g" d="M148.888,188.234v50.995a1.462,1.462,0,0,1-.657,1.143l-1.409.811a1.445,1.445,0,0,1-1.32,0l-1.409-.811a1.45,1.45,0,0,1-.663-1.143V188.234c0-.42.3-.592.663-.385l1.409.811a1.445,1.445,0,0,0,1.32,0l1.409-.811C148.592,187.642,148.888,187.814,148.888,188.234Z" transform="translate(-127.067 -141)"/><path class="h" d="M145.5,241.182l-1.409-.811a1.45,1.45,0,0,1-.663-1.143V188.234c0-.42.3-.592.663-.385l1.409.811a1.48,1.48,0,0,1,.657,1.148V240.8C146.135,241.224,145.863,241.4,145.5,241.182Z" transform="translate(-127.067 -141)"/><path class="g" d="M314.825,186.216v-.48a2.64,2.64,0,0,0-1.184-2.084L184.479,109.061a2.658,2.658,0,0,0-2.409,0l-65.1,37.58a2.67,2.67,0,0,0-1.184,2.084v.48a2.67,2.67,0,0,0,1.184,2.09l129.18,74.568a2.646,2.646,0,0,0,2.4,0L313.6,188.3a2.658,2.658,0,0,0,1.225-2.084Z" transform="translate(-115.79 -108.772)"/><path class="c" d="M338,274.61v3.262a2.54,2.54,0,0,0,1.184-.29l65.043-37.568a2.646,2.646,0,0,0,1.184-2.084v-.48a2.676,2.676,0,0,0-.977-1.93c.432.373.361.894-.225,1.237l-65.025,37.562A2.409,2.409,0,0,1,338,274.61Z" transform="translate(-206.452 -160.486)"/><path class="i" d="M338,274.61v3.262a2.54,2.54,0,0,0,1.184-.29l65.043-37.568a2.646,2.646,0,0,0,1.184-2.084v-.48a2.676,2.676,0,0,0-.977-1.93c.432.373.361.894-.225,1.237l-65.025,37.562A2.409,2.409,0,0,1,338,274.61Z" transform="translate(-206.452 -160.486)"/><path class="h" d="M314.044,185.038l-65.066,37.568a2.646,2.646,0,0,1-2.4,0L117.406,148.014a.734.734,0,0,1,0-1.391l65.043-37.562a2.658,2.658,0,0,1,2.409,0L314.02,183.653a.728.728,0,0,1,.024,1.385Z" transform="translate(-116.245 -108.772)"/></g><g transform="translate(47.6 62.83)"><path class="j" d="M246.328,179.076l-12.26,7.1a1.516,1.516,0,0,1-1.373,0l-36.218-20.886a.42.42,0,0,1,0-.793l12.26-7.1a1.515,1.515,0,0,1,1.373,0l36.218,20.88a.42.42,0,0,1,0,.8Z" transform="translate(-196.195 -156.03)"/><g transform="translate(1.021 0)"><path class="k" d="M197.92,162.411a.491.491,0,0,1,.284-.4l11.52-6.648a1.516,1.516,0,0,1,1.373,0l35.147,20.323a.491.491,0,0,1,.284.4v1.184a.474.474,0,0,1-.284.4l-11.514,6.672a1.515,1.515,0,0,1-1.373,0L198.2,164.051a.515.515,0,0,1-.284-.4Z" transform="translate(-197.92 -155.202)"/><path class="e" d="M234.732,183.1l11.514-6.619c.379-.219.379-.592,0-.793L211.1,155.367a1.516,1.516,0,0,0-1.373,0l-11.52,6.648a.42.42,0,0,0,0,.793L233.359,183.1a1.516,1.516,0,0,0,1.373,0Z" transform="translate(-197.922 -155.202)"/><path class="l" d="M259,197.661v1.231a1.332,1.332,0,0,0,.645-.154l11.508-6.648a.485.485,0,0,0,.29-.4V190.48a.485.485,0,0,1-.29.4l-11.5,6.624A1.4,1.4,0,0,1,259,197.661Z" transform="translate(-222.841 -169.596)"/><path class="h" d="M201.526,163.377h0l1.143-.657,1.545.888-1.148.681-1.545-.888Zm1.776-1.03h0l1.143-.657,1.214.7-1.137.675-1.214-.7Zm.379,2.279h0l1.143-.663,1.184.7-1.148.681-1.184-.7Zm1.409-3.309h0l1.137-.657,1.965,1.131-1.137.681-1.96-1.131Zm.041,2.09,1.143-.657.965.556-1.148.681-.965-.556Zm.373,2.273h0l1.137-.657,1.219.7-1.148.681-1.184-.7Zm1.184-1.362,1.143-.657.959.556-1.143.681-.965-.556Zm.16-4.031h0l1.143-.657,1.545.888-1.148.681-1.545-.888Zm.462,6.453h0l1.137-.657,8.779,5.067-1.148.681-8.773-5.067Zm.332-3.937h0l1.143-.657.965.556-1.148.681-.965-.556Zm.622,2.427h0l1.137-.657.965.556-1.148.681-.959-.556Zm.373-5.973h0l1.137-.663.965.562-1.143.681-.965-.556Zm.373,2.279h0l1.143-.657.965.556-1.148.681-.965-.556Zm.207,2.179h0l1.137-.657.965.556-1.148.681-.959-.556Zm.628,2.427,1.143-.657.965.556-1.148.681-.965-.556Zm.367-5.973,1.137-.663.965.562-1.148.681-.959-.556Zm.379,2.279h0l1.143-.657.965.556-1.148.681-.965-.556Zm.207,2.179h0l1.137-.657.965.556-1.148.681-.965-.556Zm0-6.619h0l1.137-.657,1.184.7-1.148.681-1.184-.7Zm.628,9.04h0l1.143-.657.965.556-1.148.681-.965-.556Zm.367-5.967,1.143-.663.965.592-1.148.675-.965-.551Zm.373,2.279h0l1.137-.657.965.556-1.148.681-.959-.556Zm.213,2.179,1.143-.657.965.556-1.148.681-.965-.556Zm.628,2.421h0l1.137-.657.965.556-1.143.681-.965-.556Zm.308-8.5h0l1.143-.657.965.556-1.148.681-.965-.556Zm.053,2.534h0l1.137-.663.965.562-1.143.681-.965-.556Zm.379,2.279h0l1.143-.657.965.556-1.113.669-.965-.556Zm.207,2.179h0l1.137-.657.965.556-1.143.681-.965-.556Zm.628,2.427h0l1.137-.657.965.556-1.148.681-.959-.556Zm.314-8.507h0l1.143-.657.965.556-1.148.681-.965-.556Zm.053,2.534,1.137-.663.965.562-1.148.681-.959-.556Zm.379,2.279h0l1.143-.657.965.556-1.148.681-.965-.556Zm.207,2.179h0l1.137-.657.965.556-1.148.681-.959-.556Zm.628,2.421h0l1.143-.657.965.556-1.148.681-.965-.556Zm.314-8.5h0l1.137-.657.965.556-1.107.7-.965-.556Zm.053,2.534,1.143-.663.965.592-1.148.675-.965-.556Zm.178,8.341h0l1.137-.657,1.184.7-1.143.681-1.214-.7Zm.2-6.062,1.137-.657.965.556-1.143.681-.965-.556Zm.207,2.179,1.143-.657.965.556-1.148.681-.965-.556Zm.628,2.421h0l1.143-.657.959.556-1.143.681-.965-.556Zm.308-8.5h0l1.137-.657.965.556-1.148.681-.959-.556Zm.059,2.534h0l1.143-.657.965.592-1.148.675-.965-.556Zm.373,2.279h0l1.137-.657.965.556-1.148.681-.959-.556Zm.047,6.21h0l1.137-.657,1.184.7-1.143.681-1.214-.7Zm.166-4.032h0l1.143-.657.965.556-1.148.681-.965-.556Zm.592,2.421,1.137-.657.965.556-1.148.681-.959-.556Zm.367-5.967,1.137-.663.965.556-1.148.681-.959-.556Zm.379,2.279h0l1.143-.657.965.556-1.148.681-.965-.556Zm.207,2.179h0l1.137-.657.965.556-1.148.681-.959-.556Zm.047-6.595,1.143-.663.965.592-1.054.639-.965-.556Zm.041,10.768h0l1.143-.657,1.184.7-1.148.681-1.214-.7Zm.539-1.776h0l1.143-.657.965.556-1.148.681-.9-.539Zm.367-5.967h0l1.137-.657.965.556-1.148.681-.965-.556Zm.379,2.279h0l1.137-.657.971.556-1.148.681-.965-.556Zm.207,2.179h0l1.143-.657.965.556-1.148.681-.965-.556Zm.047-6.595h0l1.143-.663.965.592-1.148.681-.894-.574Zm.29,10.911,1.143-.657,1.545.888-1.148.681-1.545-.888Zm.29-1.894h0l1.143-.657,3.043,1.776-1.148.681-3.043-1.776Zm.367-5.967h0l1.143-.657.965.556-1.148.681-.965-.556Zm.373,2.279h0l1.137-.657.965.556-1.148.681-.959-.556Zm.213,2.179,1.143-.657.965.556-1.148.681-.965-.556Zm.041-6.595h0l1.137-.663.965.562-1.148.675-.959-.551Zm.947,3.049h0l1.137-.657.965.556-1.148.681-.959-.556Zm.26,8.389h0l1.143-.657.965.556-1.148.681-.965-.556Zm.118-6.109,1.143-.657.965.556-1.148.681-.965-.556Zm.207,2.179,1.137-.657.882.509a.764.764,0,0,0,.592,0l1.492-.864,1.131.651-2.93,1.711-2.291-1.32Zm.047-6.595,1.143-.663.965.562-1.054.687-.965-.556Zm.947,3.049h0l1.143-.657.965.556-1.148.681-.959-.556Zm.26,8.389,1.143-.657.965.556-1.077.693-.965-.556Zm.118-6.109,1.143-.657.965.556-1.148.681-.965-.556Zm.941-4.02h0l1.143-.663.965.562-1.148.675-.965-.556Zm.26,2.652h0l1.143-.657.965.556-1.083.687-.965-.556Zm.255,8.389h0l1.137-.657.965.556-1.148.681-.959-.556Zm.207-1.942h0l1.143-.657.965.556-1.083.693-.965-.556Zm.858-8.187h0l1.137-.663.965.556-1.143.681-.965-.551Zm.26,2.652,1.137-.657,1.717.989-1.148.681-1.711-.989Zm.592,8.584h0l1.137-.657,2.546,1.468-1.148.681-2.54-1.468Zm.284-6.021h0l1.137-.657.965.556-1.143.681-.965-.556Zm.444-4.3,1.137-.663.965.556-1.148.681-.959-.556Zm1.06,9.294,1.143-.657.965.556-1.148.681-.965-.556Zm.077-4.079,1.143-.657.965.556-1.107.693-.965-.556Zm.207-1.942,1.143-.657.965.556-1.148.681-.965-.556Zm.237-2.368h0l1.143-.663.965.556-1.148.681-.965-.556Zm.852,11.248,1.143-.657.965.556-1.148.681-.965-.556Zm.2-1.942h0l1.137-.657.965.556-1.148.681-.959-.556Zm.083-4.079h0l1.143-.657.965.556-1.089.71-.965-.556Zm.124,2.137h0l1.137-.657.965.556-1.148.681-.965-.556Zm.083-4.079h0l1.137-.657.965.556-1.143.681-.965-.556Zm.592-2.161h0l1.137-.663.971.556-1.119.675-.965-.556Zm.5,11.035h0l2.924-1.687.965.556-2.93,1.711-.965-.556Zm.207-1.942h0l1.137-.657.965.556-1.148.681-.965-.556Zm.207-1.942,1.143-.657.965.556-1.148.681-.965-.556Zm.077-4.079,1.137-.657.965.556-1.148.681-.959-.556Zm.13,2.137h0l1.143-.657.959.556-1.143.681-.965-.556Zm.456-4.3,1.137-.663.965.556-1.148.681-.959-.556Zm.918,7.151,1.137-.657.965.556-1.143.681-.965-.556Zm.2-1.942h0l1.137-.657.965.556-1.148.681-.959-.556Zm.207-1.942,1.143-.657.965.556-1.148.681-.965-.556Zm.255-2.368,1.143-.663.965.556-1.148.681-.965-.556Zm.912,7.151h0l2.924-1.687.965.556-2.93,1.711-.965-.556Zm.207-1.942,1.143-.657.965.556-1.148.681-.965-.556Zm.207-1.942,1.143-.657.965.556-1.148.681-.965-.556Zm1.042-2.427h0l.48-.284.965.556-.491.308-.959-.556Zm.533,3.339h0l1.137-.657.965.556-1.148.681-.959-.556Zm1.048-2.427.485-.284.965.556-.5.308-.959-.556Zm.533,3.339,1.143-.657.965.556-1.148.681-.959-.556Zm1.048-2.427.485-.284.965.556-.5.308-.959-.556Zm1.575.912h0l.485-.284.965.556-.5.308-.959-.556Z" transform="translate(-199.389 -156.078)"/></g></g><g transform="translate(84.738)"><path class="j" d="M320.954,183.413l12.4-7.163-62.024-35.81-12.4,7.163Z" transform="translate(-258.93 -86.349)"/><g transform="translate(2.065)"><path class="b" d="M297.307,175.8l-8.88-5.121a2.315,2.315,0,0,1-1.367-1.906v-1.231l8.335-4.736a1.96,1.96,0,0,0,.882-1.527V150.37L311.74,159.3v10.922a1.959,1.959,0,0,1-.882,1.527L303.9,175.8A7.311,7.311,0,0,1,297.307,175.8Z" transform="translate(-272.472 -90.401)"/><path class="l" d="M322.51,177.141v1.231l2.836-1.634a1.96,1.96,0,0,0,.882-1.527V164.295l-2.96-1.7c-.059.752-.124,1.521-.189,2.279l2.066,1.184v8.531a1.953,1.953,0,0,1-.876,1.527Z" transform="translate(-286.936 -95.386)"/><path class="a" d="M310.713,170.83a1.942,1.942,0,0,1-.882,1.527l-5.89,3.434a7.311,7.311,0,0,1-6.613,0l-8.88-5.121c-1.823-1.054-1.823-2.759,0-3.812l5.92-3.44a1.942,1.942,0,0,0,.876-1.527V153.36l15.469,8.939Z" transform="translate(-272.48 -91.62)"/><path class="k" d="M296.33,164.454h0l1.776-1.036a1.942,1.942,0,0,0,.876-1.527V153.36l15.5,8.939v8.531a1.942,1.942,0,0,1-.882,1.527l-1.776,1.018Z" transform="translate(-276.254 -91.62)"/><path class="k" d="M287.09,179.38v1.231a2.326,2.326,0,0,0,1.373,1.906l8.88,5.121a6.589,6.589,0,0,0,3.155.781v-1.225a6.589,6.589,0,0,1-3.155-.781l-8.88-5.127a2.321,2.321,0,0,1-1.373-1.906Z" transform="translate(-272.484 -102.237)"/><path class="h" d="M325.479,140.06a2.368,2.368,0,0,1-2.137-.041L263.52,105.481a2.433,2.433,0,0,1-1.1-1.906V51.213a2.072,2.072,0,0,1,3.167-1.829l59.821,34.537a2.433,2.433,0,0,1,1.1,1.906v52.362a2.368,2.368,0,0,1-1.03,1.871Z" transform="translate(-262.418 -49.07)"/><path class="c" d="M323.342,140.953l-59.821-34.537a2.433,2.433,0,0,1-1.1-1.906V52.148c0-.7.491-.989,1.1-.633l59.821,34.561a2.457,2.457,0,0,1,1.1,1.912v52.356C324.444,141.019,323.952,141.3,323.342,140.953Z" transform="translate(-262.419 -50.005)"/><path class="g" d="M323.342,140.953l-59.821-34.537a2.433,2.433,0,0,1-1.1-1.906V52.148c0-.7.491-.989,1.1-.633l59.821,34.561a2.457,2.457,0,0,1,1.1,1.912v52.356C324.444,141.019,323.952,141.3,323.342,140.953Z" transform="translate(-262.419 -50.005)"/><path class="l" d="M365.6,197.693a2.06,2.06,0,0,0,3.007-1.918V189.89l-2.066,1.184v5.884C366.541,197.616,366.133,197.906,365.6,197.693Z" transform="translate(-304.516 -106.525)"/><path class="e" d="M324.444,167.224v5.89c0,.7-.491.989-1.1.639l-59.821-34.537a2.439,2.439,0,0,1-1.1-1.912V131.42Z" transform="translate(-262.419 -82.669)"/><path class="c" d="M323.789,132.42V90.98a1.462,1.462,0,0,0-.663-1.148L266.543,57.177c-.367-.213-.663-.041-.663.379V99a1.462,1.462,0,0,0,.663,1.148l56.583,32.666C323.493,133.012,323.789,132.84,323.789,132.42Z" transform="translate(-263.83 -52.34)"/><path class="m" d="M323.789,132.42V90.98a1.462,1.462,0,0,0-.663-1.148L266.543,57.177c-.367-.213-.663-.041-.663.379V99a1.462,1.462,0,0,0,.663,1.148l56.583,32.666C323.493,133.012,323.789,132.84,323.789,132.42Z" transform="translate(-263.83 -52.34)"/><path class="h" d="M322.9,93.656,272.547,64.577c-.361-.213-.657-.041-.657.379v36.7a1.468,1.468,0,0,0,.657,1.143l50.367,29.079c.361.207.657.036.657-.385V94.8A1.462,1.462,0,0,0,322.9,93.656Z" transform="translate(-266.283 -55.359)"/><path class="i" d="M278.932,78.078v23.088a.136.136,0,0,1-.219.124l-3.694-2.131a.486.486,0,0,1-.219-.385V75.693c0-.142.095-.2.219-.124l3.694,2.131a.5.5,0,0,1,.219.379Z" transform="translate(-267.47 -59.869)"/><path class="g" d="M279.954,80.247l-1.22-.7a.1.1,0,0,0-.166.095v1.409a.379.379,0,0,0,.166.29l1.22.7c.095.047.166,0,.166-.1v-1.4a.361.361,0,0,0-.166-.29Z" transform="translate(-269.007 -61.492)"/><path class="g" d="M276.775,78.41l-1.22-.7a.1.1,0,0,0-.166.095v1.409a.361.361,0,0,0,.166.29l1.22.7a.1.1,0,0,0,.166-.095V78.7A.379.379,0,0,0,276.775,78.41Z" transform="translate(-267.711 -60.745)"/><path class="g" d="M279.955,83.86l-1.22-.7a.1.1,0,0,0-.166.095v1.409a.379.379,0,0,0,.166.29l1.22.7c.095.047.166,0,.166-.1V84.144a.361.361,0,0,0-.166-.284Z" transform="translate(-269.008 -62.968)"/><path class="g" d="M276.775,82.02l-1.22-.7a.1.1,0,0,0-.166.095v1.409a.361.361,0,0,0,.166.29l1.22.7a.1.1,0,0,0,.166-.095V82.3A.379.379,0,0,0,276.775,82.02Z" transform="translate(-267.711 -62.217)"/><path class="g" d="M279.955,87.5l-1.22-.7a.1.1,0,0,0-.166.095V88.3a.361.361,0,0,0,.166.284l1.22.693a.1.1,0,0,0,.166-.095V87.766A.361.361,0,0,0,279.955,87.5Z" transform="translate(-269.008 -64.453)"/><path class="g" d="M276.775,85.63l-1.22-.7a.1.1,0,0,0-.166.095v1.409a.361.361,0,0,0,.166.29l1.22.7a.107.107,0,0,0,.16-.095V85.914a.379.379,0,0,0-.16-.284Z" transform="translate(-267.711 -63.69)"/><path class="g" d="M279.955,91.08l-1.22-.7a.1.1,0,0,0-.166.095v1.409a.361.361,0,0,0,.166.284l1.22.7a.1.1,0,0,0,.166-.095V91.364A.361.361,0,0,0,279.955,91.08Z" transform="translate(-269.008 -65.914)"/><path class="g" d="M276.775,89.24l-1.22-.7a.1.1,0,0,0-.166.095v1.409a.361.361,0,0,0,.166.29l1.22.7a.1.1,0,0,0,.166-.095V89.524A.379.379,0,0,0,276.775,89.24Z" transform="translate(-267.711 -65.163)"/><path class="g" d="M279.955,94.69l-1.22-.7a.1.1,0,0,0-.166.095v1.409a.367.367,0,0,0,.166.284l1.219.7a.1.1,0,0,0,.166-.095V94.974a.355.355,0,0,0-.166-.284Z" transform="translate(-269.008 -67.387)"/><path class="g" d="M276.775,92.85l-1.22-.7a.1.1,0,0,0-.166.095v1.409a.343.343,0,0,0,.166.284l1.219.7a.1.1,0,0,0,.166-.095V93.134A.379.379,0,0,0,276.775,92.85Z" transform="translate(-267.711 -66.636)"/><path class="g" d="M279.955,98.3l-1.22-.7a.1.1,0,0,0-.166.095V99.1a.367.367,0,0,0,.166.284l1.219.7a.1.1,0,0,0,.166-.095V98.584A.355.355,0,0,0,279.955,98.3Z" transform="translate(-269.008 -68.86)"/><path class="g" d="M276.775,96.5l-1.22-.7a.1.1,0,0,0-.166.095V97.3a.355.355,0,0,0,.166.284l1.22.7a.1.1,0,0,0,.166-.095V96.76A.379.379,0,0,0,276.775,96.5Z" transform="translate(-267.711 -68.125)"/><path class="g" d="M279.955,101.91l-1.22-.7a.1.1,0,0,0-.166.095v1.409a.367.367,0,0,0,.166.284l1.219.7a.1.1,0,0,0,.166-.095v-1.409A.355.355,0,0,0,279.955,101.91Z" transform="translate(-269.008 -70.333)"/><path class="g" d="M276.775,100.07l-1.22-.7a.1.1,0,0,0-.166.095v1.409a.355.355,0,0,0,.166.284l1.22.7a.1.1,0,0,0,.166-.095v-1.409A.367.367,0,0,0,276.775,100.07Z" transform="translate(-267.711 -69.582)"/><path class="g" d="M279.955,105.5l-1.22-.7a.1.1,0,0,0-.166.095V106.3a.367.367,0,0,0,.166.284l1.219.7a.1.1,0,0,0,.166-.095v-1.4A.355.355,0,0,0,279.955,105.5Z" transform="translate(-269.008 -71.797)"/><path class="g" d="M276.775,103.684l-1.22-.7a.1.1,0,0,0-.166.095v1.409a.355.355,0,0,0,.166.284l1.22.7a.1.1,0,0,0,.166-.095v-1.409A.367.367,0,0,0,276.775,103.684Z" transform="translate(-267.711 -71.059)"/><path class="l" d="M279.356,109.8l-1.823-1.048c-.136-.083-.243,0-.243.142v2.1a.551.551,0,0,0,.243.426l1.823,1.048a.151.151,0,0,0,.243-.142v-2.1A.545.545,0,0,0,279.356,109.8Z" transform="translate(-268.486 -73.405)"/><path class="h" d="M275.735,110.761l1.492.864a.166.166,0,0,1,.053.1v1.723l-1.492-.864a.183.183,0,0,1-.053-.1v-1.723m-.249-.551c-.077,0-.136.065-.136.178v2.1a.55.55,0,0,0,.249.426l1.817,1.048a.225.225,0,0,0,.112.036c.083,0,.136-.065.136-.178v-2.1a.557.557,0,0,0-.249-.426l-1.817-1.048A.225.225,0,0,0,275.486,110.21Z" transform="translate(-267.694 -74.015)"/><path class="g" d="M322.972,107.027,290.2,88.083c-.693-.4-1.249-.077-1.249.722v24.272a2.77,2.77,0,0,0,1.249,2.173l32.773,18.9c.693.4,1.255.077,1.255-.722V109.158a2.771,2.771,0,0,0-1.255-2.131Z" transform="translate(-273.243 -64.918)"/><path class="c" d="M294.065,96.143a.1.1,0,0,1-.095-.1v-.379a.1.1,0,0,1,.047-.083.089.089,0,0,1,.095,0l.326.189a.1.1,0,1,1-.095.166l-.183-.107v.213a.1.1,0,0,1-.095.1Z" transform="translate(-275.291 -68.041)"/><path class="c" d="M305.993,102.658a.065.065,0,0,1-.047,0l-.681-.391a.089.089,0,0,1-.036-.13.095.095,0,0,1,.13-.036l.681.4a.095.095,0,0,1,.036.13A.1.1,0,0,1,305.993,102.658Zm-1.362-.787h-.047l-.681-.4a.089.089,0,0,1-.036-.13.095.095,0,0,1,.13-.036l.681.4a.087.087,0,0,1-.047.166Zm-1.368-.787h-.047l-.681-.4a.1.1,0,0,1,.095-.166l.687.4a.095.095,0,0,1-.053.178ZM301.9,100.3h-.047l-.681-.4a.095.095,0,0,1-.035-.13.1.1,0,0,1,.13-.036l.681.4a.089.089,0,0,1,.036.13.1.1,0,0,1-.083.036Zm-1.362-.787h-.047l-.681-.4a.095.095,0,1,1,.095-.16l.681.391a.095.095,0,0,1-.047.178Zm-1.362-.787h-.047l-.681-.4a.093.093,0,1,1,.095-.16l.681.391a.095.095,0,0,1,.036.13.1.1,0,0,1-.083.036Zm-1.362-.787h-.047l-.681-.391a.1.1,0,0,1-.036-.124.089.089,0,0,1,.13-.036l.681.391a.095.095,0,0,1-.047.178Zm-1.356-.787a.065.065,0,0,1-.047,0l-.687-.391a.1.1,0,1,1,.1-.166l.681.391a.107.107,0,0,1,.036.13.113.113,0,0,1-.083.036Z" transform="translate(-275.989 -68.453)"/><path class="c" d="M314.51,107.947a.1.1,0,0,1-.095-.095v-.326l-.278-.16a.1.1,0,1,1,.095-.166l.332.189a.1.1,0,0,1,.047.083v.379A.1.1,0,0,1,314.51,107.947Z" transform="translate(-283.5 -72.782)"/><path class="c" d="M314.733,127.2a.1.1,0,0,1-.095-.095v-.758a.1.1,0,0,1,.095-.095.1.1,0,0,1,.1.095v.764A.1.1,0,0,1,314.733,127.2Zm0-1.527a.1.1,0,0,1-.095-.095v-.764a.1.1,0,0,1,.095-.095.1.1,0,0,1,.1.095v.764a.1.1,0,0,1-.1.095Zm0-1.527a.1.1,0,0,1-.095-.095v-.764a.1.1,0,0,1,.095-.095.1.1,0,0,1,.1.095v.764A.1.1,0,0,1,314.733,124.145Zm0-1.527a.1.1,0,0,1-.095-.095v-.764a.1.1,0,0,1,.095-.095.1.1,0,0,1,.1.095v.764A.1.1,0,0,1,314.733,122.618Zm0-1.527a.1.1,0,0,1-.095-.095v-.764a.1.1,0,0,1,.095-.095.1.1,0,0,1,.1.095v.787a.1.1,0,0,1-.1.071Zm0-1.527a.1.1,0,0,1-.095-.095V118.7a.1.1,0,0,1,.095-.095.1.1,0,0,1,.1.095v.764A.1.1,0,0,1,314.733,119.563Zm0-1.527a.1.1,0,0,1-.095-.095v-.764a.1.1,0,0,1,.095-.095.1.1,0,0,1,.1.095v.764a.1.1,0,0,1-.1.118Zm0-1.527a.1.1,0,0,1-.095-.095v-.764a.1.1,0,0,1,.095-.095.1.1,0,0,1,.1.095v.764A.1.1,0,0,1,314.733,116.508Zm0-1.527a.1.1,0,0,1-.095-.095v-.764a.1.1,0,0,1,.095-.095.1.1,0,0,1,.1.095v.764a.1.1,0,0,1-.1.095Zm0-1.527a.1.1,0,0,1-.095-.095V112.6a.1.1,0,1,1,.2,0v.764A.1.1,0,0,1,314.733,113.454Zm0-1.533a.1.1,0,0,1-.095-.095v-.764a.1.1,0,0,1,.2,0v.764a.1.1,0,0,1-.1.095Zm0-1.527a.1.1,0,0,1-.095-.095v-.764a.1.1,0,0,1,.095-.095.1.1,0,0,1,.1.095v.764a.1.1,0,0,1-.1.095Z" transform="translate(-283.723 -73.701)"/><path class="c" d="M314.5,140.992h-.047l-.326-.2a.095.095,0,1,1,.095-.16l.183.107v-.219a.1.1,0,0,1,.095-.095.1.1,0,0,1,.1.095v.385a.1.1,0,0,1-.047.083Z" transform="translate(-283.489 -86.345)"/><path class="c" d="M306,136.2h-.047l-.681-.391a.095.095,0,0,1-.036-.13.089.089,0,0,1,.13-.036l.681.391a.095.095,0,0,1-.047.178Zm-1.362-.787h-.053l-.681-.391a.1.1,0,0,1-.03-.13.089.089,0,0,1,.13-.036l.681.391a.088.088,0,0,1-.047.166Zm-1.367-.787a.077.077,0,0,1-.047,0l-.681-.391a.107.107,0,0,1-.035-.13.095.095,0,0,1,.13-.036l.681.391a.087.087,0,0,1-.047.166Zm-1.362-.787a.071.071,0,0,1-.047,0l-.681-.391a.095.095,0,0,1-.035-.13.1.1,0,0,1,.13-.036l.681.391a.1.1,0,0,1,.035.13A.083.083,0,0,1,301.908,133.837Zm-1.362-.787a.071.071,0,0,1-.047,0l-.681-.391a.1.1,0,1,1,.095-.166l.681.391a.1.1,0,0,1,.036.13.083.083,0,0,1-.083.036Zm-1.362-.781h-.047l-.681-.4a.1.1,0,0,1,.095-.166l.681.4a.095.095,0,0,1,.035.13.1.1,0,0,1-.083.036Zm-1.362-.787h-.047l-.681-.4a.089.089,0,0,1-.035-.13.095.095,0,0,1,.13-.036l.681.4a.087.087,0,0,1-.047.166Zm-1.356-.787h-.047l-.681-.4a.1.1,0,0,1,.1-.166l.681.4a.095.095,0,0,1-.053.178Z" transform="translate(-275.995 -82.138)"/><path class="c" d="M294.39,129.246h-.047l-.326-.189a.1.1,0,0,1-.047-.083v-.379a.095.095,0,1,1,.189,0v.326l.278.16a.089.089,0,0,1,.036.13A.1.1,0,0,1,294.39,129.246Z" transform="translate(-275.291 -81.478)"/><path class="c" d="M294.065,115.27a.1.1,0,0,1-.095-.095v-.77a.095.095,0,1,1,.189,0v.77A.1.1,0,0,1,294.065,115.27Zm0-1.533a.1.1,0,0,1-.095-.095v-.764a.095.095,0,1,1,.189,0v.764a.1.1,0,0,1-.095.095Zm0-1.527a.1.1,0,0,1-.095-.095v-.764a.095.095,0,1,1,.189,0v.764A.1.1,0,0,1,294.065,112.209Zm0-1.527a.1.1,0,0,1-.095-.095v-.764a.095.095,0,1,1,.189,0v.764A.1.1,0,0,1,294.065,110.682Zm0-1.527a.1.1,0,0,1-.077-.107v-.764a.095.095,0,1,1,.189,0v.764a.095.095,0,0,1-.112.107Zm0-1.527a.1.1,0,0,1-.095-.095v-.764a.095.095,0,1,1,.189,0v.764A.1.1,0,0,1,294.065,107.627Zm0-1.527a.1.1,0,0,1-.095-.095v-.764a.095.095,0,1,1,.189,0v.764a.1.1,0,0,1-.095.083Zm0-1.527a.1.1,0,0,1-.095-.095v-.758a.095.095,0,1,1,.189,0v.764A.1.1,0,0,1,294.065,104.573Zm0-1.527a.1.1,0,0,1-.095-.095v-.764a.095.095,0,1,1,.189,0v.764A.1.1,0,0,1,294.065,103.045Zm0-1.527a.1.1,0,0,1-.095-.095v-.764a.095.095,0,1,1,.189,0v.764A.1.1,0,0,1,294.065,101.518Zm0-1.527a.1.1,0,0,1-.095-.095v-.764a.095.095,0,1,1,.189,0V99.9A.1.1,0,0,1,294.065,99.99Zm0-1.527a.1.1,0,0,1-.077-.071V97.6a.095.095,0,1,1,.189,0v.787a.1.1,0,0,1-.112.071Z" transform="translate(-275.291 -68.834)"/><path class="c" d="M294.224,96.11a.089.089,0,0,1-.083-.059l-.148-.343a.094.094,0,1,1,.172-.077l.16.343a.089.089,0,0,1-.047.124Z" transform="translate(-275.296 -68.043)"/><path class="c" d="M306.149,122.357a.089.089,0,0,1-.083-.053l-.326-.71a.1.1,0,1,1,.178-.077l.32.71a.1.1,0,0,1-.047.124Zm-.639-1.415a.1.1,0,0,1-.089-.059l-.326-.7a.1.1,0,1,1,.178-.083l.32.71a.089.089,0,0,1-.047.124Zm-.645-1.421a.1.1,0,0,1-.089-.053l-.32-.71a.094.094,0,1,1,.172-.077l.32.71a.1.1,0,0,1-.047.124Zm-.645-1.415a.107.107,0,0,1-.089-.059l-.32-.7a.1.1,0,0,1,.172-.083l.32.71a.089.089,0,0,1-.047.124Zm-.645-1.421a.1.1,0,0,1-.089-.053l-.32-.71a.094.094,0,1,1,.172-.077l.32.71a.089.089,0,0,1-.041.124Zm-.645-1.415a.107.107,0,0,1-.089-.059l-.32-.7a.1.1,0,1,1,.172-.083l.326.71a.1.1,0,0,1-.047.124Zm-.645-1.421a.083.083,0,0,1-.083-.053l-.326-.71a.1.1,0,0,1,.047-.124.089.089,0,0,1,.124.047l.326.71a.1.1,0,0,1-.047.124Zm-.645-1.415a.089.089,0,0,1-.083-.059l-.326-.71a.1.1,0,0,1,.047-.124.089.089,0,0,1,.124.047l.326.71a.089.089,0,0,1-.047.124Zm-.645-1.421a.083.083,0,0,1-.083-.053l-.326-.71a.1.1,0,0,1,.047-.124.089.089,0,0,1,.124.047l.326.7a.095.095,0,0,1-.047.13Zm-.651-1.439a.1.1,0,0,1-.083-.059l-.326-.71a.1.1,0,0,1,.178-.077l.32.71a.1.1,0,0,1-.047.124Zm-.639-1.421a.1.1,0,0,1-.089-.053l-.326-.71a.1.1,0,0,1,.178-.077l.32.7a.1.1,0,0,1-.047.13Zm-.657-1.391a.107.107,0,0,1-.089-.059l-.32-.71a.089.089,0,0,1,.047-.124.1.1,0,0,1,.124.047l.32.71a.1.1,0,0,1-.047.124Zm-.645-1.421a.1.1,0,0,1-.089-.053l-.32-.71a.094.094,0,1,1,.172-.077l.32.7a.1.1,0,0,1-.047.13Zm-.645-1.421a.1.1,0,0,1-.089-.053l-.32-.71a.095.095,0,0,1,.172-.077l.32.71a.089.089,0,0,1-.047.124Zm-.645-1.415a.113.113,0,0,1-.089-.053l-.32-.71a.1.1,0,1,1,.172-.083l.326.71a.107.107,0,0,1-.047.13Zm-.645-1.421a.1.1,0,0,1-.089-.053l-.32-.71a.095.095,0,0,1,.172-.077l.326.71a.1.1,0,0,1-.047.124Zm-.645-1.415a.089.089,0,0,1-.083-.059l-.326-.7a.1.1,0,0,1,.047-.13.1.1,0,0,1,.124.047l.326.71a.1.1,0,0,1-.047.124Zm-.645-1.421a.083.083,0,0,1-.083-.053l-.326-.71a.1.1,0,0,1,.047-.124.089.089,0,0,1,.124.047l.326.71a.1.1,0,0,1-.047.124Z" transform="translate(-275.612 -68.769)"/><path class="c" d="M314.627,141.01a.1.1,0,0,1-.083-.059l-.16-.343a.1.1,0,0,1,.047-.124.089.089,0,0,1,.124.047l.16.343a.089.089,0,0,1-.047.124Z" transform="translate(-283.617 -86.362)"/><path class="c" d="M314.3,107.978a.1.1,0,0,1-.065-.166l.26-.272a.095.095,0,0,1,.136,0,.1.1,0,0,1,0,.136l-.26.278A.107.107,0,0,1,314.3,107.978Z" transform="translate(-283.549 -72.914)"/><path class="c" d="M295.367,120.255a.089.089,0,0,1-.065,0,.1.1,0,0,1,0-.136l.509-.533a.094.094,0,0,1,.13.136l-.509.533A.1.1,0,0,1,295.367,120.255Zm1.018-1.06a.073.073,0,0,1-.065-.13l.509-.533a.089.089,0,0,1,.13,0,.095.095,0,0,1,0,.136l-.509.533A.107.107,0,0,1,296.385,119.2Zm1.018-1.066a.073.073,0,0,1-.065-.13l.509-.533a.095.095,0,0,1,.136,0,.1.1,0,0,1,0,.136l-.509.533a.1.1,0,0,1-.071-.006Zm1.018-1.066a.089.089,0,0,1-.065,0,.1.1,0,0,1,0-.136l.509-.533a.089.089,0,0,1,.136,0,.1.1,0,0,1,0,.13l-.509.533a.1.1,0,0,1-.071.006ZM299.446,116a.077.077,0,0,1-.071-.136l.509-.533a.1.1,0,0,1,.136,0,.1.1,0,0,1,0,.13l-.509.533A.077.077,0,0,1,299.446,116Zm1.018-1.066a.112.112,0,0,1-.071,0,.1.1,0,0,1,0-.136l.509-.533a.1.1,0,0,1,.136.136l-.509.527a.077.077,0,0,1-.089.006Zm1.018-1.06a.1.1,0,0,1-.071-.166l.509-.533a.1.1,0,0,1,.136.136l-.509.533A.1.1,0,0,1,301.482,113.873Zm1.018-1.066a.1.1,0,0,1-.065,0,.089.089,0,0,1,0-.13l.509-.533a.095.095,0,0,1,.136,0,.1.1,0,0,1,0,.136l-.509.533A.1.1,0,0,1,302.5,112.807Zm1.018-1.066a.077.077,0,0,1-.065,0,.089.089,0,0,1,0-.13l.509-.533a.095.095,0,1,1,.136.13l-.509.533a.1.1,0,0,1-.071,0Zm1.018-1.066a.089.089,0,0,1-.065,0,.095.095,0,0,1,0-.136l.509-.533a.095.095,0,0,1,.136,0,.089.089,0,0,1,0,.13l-.5.533A.124.124,0,0,1,304.537,110.676Zm1.018-1.066a.089.089,0,0,1-.065,0,.095.095,0,0,1,0-.136l.509-.533a.1.1,0,0,1,.136,0,.089.089,0,0,1,0,.13l-.509.533A.1.1,0,0,1,305.555,109.611Z" transform="translate(-275.824 -73.487)"/><path class="c" d="M294.066,129.12a.1.1,0,0,1-.065-.03.089.089,0,0,1,0-.13l.266-.278a.1.1,0,0,1,.13,0,.089.089,0,0,1,0,.13l-.266.278A.1.1,0,0,1,294.066,129.12Z" transform="translate(-275.292 -81.541)"/><path class="c" d="M304.4,135.014a.1.1,0,0,1-.095-.095v-.385a.095.095,0,1,1,.189,0v.385A.1.1,0,0,1,304.4,135.014Z" transform="translate(-279.51 -83.901)"/><path class="c" d="M304.4,128.095a.1.1,0,0,1-.095-.095v-.7a.095.095,0,1,1,.189,0v.7A.1.1,0,0,1,304.4,128.095Zm0-1.409a.1.1,0,0,1-.095-.095v-.7a.095.095,0,1,1,.189,0v.687a.095.095,0,0,1-.095.112Zm0-1.409a.1.1,0,0,1-.095-.095v-.7a.095.095,0,1,1,.189,0v.7A.1.1,0,0,1,304.4,125.277Zm0-1.409a.1.1,0,0,1-.095-.1v-.7a.095.095,0,1,1,.189,0v.7A.1.1,0,0,1,304.4,123.868Zm0-1.415a.1.1,0,0,1-.095-.095v-.7a.095.095,0,1,1,.189,0v.7a.1.1,0,0,1-.095.071Zm0-1.409a.1.1,0,0,1-.095-.095v-.7a.095.095,0,1,1,.189,0v.7A.1.1,0,0,1,304.4,121.044Z" transform="translate(-279.51 -78.071)"/><path class="c" d="M304.4,118.886a.1.1,0,0,1-.095-.095v-.385a.1.1,0,0,1,.047-.083.13.13,0,0,1,.095,0l.326.2a.089.089,0,0,1,.036.13.1.1,0,0,1-.13.03l-.184-.107v.219A.1.1,0,0,1,304.4,118.886Z" transform="translate(-279.51 -77.322)"/><path class="c" d="M310.268,121.87a.065.065,0,0,1-.047,0l-.592-.349a.089.089,0,0,1-.036-.13.095.095,0,0,1,.13-.036l.592.349a.1.1,0,0,1,.036.13A.1.1,0,0,1,310.268,121.87Zm-1.184-.7h-.047l-.592-.349a.1.1,0,1,1,.095-.166l.592.349a.089.089,0,0,1,.035.13.1.1,0,0,1-.112.035Zm-1.184-.7h-.047l-.592-.349a.107.107,0,0,1-.036-.13.1.1,0,0,1,.13-.036l.592.349a.1.1,0,1,1-.1.166Zm-1.214-.7h-.047l-.592-.349a.095.095,0,0,1-.036-.13.089.089,0,0,1,.13-.035l.592.349a.095.095,0,0,1,.036.13.1.1,0,0,1-.136.036Z" transform="translate(-280.199 -77.701)"/><path class="c" d="M314.5,124.339a.071.071,0,0,1-.047,0l-.332-.189a.1.1,0,0,1-.035-.13.107.107,0,0,1,.13-.036l.332.2a.089.089,0,0,1,.036.124A.083.083,0,0,1,314.5,124.339Z" transform="translate(-283.493 -79.631)"/><path class="c" d="M304.4,102.014a.1.1,0,0,1-.095-.095v-.385a.095.095,0,0,1,.189,0v.385A.1.1,0,0,1,304.4,102.014Z" transform="translate(-279.51 -70.437)"/><path class="c" d="M304.4,111.225a.1.1,0,0,1-.095-.095v-.7a.095.095,0,1,1,.189,0v.7A.1.1,0,0,1,304.4,111.225Zm0-1.409a.1.1,0,0,1-.095-.095v-.687a.095.095,0,1,1,.189,0v.7A.1.1,0,0,1,304.4,109.816Zm0-1.409a.1.1,0,0,1-.095-.095v-.7a.095.095,0,0,1,.189,0v.7A.1.1,0,0,1,304.4,108.407Zm0-1.415a.1.1,0,0,1-.095-.095v-.7a.095.095,0,1,1,.189,0v.7A.1.1,0,0,1,304.4,106.992Zm0-1.409a.1.1,0,0,1-.095-.095v-.7a.095.095,0,1,1,.189,0v.7a.095.095,0,0,1-.095.1Zm0-1.409a.1.1,0,0,1-.095-.095v-.7a.095.095,0,0,1,.189,0v.7A.1.1,0,0,1,304.4,104.174Z" transform="translate(-279.51 -71.188)"/><path class="c" d="M304.165,118.152h-.047l-.332-.2a.095.095,0,1,1,.095-.16l.189.107v-.219a.095.095,0,0,1,.189,0v.385a.1.1,0,0,1-.047.083Z" transform="translate(-279.271 -77.026)"/><path class="c" d="M299.95,115.813a.065.065,0,0,1-.047,0l-.592-.349a.1.1,0,0,1-.036-.13.107.107,0,0,1,.13-.036l.592.349a.107.107,0,0,1,.036.13.089.089,0,0,1-.083.036Zm-1.214-.7a.065.065,0,0,1-.047,0l-.592-.349a.089.089,0,0,1-.036-.13.095.095,0,0,1,.13-.036l.592.349a.1.1,0,0,1,.036.13.1.1,0,0,1-.083.036Zm-1.184-.7h-.047l-.592-.349a.1.1,0,1,1,.095-.166l.592.349a.089.089,0,0,1,.035.13.1.1,0,0,1-.112.036Zm-1.184-.7h-.047l-.592-.349a.107.107,0,0,1-.036-.13.1.1,0,0,1,.13-.036l.592.349a.1.1,0,1,1-.1.166Z" transform="translate(-275.991 -75.232)"/><path class="c" d="M294.408,112.646h-.047l-.332-.189a.107.107,0,0,1-.036-.13.095.095,0,0,1,.13-.036l.331.189a.095.095,0,0,1,.036.13A.1.1,0,0,1,294.408,112.646Z" transform="translate(-275.297 -74.859)"/><path class="c" d="M302.2,121.765a4.239,4.239,0,0,1-2.113-.628c-3.4-1.971-6.18-8.051-6.18-13.557,0-3.238.983-5.742,2.628-6.69a3.5,3.5,0,0,1,3.653.213c3.41,1.965,6.18,8.051,6.18,13.557,0,3.238-.977,5.736-2.623,6.69A3.055,3.055,0,0,1,302.2,121.765Zm-4.144-21.093a2.853,2.853,0,0,0-1.45.391c-1.581.912-2.522,3.351-2.522,6.512,0,5.44,2.729,11.443,6.08,13.379a3.329,3.329,0,0,0,3.457.219c1.581-.918,2.528-3.351,2.528-6.512,0-5.446-2.729-11.449-6.086-13.385a4.014,4.014,0,0,0-1.959-.6Z" transform="translate(-275.267 -70.043)"/><path class="c" d="M320.12,132.02l10.336,5.967L320.12,115.16Z" transform="translate(-285.96 -76.035)"/><path class="g" d="M271.86,64.948c0-.414.3-.592.657-.373l50.367,29.079a1.462,1.462,0,0,1,.657,1.143v2.818L271.86,67.748Z" transform="translate(-266.27 -55.357)"/><path class="h" d="M314.1,165.372a2.279,2.279,0,0,1,1.03,1.776c0,.657-.462.929-1.03.592a2.279,2.279,0,0,1-1.036-1.776C313.06,165.307,313.522,165.04,314.1,165.372Z" transform="translate(-283.08 -96.463)"/><path class="i" d="M366.64,110.516a2.3,2.3,0,0,1,.326,1.089v46.608l2.066-1.184v-46.62a2.268,2.268,0,0,0-.326-1.089Z" transform="translate(-304.941 -73.652)"/></g></g><g transform="translate(70.294 94.188)"><path class="j" d="M286.975,229.21l-31.915-18.429a1.184,1.184,0,0,0-1.077,0l-19.228,11.1a.332.332,0,0,0,0,.628l31.915,18.423a1.184,1.184,0,0,0,1.083,0l19.222-11.1a.326.326,0,0,0,0-.622Z" transform="translate(-234.531 -209.183)"/><g transform="translate(0.609)"><path class="c" d="M286.872,226.214l-31.033-17.92a1.184,1.184,0,0,0-1.054,0L236.1,219.087a1.184,1.184,0,0,0-.527.912v.213a1.184,1.184,0,0,0,.527.912l31.033,17.914a1.143,1.143,0,0,0,1.054,0l18.689-10.792a1.184,1.184,0,0,0,.527-.912v-.207A1.184,1.184,0,0,0,286.872,226.214Z" transform="translate(-235.564 -208.171)"/><path class="c" d="M287.083,226.214l-31.033-17.92a1.184,1.184,0,0,0-1.054,0l-18.689,10.792c-.3.172-.3.438,0,.592l31.032,17.914a1.143,1.143,0,0,0,1.054,0L287.083,226.8a.32.32,0,0,0,0-.586Z" transform="translate(-235.774 -208.171)"/><g class="n" transform="translate(0.311)"><path d="M287.083,226.214l-31.033-17.92a1.184,1.184,0,0,0-1.054,0l-18.689,10.792c-.3.172-.3.438,0,.592l31.032,17.914a1.143,1.143,0,0,0,1.054,0L287.083,226.8a.32.32,0,0,0,0-.586Z" transform="translate(-236.085 -208.171)"/></g><path class="g" d="M267.975,218.045a1.184,1.184,0,0,0-1.054,0c-2.315,1.314-11.461,6.613-13.758,7.945a.32.32,0,0,0,0,.592c3.025,1.776,18.157,10.472,21.164,12.219a1.184,1.184,0,0,0,1.054,0l13.758-7.939c.29-.172.29-.444,0-.592Z" transform="translate(-242.661 -212.149)"/><path class="g" d="M259.087,219.422a1.018,1.018,0,0,1,0,1.93,3.7,3.7,0,0,1-3.345,0,1.018,1.018,0,0,1,0-1.93A3.664,3.664,0,0,1,259.087,219.422Z" transform="translate(-243.512 -212.597)"/><path class="g" d="M251.971,222.938l1.5.876c.438.249.515.592.172.811a1.587,1.587,0,0,1-1.4-.1l-1.5-.876c-.438-.255-.515-.592-.172-.811A1.581,1.581,0,0,1,251.971,222.938Z" transform="translate(-241.593 -214.106)"/><path class="g" d="M248.995,224.644l1.5.876c.438.255.515.592.172.811a1.569,1.569,0,0,1-1.4-.1l-1.527-.876c-.438-.255-.515-.592-.172-.817A1.6,1.6,0,0,1,248.995,224.644Z" transform="translate(-240.369 -214.799)"/><path class="g" d="M246.045,226.368l1.5.876c.438.249.515.592.172.811a1.569,1.569,0,0,1-1.4-.1l-1.5-.876c-.438-.249-.515-.592-.172-.811a1.569,1.569,0,0,1,1.4.1Z" transform="translate(-239.178 -215.506)"/><path class="g" d="M268.986,213.147l1.5.876c.438.249.515.592.178.811a1.581,1.581,0,0,1-1.409-.1l-1.516-.876c-.432-.249-.509-.592-.172-.811A1.6,1.6,0,0,1,268.986,213.147Z" transform="translate(-248.532 -210.111)"/><path class="g" d="M266.032,214.848l1.5.876c.438.249.515.592.172.811a1.587,1.587,0,0,1-1.4-.1l-1.5-.876c-.432-.249-.515-.592-.172-.811A1.581,1.581,0,0,1,266.032,214.848Z" transform="translate(-247.331 -210.805)"/><path class="g" d="M263.071,216.58l1.5.876c.438.255.515.592.172.811a1.569,1.569,0,0,1-1.4-.095l-1.5-.876c-.438-.255-.515-.592-.172-.811A1.581,1.581,0,0,1,263.071,216.58Z" transform="translate(-246.122 -211.514)"/><g class="d" transform="translate(32.092 18.109)"><path d="M289.77,250.221v1.421a1.184,1.184,0,0,0,.527-.118l18.689-10.8a1.148,1.148,0,0,0,.533-.912v-.207a1.184,1.184,0,0,0-.432-.847c.189.166.154.391-.1.545L290.3,250.091a1.024,1.024,0,0,1-.527.13Z" transform="translate(-289.77 -238.76)"/></g><g class="o" transform="translate(0 10.981)"><path d="M235.56,227.567v.213a1.184,1.184,0,0,0,.533.912l31.027,17.92a1.107,1.107,0,0,0,.533.118v-1.421a1.048,1.048,0,0,1-.533-.13l-31.027-17.914c-.255-.148-.29-.373-.1-.545A1.184,1.184,0,0,0,235.56,227.567Z" transform="translate(-235.56 -226.72)"/></g></g></g><g transform="translate(75.255 63.688)"><path class="j" d="M258.468,166.3a1.835,1.835,0,0,1-1.3.77.657.657,0,0,1-.462-.083l-12.633-7.4-1.137-1.332a.142.142,0,0,1,.142-.225l2.534.669,12.811,7.4A.166.166,0,0,1,258.468,166.3Z" transform="translate(-242.911 -157.212)"/><path class="p" d="M246.491,157.166l-2.623-.509a.077.077,0,0,0-.077.13l1.776,2.019Z" transform="translate(-243.26 -156.652)"/><path class="i" d="M243.792,156.787a.077.077,0,0,1,.077-.13l.515.1h0a.444.444,0,0,0-.213.414v.047Z" transform="translate(-243.26 -156.652)"/><path class="c" d="M256.57,164.784l-.213-.124-.26-.148-9.312-5.328a1.184,1.184,0,0,1,.071-.87,1.225,1.225,0,0,1,.847-.764l9.306,5.328.5.284C257.174,162.99,256.239,164.613,256.57,164.784Z" transform="translate(-244.471 -157.018)"/><path class="k" d="M261.622,167.681l-.474-.278c-.142-.071-.065-.42.1-.781.219-.474.651-.941.841-.841l.349.2.13.077c-.189-.1-.622.361-.841.841-.16.343-.237.681-.118.77h0Z" transform="translate(-250.322 -160.371)"/><path class="c" d="M261.713,167.735c-.326-.172.592-1.776.941-1.622l.485.278c-.331-.178-1.273,1.444-.941,1.616Z" transform="translate(-250.554 -160.508)"/><path class="k" d="M262.976,168.449l-.474-.272c-.326-.172.592-1.74.912-1.64h0l.48.272C263.58,166.655,262.645,168.277,262.976,168.449Z" transform="translate(-250.876 -160.683)"/><path class="j" d="M243.771,156.7l.089-.041,1.906,1.042,9.845,5.671c0-.03.035-.03.047,0-.284.438-.491.989-.308,1.083l-.213-.124-.26-.148-9.312-5.328h0l-1.776-2.019a.083.083,0,0,1-.018-.136Z" transform="translate(-243.25 -156.655)"/><path class="q" d="M265.312,169.788l-2.013-1.148c-.142-.077-.065-.42.1-.776.213-.479.645-.947.835-.852h0l2.019,1.184c.4.231.03,1.1-.414,1.486A.474.474,0,0,1,265.312,169.788Z" transform="translate(-251.199 -160.874)"/><path class="r" d="M266.517,169.961a1.456,1.456,0,0,1,.823-.995.326.326,0,0,1,.3.041c.3.278-.053,1.077-.474,1.444a.48.48,0,0,1-.521.136C266.5,170.5,266.44,170.269,266.517,169.961Z" transform="translate(-252.529 -161.668)"/></g><g transform="translate(116.168 95.112)"><path class="j" d="M312.914,217.081l3.86,2.226a4.245,4.245,0,0,0,4.262-.225l6.364-4.671a1.536,1.536,0,0,0-.142-2.776l-1.942-1.119a5.245,5.245,0,0,0-4.476-.136l-7.862,4.262C311.73,215.269,311.695,216.353,312.914,217.081Z" transform="translate(-312.021 -209.818)"/><path class="e" d="M327.953,212.3l-4.41,3.445-3.25,2.546a2.77,2.77,0,0,1-1.036.249,2.853,2.853,0,0,1-1.545-.326l-3.457-2h0a2.439,2.439,0,0,1-.7-3.493l.1-.142a4.6,4.6,0,0,1,2.782-1.776l1.776-.349c2.83-.592,5.156-.852,5.429-.669l4.333,2.5Z" transform="translate(-312.461 -209.732)"/><path class="h" d="M329.353,214.588l.243-.2-3.884-2.244,3.4-1.054-.343-.2-3.4,1.048-2.321-1.338-.438.083Z" transform="translate(-316.341 -210.09)"/><path class="b" d="M324.923,219.861h0l3.09-2.232,4.18-3.019v-.474a.054.054,0,0,0,0-.036h0a15.382,15.382,0,0,0-4.316,1.308l-1.45.592a4.582,4.582,0,0,0-2.907,4.286v.077a2.771,2.771,0,0,0,1.036-.249Z" transform="translate(-316.712 -211.509)"/></g><g transform="translate(136.829 99.849)"><path class="j" d="M346.968,224.361a.592.592,0,0,1,.42-.272L377.5,219.43h.118a.592.592,0,0,1,.545.3l1.3,2.806,1.61,1.61a.456.456,0,0,1,.1.16l.894.515a.444.444,0,0,1,0,.793l-22.046,12.728a.7.7,0,0,1-.343.089.74.74,0,0,1-.349-.089l-4.564-2.634a.462.462,0,0,1-.243-.4.444.444,0,0,1,.243-.4l5.363-3.1-6.275,2.1a.727.727,0,0,1-.231.036.645.645,0,0,1-.456-.172l-3.244-3.232a.45.45,0,0,1-.118-.414.5.5,0,0,1,.343-.349l7.1-2.368-7.921,1.237h-.118a.592.592,0,0,1-.551-.308l-1.7-3.593a.42.42,0,0,1,0-.385Z" transform="translate(-346.921 -218.425)"/><g transform="translate(7.961 2.679)"><path class="s" d="M360.37,235.131a.124.124,0,0,1,.071-.1L382.487,222.3a.4.4,0,0,1,.349,0l4.564,2.634a.124.124,0,0,1,.071.1v.687a.124.124,0,0,1-.071.1l-22.046,12.728a.4.4,0,0,1-.349,0l-4.564-2.634a.124.124,0,0,1-.071-.1Z" transform="translate(-360.369 -222.261)"/><path class="l" d="M368.5,239.84v.681a.32.32,0,0,0,.172-.041L390.7,227.752a.112.112,0,0,0,.071-.1V227c0,.041,0,.065-.071.095l-22.046,12.728A.367.367,0,0,1,368.5,239.84Z" transform="translate(-363.687 -224.194)"/><path class="t" d="M382.487,222.3l-22.046,12.728a.107.107,0,0,0,0,.2l4.564,2.634a.367.367,0,0,0,.349,0l22.028-12.728c.095-.053.095-.142,0-.2l-4.564-2.634A.4.4,0,0,0,382.487,222.3Z" transform="translate(-360.369 -222.26)"/><path class="q" d="M396.139,224.28l2.729,1.575-2.729,1.581-2.729-1.581Z" transform="translate(-373.85 -223.084)"/><path class="u" d="M396.139,224.28l2.729,1.575-2.729,1.581-2.729-1.581Z" transform="translate(-373.85 -223.084)"/><path class="q" d="M384.329,231.1l2.729,1.575-2.729,1.581-2.729-1.581Z" transform="translate(-369.031 -225.867)"/><path class="v" d="M384.329,231.1l2.729,1.575-2.729,1.581-2.729-1.581Z" transform="translate(-369.031 -225.867)"/><path class="q" d="M378.425,234.51l2.729,1.575-2.729,1.581-2.735-1.581Z" transform="translate(-366.62 -227.258)"/><path class="w" d="M378.425,234.51l2.729,1.575-2.729,1.581-2.735-1.581Z" transform="translate(-366.62 -227.258)"/><path class="q" d="M372.519,237.92l2.729,1.575-2.729,1.575-2.729-1.575Z" transform="translate(-364.213 -228.649)"/><path class="x" d="M372.519,237.92l2.729,1.575-2.729,1.575-2.729-1.575Z" transform="translate(-364.213 -228.649)"/><path class="q" d="M366.615,241.33l2.729,1.575-2.729,1.575L363.88,242.9Z" transform="translate(-361.802 -230.04)"/><path class="q" d="M390.235,227.69l2.729,1.575-2.729,1.581-2.735-1.581Z" transform="translate(-371.439 -224.475)"/><path class="y" d="M390.235,227.69l2.729,1.575-2.729,1.581-2.735-1.581Z" transform="translate(-371.439 -224.475)"/><path class="i" d="M397.476,223.383a.592.592,0,0,0,.551,0,.166.166,0,0,0,0-.32.592.592,0,0,0-.551,0,.166.166,0,0,0,0,.32Z" transform="translate(-375.459 -222.56)"/></g><g transform="translate(3.242 1.32)"><path class="s" d="M352.4,229.108c0-.047.041-.095.124-.124l27-9a.349.349,0,0,1,.337.053l3.232,3.226a.089.089,0,0,1,.03.077v.675c0,.053-.041.1-.124.13l-27,9a.349.349,0,0,1-.337-.053l-3.232-3.226a.124.124,0,0,1-.03-.077Z" transform="translate(-352.399 -219.963)"/><path class="l" d="M358.15,234.807v.687a.367.367,0,0,0,.2,0l27-9c.083-.03.13-.077.124-.13v-.675c0,.047-.047.095-.124.118l-27,9A.367.367,0,0,1,358.15,234.807Z" transform="translate(-354.745 -222.3)"/><path class="t" d="M379.519,219.985l-27,9c-.118.041-.16.13-.095.2l3.232,3.232a.361.361,0,0,0,.337.047l27-9c.118-.035.16-.124.095-.2l-3.232-3.226a.349.349,0,0,0-.337-.053Z" transform="translate(-352.398 -219.963)"/><path class="c" d="M395.315,221.94l1.93,1.93-3.345,1.113-1.93-1.93Z" transform="translate(-368.543 -220.77)"/><path class="c" d="M380.855,226.76l1.93,1.93L379.44,229.8l-1.93-1.93Z" transform="translate(-362.644 -222.736)"/><path class="z" d="M380.855,226.76l1.93,1.93L379.44,229.8l-1.93-1.93Z" transform="translate(-362.644 -222.736)"/><path class="c" d="M373.615,229.17l1.936,1.93-3.345,1.113-1.936-1.93Z" transform="translate(-359.69 -223.72)"/><path class="aa" d="M373.615,229.17l1.936,1.93-3.345,1.113-1.936-1.93Z" transform="translate(-359.69 -223.72)"/><path class="c" d="M366.385,231.58l1.93,1.93-3.345,1.119-1.93-1.93Z" transform="translate(-356.74 -224.703)"/><path class="aa" d="M366.385,231.58l1.93,1.93-3.345,1.119-1.93-1.93Z" transform="translate(-356.74 -224.703)"/><path class="c" d="M359.155,233.99l1.93,1.93-3.345,1.119-1.93-1.93Z" transform="translate(-353.79 -225.686)"/><path class="ab" d="M359.155,233.99l1.93,1.93-3.345,1.119-1.93-1.93Z" transform="translate(-353.79 -225.686)"/><path class="c" d="M388.085,224.35l1.93,1.93-3.345,1.113-1.93-1.93Z" transform="translate(-365.594 -221.753)"/><path class="j" d="M388.085,224.35l1.93,1.93-3.345,1.113-1.93-1.93Z" transform="translate(-365.594 -221.753)"/><path class="i" d="M397.415,221.026a.551.551,0,0,0,.533.083c.189-.059.255-.2.148-.308a.592.592,0,0,0-.539-.083C397.373,220.784,397.308,220.92,397.415,221.026Z" transform="translate(-370.744 -220.259)"/></g><g transform="translate(0.335)"><path class="s" d="M347.5,222.533c0-.059.071-.118.184-.136l30.115-4.653a.29.29,0,0,1,.3.1l1.658,3.6a.078.078,0,0,1,0,.036v.687c0,.059-.071.118-.178.136l-30.115,4.659a.3.3,0,0,1-.3-.1l-1.675-3.6a.119.119,0,0,1,0-.041Z" transform="translate(-347.487 -217.734)"/><path class="l" d="M350.61,228.851v.675a.308.308,0,0,0,.148,0l30.115-4.653a.174.174,0,0,0,.184-.136v-.687c0,.059-.077.118-.184.136l-30.115,4.659Z" transform="translate(-348.761 -220.311)"/><path class="t" d="M377.807,217.743,347.692,222.4c-.13,0-.213.1-.178.178l1.675,3.6a.29.29,0,0,0,.3.1l30.115-4.659c.13,0,.207-.095.172-.172l-1.669-3.6A.29.29,0,0,0,377.807,217.743Z" transform="translate(-347.495 -217.734)"/><path class="c" d="M394.675,219.53l.995,2.155-3.73.574-1-2.155Z" transform="translate(-365.216 -218.467)"/><path class="ac" d="M394.675,219.53l.995,2.155-3.73.574-1-2.155Z" transform="translate(-365.216 -218.467)"/><path class="c" d="M378.54,222.02l1,2.155-3.73.58-1-2.155Z" transform="translate(-358.635 -219.482)"/><path class="ad" d="M378.54,222.02l1,2.155-3.73.58-1-2.155Z" transform="translate(-358.635 -219.482)"/><path class="c" d="M370.48,223.27l.995,2.155-3.73.574-.995-2.149Z" transform="translate(-355.346 -219.992)"/><path class="ae" d="M370.48,223.27l.995,2.155-3.73.574-.995-2.149Z" transform="translate(-355.346 -219.992)"/><path class="c" d="M362.41,224.52l1,2.155-3.73.574-1-2.155Z" transform="translate(-352.054 -220.502)"/><path class="af" d="M362.41,224.52l1,2.155-3.73.574-1-2.155Z" transform="translate(-352.054 -220.502)"/><path class="c" d="M354.34,225.77l1,2.155-3.73.574-1-2.155Z" transform="translate(-348.761 -221.012)"/><path class="c" d="M386.61,220.78l1,2.149-3.736.58-.995-2.155Z" transform="translate(-361.927 -218.977)"/><path class="ag" d="M386.61,220.78l1,2.149-3.736.58-.995-2.155Z" transform="translate(-361.927 -218.977)"/><path class="i" d="M397.371,218.649a.485.485,0,0,0,.479.16c.213-.03.337-.154.278-.278a.48.48,0,0,0-.479-.16C397.443,218.407,397.318,218.531,397.371,218.649Z" transform="translate(-367.835 -217.988)"/></g></g><g transform="translate(124.746 115.735)"><g class="ah" transform="translate(0.001 18.015)"><path d="M328.494,275.888a12.931,12.931,0,0,1,9.419,0c2.557,1.184,2.557,3.1,0,4.274a12.961,12.961,0,0,1-9.419,0C325.847,278.978,325.853,277.072,328.494,275.888Z" transform="translate(-326.511 -275)"/></g><path class="t" d="M326.9,253.2h12.858l-.959,15.161h0c-.059.551-.592,1.1-1.557,1.516a11.36,11.36,0,0,1-7.7,0c-1.012-.42-1.545-.965-1.61-1.516h0Z" transform="translate(-326.669 -248.091)"/><path class="l" d="M339.758,253.23l-.2,3.072a5.362,5.362,0,0,1-1.077.592,15.576,15.576,0,0,1-10.242,0c-.124-.047-.225-.1-.337-.154a5.949,5.949,0,0,1-.811-.456l-.2-3.055Z" transform="translate(-326.669 -248.103)"/><path class="c" d="M326.51,251.862V249.73h1.379c.184-.095.385-.189.592-.278a14.349,14.349,0,0,1,9.419,0c.213.089.4.184.592.278h1.332v2.131h0c0,.693-.639,1.385-1.918,1.918a14.425,14.425,0,0,1-9.419,0C327.173,253.247,326.51,252.554,326.51,251.862Z" transform="translate(-326.51 -246.238)"/><g class="n" transform="translate(0 2.42)"><path d="M326.51,251.862V249.73h1.379c.184-.095.385-.189.592-.278a14.349,14.349,0,0,1,9.419,0c.213.089.4.184.592.278h1.332v2.131h0c0,.693-.639,1.385-1.918,1.918a14.425,14.425,0,0,1-9.419,0C327.173,253.247,326.51,252.554,326.51,251.862Z" transform="translate(-326.51 -248.658)"/></g><path class="c" d="M328.494,246.685a14.426,14.426,0,0,1,9.419,0c2.557,1.054,2.557,2.776,0,3.836a14.349,14.349,0,0,1-9.419,0C325.847,249.462,325.853,247.733,328.494,246.685Z" transform="translate(-326.511 -245.11)"/><path class="c" d="M329.352,248.481h0l.533-1.421h8.88l.533,1.421h0c.2.551-.266,1.131-1.4,1.557a11.84,11.84,0,0,1-7.1,0C329.625,249.612,329.121,249.031,329.352,248.481Z" transform="translate(-327.647 -245.586)"/><path class="ai" d="M329.352,248.481h0l.533-1.421h8.88l.533,1.421h0c.2.551-.266,1.131-1.4,1.557a11.84,11.84,0,0,1-7.1,0C329.625,249.612,329.121,249.031,329.352,248.481Z" transform="translate(-327.647 -245.586)"/><path class="c" d="M331.565,245.049a10.579,10.579,0,0,1,6.3,0c1.711.645,1.711,1.687,0,2.332a10.579,10.579,0,0,1-6.3,0C329.795,246.737,329.795,245.695,331.565,245.049Z" transform="translate(-328.031 -244.57)"/><g class="d" transform="translate(2.207)"><path class="e" d="M331.565,245.049a10.579,10.579,0,0,1,6.3,0c1.711.645,1.711,1.687,0,2.332a10.579,10.579,0,0,1-6.3,0C329.795,246.737,329.795,245.695,331.565,245.049Z" transform="translate(-330.237 -244.57)"/></g><path class="c" d="M331.28,246.635c0,.03.047.112.2.225a3.126,3.126,0,0,0,.722.367,9.289,9.289,0,0,0,2.96.444,8.685,8.685,0,0,0,2.913-.444,2.652,2.652,0,0,0,.7-.367c.142-.118.184-.2.184-.225s-.154-.314-.882-.592a8.838,8.838,0,0,0-2.913-.444,9.116,9.116,0,0,0-2.96.45C331.464,246.316,331.28,246.582,331.28,246.635Z" transform="translate(-328.456 -244.989)"/><g class="n" transform="translate(2.824 0.609)"><path d="M331.28,246.635c0,.03.047.112.2.225a3.126,3.126,0,0,0,.722.367,9.289,9.289,0,0,0,2.96.444,8.685,8.685,0,0,0,2.913-.444,2.652,2.652,0,0,0,.7-.367c.142-.118.184-.2.184-.225s-.154-.314-.882-.592a8.838,8.838,0,0,0-2.913-.444,9.116,9.116,0,0,0-2.96.45C331.464,246.316,331.28,246.582,331.28,246.635Z" transform="translate(-331.28 -245.598)"/></g><path class="c" d="M331.61,247.166a3.126,3.126,0,0,0,.722.367,9.289,9.289,0,0,0,2.96.444,8.685,8.685,0,0,0,2.913-.444,2.651,2.651,0,0,0,.7-.367,2.463,2.463,0,0,0-.7-.373,8.838,8.838,0,0,0-2.913-.444,9.116,9.116,0,0,0-2.96.45A2.711,2.711,0,0,0,331.61,247.166Z" transform="translate(-328.591 -245.295)"/><path d="M334.083,247.686a.918.918,0,0,0-.7-.13c-.13.071,0,.249.231.4a.9.9,0,0,0,.7.136C334.444,248.011,334.32,247.81,334.083,247.686Z" transform="translate(-329.294 -245.779)"/><path class="aj" d="M339.337,269.226c0,.562-.592,1.125-1.687,1.551a13.657,13.657,0,0,1-8.288,0c-1.184-.426-1.74-.989-1.74-1.551l-.361-5.476c0,.592.592,1.184,1.853,1.646a14.469,14.469,0,0,0,8.791,0c1.184-.456,1.776-1.054,1.776-1.646Z" transform="translate(-326.816 -252.395)"/><path class="ak" d="M332.839,271.979a8.773,8.773,0,0,1-.491-.935,2.782,2.782,0,0,0-1.433-1.261.189.189,0,0,0-.225.083,2.149,2.149,0,0,0,2.676,2.705c.035,0,.047-.089,0-.107A1.906,1.906,0,0,1,332.839,271.979Z" transform="translate(-328.175 -254.852)"/><path class="ak" d="M331.646,269.181a2.96,2.96,0,0,1,.906.556,2.717,2.717,0,0,1,.651.894,2.676,2.676,0,0,0,.823,1.089.178.178,0,0,0,.249-.036,1.888,1.888,0,0,0-.444-2.309,1.948,1.948,0,0,0-2.208-.509.178.178,0,0,0,.024.314Z" transform="translate(-328.562 -254.422)"/></g><g transform="translate(42.402 14.477)"><path class="j" d="M221.8,126.553c-3.9,2.25-3.9,5.92,0,8.146a15.674,15.674,0,0,0,14.113,0c3.9-2.25,3.9-5.92,0-8.146A15.674,15.674,0,0,0,221.8,126.553Z" transform="translate(-200.251 -94.476)"/><path class="c" d="M238.328,127.394a5.63,5.63,0,0,0-2.368-2.368,14.384,14.384,0,0,0-13.024,0,5.648,5.648,0,0,0-2.368,2.368h-.308v1.373h0c0,1.362.9,2.723,2.7,3.765a14.385,14.385,0,0,0,13.024,0c1.776-1.042,2.7-2.4,2.7-3.765h0v-1.373Z" transform="translate(-200.816 -93.901)"/><path class="ab" d="M238.328,127.394a5.63,5.63,0,0,0-2.368-2.368,14.384,14.384,0,0,0-13.024,0,5.648,5.648,0,0,0-2.368,2.368h-.308v1.373h0c0,1.362.9,2.723,2.7,3.765a14.385,14.385,0,0,0,13.024,0c1.776-1.042,2.7-2.4,2.7-3.765h0v-1.373Z" transform="translate(-200.816 -93.901)"/><path class="c" d="M222.846,130.2c-3.605-2.078-3.605-5.452,0-7.53a14.384,14.384,0,0,1,13.024,0c3.582,2.078,3.6,5.452,0,7.53A14.33,14.33,0,0,1,222.846,130.2Z" transform="translate(-200.768 -92.938)"/><path class="ai" d="M222.846,130.2c-3.605-2.078-3.605-5.452,0-7.53a14.384,14.384,0,0,1,13.024,0c3.582,2.078,3.6,5.452,0,7.53A14.33,14.33,0,0,1,222.846,130.2Z" transform="translate(-200.768 -92.938)"/><path class="c" d="M230.6,107.739l-1.729-.592c7.4-21.1-9.886-27.824-10.62-28.12l.639-1.717C219.085,77.369,238.6,84.923,230.6,107.739Z" transform="translate(-199.996 -75.069)"/><path class="g" d="M236.844,127.652a3.552,3.552,0,1,0-7.1,0h0a1.776,1.776,0,0,0,1.042,1.456,5.582,5.582,0,0,0,5.032,0,1.776,1.776,0,0,0,1.042-1.456Z" transform="translate(-204.684 -94.159)"/><path class="i" d="M236.617,127.439c-.249,1.48-3.286,2.214-4.517,1.847a5.618,5.618,0,0,0,4.665-.178,1.776,1.776,0,0,0,1.042-1.456,3.552,3.552,0,0,0-3.552-3.552C235.113,124.094,236.871,125.953,236.617,127.439Z" transform="translate(-205.647 -94.159)"/><path d="M218.592,76.233l-.592-.71,2.167-1.883a.468.468,0,0,1,.663.047h0a.468.468,0,0,1-.047.663Z" transform="translate(-199.894 -73.524)"/><path class="g" d="M217.727,77.677c.515-.651.065-1.847-.533-2.534s-1.717-1.3-2.433-.87-2.131,1.456-2.131,1.456l3.357,3.86S217.206,78.328,217.727,77.677Z" transform="translate(-197.703 -73.772)"/><path class="i" d="M217.644,74.45c.758.876,1.072,2.534-1.184,4.049l1.06,1.22s1.22-1.261,1.74-1.912.065-1.847-.533-2.534a3.386,3.386,0,0,0-1.083-.823Z" transform="translate(-199.266 -73.902)"/><path class="c" d="M201.022,93.881c2.889-2.51,7.578-12.029,4.215-15.9s-13.444-.527-16.327,1.983" transform="translate(-188.025 -74.626)"/><path class="ai" d="M201.022,93.881c2.889-2.51,7.578-12.029,4.215-15.9s-13.444-.527-16.327,1.983" transform="translate(-188.025 -74.626)"/><path class="c" d="M187.679,86.272c-1.042-3.872,1.1-5.736,4.789-4.144a16.916,16.916,0,0,1,8.566,9.839c1.042,3.866-1.1,5.736-4.789,4.144A16.915,16.915,0,0,1,187.679,86.272Z" transform="translate(-187.415 -76.802)"/><path class="ab" d="M187.679,86.272c-1.042-3.872,1.1-5.736,4.789-4.144a16.916,16.916,0,0,1,8.566,9.839c1.042,3.866-1.1,5.736-4.789,4.144A16.915,16.915,0,0,1,187.679,86.272Z" transform="translate(-187.415 -76.802)"/><path class="c" d="M203.877,90.765l.189-.184a18.429,18.429,0,0,0-4.937-5.642l-.189.154a3.76,3.76,0,1,0,4.937,5.671Z" transform="translate(-191.591 -78.182)"/><path class="ae" d="M203.877,90.765l.189-.184a18.429,18.429,0,0,0-4.937-5.642l-.189.154a3.76,3.76,0,1,0,4.937,5.671Z" transform="translate(-191.591 -78.182)"/></g><g transform="translate(128.404 13.918)"><path class="l" d="M335.093,72.74l28.28,16.333a1.45,1.45,0,0,1,.663,1.143v26.948a1.45,1.45,0,0,1-.663,1.143l-.42.243a1.444,1.444,0,0,1-1.32,0l-28.286-16.333a1.462,1.462,0,0,1-.657-1.143V74.125a1.456,1.456,0,0,1,.663-1.143l.42-.243a1.445,1.445,0,0,1,1.32,0Z" transform="translate(-332.69 -72.58)"/><path class="e" d="M332.73,73.933c.083-.272.337-.361.639-.184l28.28,16.333a1.338,1.338,0,0,1,.468.491l1.74-1.006a1.338,1.338,0,0,0-.468-.491L335.11,72.743a1.492,1.492,0,0,0-1.326,0l-.414.243a1.438,1.438,0,0,0-.639.947Z" transform="translate(-332.706 -72.583)"/><path class="a" d="M333.353,74.487l28.28,16.333a1.45,1.45,0,0,1,.663,1.143V118.91c0,.42-.3.592-.663.379l-28.286-16.333a1.462,1.462,0,0,1-.657-1.143V74.866C332.69,74.445,332.986,74.274,333.353,74.487Z" transform="translate(-332.69 -73.321)"/><path class="c" d="M361.749,94.084,335.63,79v24.148l26.119,15.084Z" transform="translate(-333.89 -75.2)"/><path class="ad" d="M361.749,94.084,335.63,79v24.148l26.119,15.084Z" transform="translate(-333.89 -75.2)"/><path class="c" d="M361.749,121.246l-7.424-12.823-10.17,7.583,2.475-2.741-5.393-7.145-5.606,3.558v4.535L361.749,129.3Z" transform="translate(-333.89 -86.265)"/><path class="c" d="M347.686,93.734a3.86,3.86,0,0,1,1.74,3.019c0,1.113-.781,1.563-1.74,1.006a3.848,3.848,0,0,1-1.746-3.019C345.94,93.628,346.721,93.208,347.686,93.734Z" transform="translate(-338.096 -81.119)"/></g></g><g transform="translate(240.294 94.794)"><g transform="translate(0 0)"><path class="c" d="M418.615,150.451a3.286,3.286,0,0,1,1.373,2.623c0,.9-.491,1.362-1.131,1.143v19.1l6.962-14.6a1.255,1.255,0,0,0,0-.894,44.511,44.511,0,0,1-3.5-13.344,1.048,1.048,0,0,0-.468-.734l-6.512-3.753a.29.29,0,0,0-.474.243c-.432,4.067-1.681,7.1-3.368,9.111a1.018,1.018,0,0,0-.178.841c.983,3.179,6.619,21.519,7.033,22.857v-19.1a3.4,3.4,0,0,1-1.131-2.451C417.248,150.475,417.858,150.031,418.615,150.451Z" transform="translate(-400.062 -131.861)"/><path class="c" d="M405.981,152.005l7.033,22.881.48-.278v.556l3.185-1.835,6.962-14.6a1.255,1.255,0,0,0,0-.894,44.512,44.512,0,0,1-3.5-13.344,1.048,1.048,0,0,0-.468-.734L413.162,140a.93.93,0,0,0-.847,0l-2.338,1.35a1.1,1.1,0,0,0-.474.728,16.837,16.837,0,0,1-3.363,9.117A.989.989,0,0,0,405.981,152.005Z" transform="translate(-397.882 -131.852)"/><path class="ai" d="M416,161.74a3.4,3.4,0,0,0,1.131,2.451v19.116l.48-.278V164.469c.639.219,1.131-.249,1.131-1.148a3.3,3.3,0,0,0-1.373-2.623C416.592,160.266,416,160.728,416,161.74Z" transform="translate(-401.981 -140.273)"/><path class="c" d="M405.977,153.283l7.033,22.881V157.048a3.4,3.4,0,0,1-1.131-2.451c0-1.012.592-1.474,1.368-1.042a3.3,3.3,0,0,1,1.373,2.623c0,.9-.491,1.368-1.131,1.148v19.092l6.956-14.6a1.226,1.226,0,0,0,0-.894,44.548,44.548,0,0,1-3.5-13.35,1.06,1.06,0,0,0-.468-.734l-6.512-3.753a.3.3,0,0,0-.474.243,16.838,16.838,0,0,1-3.363,9.117A.989.989,0,0,0,405.977,153.283Z" transform="translate(-397.878 -133.13)"/><path class="r" d="M424.34,148.819a.941.941,0,0,1,.13.373,44.546,44.546,0,0,0,3.5,13.35,1.184,1.184,0,0,1,.077.491l3.2-1.829a1.184,1.184,0,0,0-.077-.491,44.554,44.554,0,0,1-3.5-13.344.964.964,0,0,0-.13-.379Z" transform="translate(-405.384 -134.746)"/><path class="al" d="M412,141.973a.284.284,0,0,1,.456-.178l6.512,3.759a.977.977,0,0,1,.337.355l3.185-1.841a1.071,1.071,0,0,0-.332-.355l-6.512-3.753a.929.929,0,0,0-.847,0l-2.338,1.35A1.065,1.065,0,0,0,412,141.973Z" transform="translate(-400.349 -131.836)"/><path class="c" d="M422.776,132.37l-10.295-5.92a.941.941,0,0,0-.853,0l-2.338,1.35a.941.941,0,0,0-.42.734v4.535a.929.929,0,0,0,.42.734l10.313,5.955a.929.929,0,0,0,.847,0l2.338-1.35a.947.947,0,0,0,.426-.734v-4.541A.953.953,0,0,0,422.776,132.37Z" transform="translate(-399.072 -126.324)"/><path class="m" d="M408.87,128.422c.03-.219.207-.3.426-.172l10.295,5.92a.84.84,0,0,1,.3.314l3.191-1.835a.923.923,0,0,0-.3-.32l-10.295-5.92a.941.941,0,0,0-.853,0l-2.332,1.35A.947.947,0,0,0,408.87,128.422Z" transform="translate(-399.072 -126.308)"/><path class="ai" d="M427.09,144.084h.266a.888.888,0,0,0,.515-.095l2.338-1.35a.947.947,0,0,0,.426-.734v-4.541a.858.858,0,0,0-.124-.414l-3.191,1.835a.829.829,0,0,1,.13.42v4.535c0,.2-.1.308-.237.308h-.059A.136.136,0,0,1,427.09,144.084Z" transform="translate(-406.506 -130.65)"/><path class="ai" d="M418.69,187.83,421.875,186l6.956-14.6a1.184,1.184,0,0,0,.107-.391l-3.185,1.841a1.061,1.061,0,0,1-.095.4Z" transform="translate(-403.079 -144.542)"/><path class="j" d="M417.88,166.069v19.116l.48-.278V166.348c.639.219,1.131-.243,1.131-1.143v-.065Z" transform="translate(-402.748 -142.151)"/><path class="h" d="M393,157.031c0-.515.367-.728.817-.468a1.806,1.806,0,0,1,.811,1.409c0,.42-.243.633-.592.562.456,9.59,7.169,20.9,15.362,25.622,4.067,2.368,7.885,2.735,10.739,1.089,2.7-1.563,4.251-4.766,4.416-9.075a1.841,1.841,0,0,1-.592-1.231c0-.521.367-.728.811-.474a1.805,1.805,0,0,1,.817,1.409c0,.444-.266.663-.622.551-.219,4.345-1.841,7.589-4.624,9.194a8.217,8.217,0,0,1-4.144,1.066,14.344,14.344,0,0,1-7.033-2.149c-8.377-4.837-15.232-16.463-15.587-26.243A1.776,1.776,0,0,1,393,157.031Z" transform="translate(-392.597 -138.607)"/><path class="h" d="M393.827,186.863A1.776,1.776,0,0,1,394.6,188l29.446,17c.107-.32.408-.42.77-.213a1.806,1.806,0,0,1,.817,1.409c0,.521-.367.734-.817.474a1.817,1.817,0,0,1-.787-1.184L394.6,188.5c-.095.337-.4.45-.776.237a1.776,1.776,0,0,1-.817-1.409C393,186.809,393.377,186.6,393.827,186.863Z" transform="translate(-392.601 -150.968)"/><path class="h" d="M444.83,187.654a1.154,1.154,0,1,0,1.154-1.154A1.154,1.154,0,0,0,444.83,187.654Z" transform="translate(-413.744 -150.866)"/><path class="h" d="M444.9,217.954a1.184,1.184,0,1,0,1.184-1.184A1.184,1.184,0,0,0,444.9,217.954Z" transform="translate(-413.772 -163.217)"/><path class="h" d="M392.32,187.774a1.184,1.184,0,1,0,1.184-1.154A1.184,1.184,0,0,0,392.32,187.774Z" transform="translate(-392.319 -150.915)"/><path class="h" d="M392.5,157.374a1.184,1.184,0,1,0,1.184-1.184A1.184,1.184,0,0,0,392.5,157.374Z" transform="translate(-392.393 -138.5)"/></g></g><g transform="translate(62.345 87.33)"><g transform="translate(0 0)"><g transform="translate(58.768 82.709)"><path class="i" d="M206.968,326.031c-.734,1.048-.474,3.4-.592,4.393s-.1,1.965-.2,2.93a4.573,4.573,0,0,0,.367,3.025,5.1,5.1,0,0,0,3.789,2.3,11.36,11.36,0,0,0,4.535-.509,40.245,40.245,0,0,1,4.446-1.184c3.789-.592,7.53.5,11.289-.657a26.633,26.633,0,0,0,2.581-.989,18.657,18.657,0,0,0,2.25-1.077c1.776-1.083,4.333-3.386,4.085-5.654a3.413,3.413,0,0,0-3.878-3.292c-3.067.13-6.1.829-9.17.758a39.525,39.525,0,0,1-5.8-.474c-2.119-.373-4.014-.882-4.251-2.054-.373-1.853-4.47.059-6.109.858-.527.255-1.018.592-1.545.835a7.974,7.974,0,0,1-1.22.3,1.13,1.13,0,0,0-.58.485Z" transform="translate(-197.158 -281.708)"/><path class="p" d="M205,315.193l10.455-3.3s.124,5.488.628,6.808,2.042,2.119,4.144,2.492a39.525,39.525,0,0,0,5.8.474,24.737,24.737,0,0,0,2.48-.083h0c2.729-.284,5.63,2.042,1.687,3.919-3.552,1.687-8.543,1.439-12.432,1.658s-10.324-1.693-11.3-4.582h0Z" transform="translate(-196.712 -277.27)"/><path class="g" d="M207.067,253.41c2.368,9.638,2.889,38.876,2.889,38.876s-5.34,2.859-10.259,1.137L191,259.585Z" transform="translate(-191 -253.41)"/><path class="i" d="M246.236,348.966c-.728,1.054-.474,3.41-.592,4.393s-.1,1.971-.2,2.93a4.566,4.566,0,0,0,.373,3.025,5.079,5.079,0,0,0,3.789,2.309,11.5,11.5,0,0,0,4.535-.509,41.164,41.164,0,0,1,4.44-1.184c3.795-.592,7.536.509,11.3-.651.876-.272,1.729-.633,2.575-.989a17.093,17.093,0,0,0,2.25-1.083c1.776-1.083,4.333-3.38,4.091-5.654a3.425,3.425,0,0,0-3.884-3.292c-3.067.136-6.1.829-9.164.758a39.662,39.662,0,0,1-5.807-.468c-2.119-.373-4.014-.882-4.251-2.054-.373-1.859-4.464.053-6.109.858-.521.255-1.018.592-1.539.835a8.806,8.806,0,0,1-1.225.3A1.184,1.184,0,0,0,246.236,348.966Z" transform="translate(-213.179 -291.069)"/><path class="p" d="M243.89,334.37l9.164-3.28,2.042,9.472c.237,1.184,2.131,1.681,4.251,2.054a39.665,39.665,0,0,0,5.807.468,23.154,23.154,0,0,0,2.48-.077h0c2.735-.278,5.636,2.048,1.687,3.925-3.552,1.681-8.543,1.439-12.432,1.658s-11.905-.426-11.3-4.582h0Z" transform="translate(-212.579 -285.104)"/><path class="h" d="M241.437,268c4.043,5.725,5.748,43.417,5.748,43.417s-4.848,5.05-9.472,3.256l-11.6-32.844Z" transform="translate(-205.325 -259.363)"/><path class="j" d="M227.05,290.167s8.483-3.143,10.49-5.417c0,0-4.351,6.251-9.667,7.619Z" transform="translate(-205.708 -266.197)"/></g><path class="h" d="M169.339,392.763a.959.959,0,0,0,.959-.965V330.029a.959.959,0,1,0-1.918,0V391.78a.959.959,0,0,0,.959.983Z" transform="translate(-123.003 -201.571)"/><path class="h" d="M104.737,364.266a.965.965,0,0,0,.894-.592l18.944-47.952a.959.959,0,1,0-1.776-.7l-18.944,47.952a.965.965,0,0,0,.894,1.314Z" transform="translate(-96.65 -195.558)"/><path class="h" d="M108.565,361.452a.953.953,0,0,0,.7-.3l35.248-37.3,35.182,37.136a.961.961,0,1,0,1.4-1.32L145.21,321.782a.983.983,0,0,0-.7-.3h0a.971.971,0,0,0-.7.3l-35.946,38.036a.959.959,0,0,0,.7,1.622Z" transform="translate(-98.205 -198.474)"/><path class="h" d="M220.818,364.362a.9.9,0,0,0,.349-.071.959.959,0,0,0,.545-1.243L202.768,315.1a.959.959,0,0,0-1.776.7l18.944,47.952A.959.959,0,0,0,220.818,364.362Z" transform="translate(-136.293 -195.654)"/><path class="c" d="M181.9,279.677c.687-3.872-2.469-6.9-8.406-10.9a140.031,140.031,0,0,0-17.221-9.667c-4.967-2.279-10.064-2.072-16.41,1.184-8.839,4.541-35.431,20.667-35.431,20.667s39.77,22.46,47.419,21.454,26.77-13.438,28.286-17.819S181.9,279.677,181.9,279.677Z" transform="translate(-96.911 -172.406)"/><g class="am" transform="translate(7.519 85.182)"><path d="M181.9,279.677c.687-3.872-2.469-6.9-8.406-10.9a140.031,140.031,0,0,0-17.221-9.667c-4.967-2.279-10.064-2.072-16.41,1.184-8.839,4.541-35.431,20.667-35.431,20.667s39.77,22.46,47.419,21.454,26.77-13.438,28.286-17.819S181.9,279.677,181.9,279.677Z" transform="translate(-104.43 -257.588)"/></g><path class="c" d="M178.05,312.914c5.707,5.162,11.674.716,21.111-5.411,10.656-6.926,12.775-12.6,12.775-12.6s0,4.251-.8,6.246-2.522,4.251-10.224,9.561-13.284,7.968-18.464,8.957l-4.085-.592" transform="translate(-126.948 -187.63)"/><path class="ab" d="M199.161,307.5c10.656-6.926,12.775-12.6,12.775-12.6s0,4.251-.8,6.246-2.522,4.251-10.224,9.561-13.284,7.968-18.464,8.957l-4.085-.592-.314-6.18C183.757,318.077,189.724,313.631,199.161,307.5Z" transform="translate(-126.948 -187.629)"/><path class="c" d="M105.861,386.45l-2.5,6.607a.846.846,0,0,0,0,.172.4.4,0,0,0,0,.118.74.74,0,0,0,.373.414,1.658,1.658,0,0,0,1.527,0,.663.663,0,0,0,.3-.308h0v-.089l2.327-6.21Z" transform="translate(-96.472 -224.982)"/><path class="c" d="M230.913,386.45l2.5,6.607a.593.593,0,0,1,0,.172.4.4,0,0,1,0,.118.776.776,0,0,1-.379.414,1.646,1.646,0,0,1-1.521,0,.634.634,0,0,1-.3-.308h0v-.089l-2.321-6.2Z" transform="translate(-147.695 -224.982)"/><path class="c" d="M168.08,426.807v5.464a.545.545,0,0,0,.32.45,1.7,1.7,0,0,0,1.569,0,.539.539,0,0,0,.326-.45v-5.464a2.333,2.333,0,0,0-2.214,0Z" transform="translate(-122.881 -241.334)"/><g transform="translate(18.914)"><g transform="translate(0 76.405)"><path class="g" d="M124.83,261.213s24.864-10.656,29.943-13.178,14.285-6.275,19.1-5.026c3.25.847,5.115,2,6.263,6.281.219.8,1.255,8.412,1.255,8.412s-13.835,6.512-26.048,8.951S124.83,261.213,124.83,261.213Z" transform="translate(-124.148 -242.761)"/><path class="h" d="M124.36,267.623c-3.078,12.947,4.991,20.2,9.827,23,4.245,2.451,15.345,8.371,27.173,3.605,7.9-3.185,29.2-17.239,29.2-17.239,2.3-3.741,11.147-4.961,10.49-7.956-.16-.752-.225-1.557-.444-2.368-1.077-4.073-4.919-9.756-13.492-7.791-5.263,1.184-15.09,4.736-23.8,7.477-1.989.622-4.884-2.084-6.512-1.5-3.824,1.4-4.8,7.933-4.8,7.933Z" transform="translate(-123.679 -249.172)"/></g><path class="p" d="M164.854,176.39l-1.433,13.219-11.621-.9,1.137-14.67Z" transform="translate(-135.152 -138.318)"/><path class="c" d="M128.715,231.092a76.318,76.318,0,0,1,5.778-11.372c-4.736-15.149-5.429-19.737-5.215-26.64.118-3.7,5.328-9.9,9.827-9.135,1.184.2,2.019.255,3.12.462.136,3.037,6.062,3.919,11.751,2a47.433,47.433,0,0,1,5.091,1.243c2.072.77,11.13,10.484,11.8,17.387.539,5.612-5.192,10.265-5.192,10.265.314,5.92.118,13.971,0,24.71a6.556,6.556,0,0,1-4.57-.592c-2.883,4.6-10.869,11.976-19.637,10.993-15.161-1.7-14.717-12.852-14.717-12.852A49.551,49.551,0,0,1,128.715,231.092Z" transform="translate(-124.931 -142.333)"/><g class="an" transform="translate(1.817 41.547)"><path d="M128.715,231.092a76.318,76.318,0,0,1,5.778-11.372c-4.736-15.149-5.429-19.737-5.215-26.64.118-3.7,5.328-9.9,9.827-9.135,1.184.2,2.019.255,3.12.462.136,3.037,6.062,3.919,11.751,2a47.433,47.433,0,0,1,5.091,1.243c2.072.77,11.13,10.484,11.8,17.387.539,5.612-5.192,10.265-5.192,10.265.314,5.92.118,13.971,0,24.71a6.556,6.556,0,0,1-4.57-.592c-2.883,4.6-10.869,11.976-19.637,10.993-15.161-1.7-14.717-12.852-14.717-12.852A49.551,49.551,0,0,1,128.715,231.092Z" transform="translate(-126.748 -183.88)"/></g><g transform="translate(12.616 8.788)"><path class="q" d="M188.93,151.62s3.292,5.275,2.83,5.807a8.306,8.306,0,0,1-2.658,1.066Z" transform="translate(-162.917 -137.959)"/><path class="p" d="M163.253,129.767c2.587,1.421,7.045,4.043,7.951,13.723.929,9.934-1.368,13.314-2.753,14.575-.935.852-5.648,1.048-8.075.219-3.043-1.036-9.608-4.5-12.586-9.691-3.5-6.109-4.049-14.149.266-17.168C154.13,127.156,161.069,128.565,163.253,129.767Z" transform="translate(-144.99 -128.543)"/><path class="q" d="M173.7,178.278a12.746,12.746,0,0,0,5.92-.3h0a12.829,12.829,0,0,1-5.79-1.332Z" transform="translate(-156.704 -148.171)"/></g><path class="c" d="M169.379,122.668a4.825,4.825,0,0,0-4.955-2.694,5.287,5.287,0,0,0-2.93-5.784,6.908,6.908,0,0,0-4.067-.326,20.632,20.632,0,0,0-3.919,1.32c-2.9,1.184-5.784,2.439-8.708,3.593a25.876,25.876,0,0,0-4.2,1.936,12.308,12.308,0,0,0-5.506,7.151,15.836,15.836,0,0,0-.462,5.506,22.78,22.78,0,0,0,1.841,6.915,26.717,26.717,0,0,0,3.807,5.92,42.4,42.4,0,0,0,5.446,5.328,12.133,12.133,0,0,0,7.542.539,28,28,0,0,0,5.21-7.578,4.334,4.334,0,0,1-2.072.178,4.943,4.943,0,0,1-2.623-1.326c-2.368-2.143-2.516-6.216.592-7.145s4.179,3.339,4.179,3.339c1.965-.847,1.4-3.333,1.634-4.736a9.821,9.821,0,0,0,4.576-5.547,16.576,16.576,0,0,1,1.089,2.569,13.452,13.452,0,0,0,3.185-3.368,6.352,6.352,0,0,0,.337-5.79Z" transform="translate(-128.121 -113.699)"/><path class="ao" d="M169.379,122.668a4.825,4.825,0,0,0-4.955-2.694,5.287,5.287,0,0,0-2.93-5.784,6.908,6.908,0,0,0-4.067-.326,20.632,20.632,0,0,0-3.919,1.32c-2.9,1.184-5.784,2.439-8.708,3.593a25.876,25.876,0,0,0-4.2,1.936,12.308,12.308,0,0,0-5.506,7.151,15.836,15.836,0,0,0-.462,5.506,22.78,22.78,0,0,0,1.841,6.915,26.717,26.717,0,0,0,3.807,5.92,42.4,42.4,0,0,0,5.446,5.328,12.133,12.133,0,0,0,7.542.539,28,28,0,0,0,5.21-7.578,4.334,4.334,0,0,1-2.072.178,4.943,4.943,0,0,1-2.623-1.326c-2.368-2.143-2.516-6.216.592-7.145s4.179,3.339,4.179,3.339c1.965-.847,1.4-3.333,1.634-4.736a9.821,9.821,0,0,0,4.576-5.547,16.576,16.576,0,0,1,1.089,2.569,13.452,13.452,0,0,0,3.185-3.368,6.352,6.352,0,0,0,.337-5.79Z" transform="translate(-128.121 -113.699)"/></g><path class="c" d="M144.948,288.384c-3.25-.16-5.8-2.546-13.521-5.766-14.273-5.92-24.97-10.7-29.049-18.18s-6.968-29.043-5.92-38.391a12.059,12.059,0,0,1,.7-3.1L96.15,222.8l2.6-2.208h0c2.67-2.179,7.009-.237,10.277,1.539,9.342,5.085,16.647,10.023,22.425,27.859,4.345,13.421,7.211,25.657,13.207,32.2" transform="translate(-93.533 -156.918)"/><path class="al" d="M97.116,222.95,96.11,222.8l2.6-2.208h0c2.67-2.179,7.009-.237,10.277,1.539,9.342,5.085,16.647,10.023,22.425,27.859,4.345,13.421,7.211,25.657,13.207,32.2l.314,6.18c-3.25-.16-5.8-2.546-13.521-5.766-14.273-5.92-24.97-10.7-29.049-18.18s-6.968-29.043-5.92-38.391A12.059,12.059,0,0,1,97.116,222.95Z" transform="translate(-93.517 -156.918)"/><path class="c" d="M104.493,226.017c9.342,5.085,16.647,10.022,22.419,27.859s8.939,33.6,20.317,36.656c0,0-5.144,2.042-20.915-4.624-5.02-2.125-11.106-6-15.108-8.241-7.838-4.4-12.586-8-13.338-9.348-4.144-7.441-6.968-29.049-5.92-38.4S99.81,223.471,104.493,226.017Z" transform="translate(-91.729 -158.499)"/><g transform="translate(49.483 45.211)"><path class="i" d="M271.609,236.824a.142.142,0,0,0,.16-.059l.71-1.184a.142.142,0,1,0-.243-.148l-.71,1.184a.136.136,0,0,0,.047.189Z" transform="translate(-214.561 -208.55)"/><path class="c" d="M275.144,232.328l-2.463,1.9a.48.48,0,0,1-.752-.5l.805-3.025Z" transform="translate(-214.728 -206.647)"/><g class="n" transform="translate(57.187 24.053)"><path d="M275.144,232.328l-2.463,1.9a.48.48,0,0,1-.752-.5l.805-3.025Z" transform="translate(-271.914 -230.7)"/></g><path class="c" d="M283.228,205.274a.746.746,0,0,1,.823-.189c.888.231,2.048,1.273,1.545,1.906l-9.886,14.865a1.888,1.888,0,0,1-1.7-.474,1.847,1.847,0,0,1-.7-1.184Z" transform="translate(-215.293 -196.174)"/><path class="c" d="M283.228,205.274a.746.746,0,0,1,.823-.189c.888.231,2.048,1.273,1.545,1.906l-9.886,14.865a1.888,1.888,0,0,1-1.7-.474,1.847,1.847,0,0,1-.7-1.184Z" transform="translate(-215.293 -196.174)"/><path class="c" d="M290.862,205.084a.746.746,0,0,0-.823.189c-.148.225.071.858.746,1.326.823.562,1.474.592,1.664.326C292.834,206.286,291.721,205.309,290.862,205.084Z" transform="translate(-222.105 -196.174)"/><path class="ai" d="M290.862,205.084a.746.746,0,0,0-.823.189c-.148.225.071.858.746,1.326.823.562,1.474.592,1.664.326C292.834,206.286,291.721,205.309,290.862,205.084Z" transform="translate(-222.105 -196.174)"/><path class="g" d="M292.255,203.677a.614.614,0,0,1,1.03.669l-.787,1.184h0a.3.3,0,0,1-.29.112.941.941,0,0,1-.728-.474.29.29,0,0,1,0-.308h0Z" transform="translate(-222.692 -195.507)"/><path class="p" d="M239.331,210.34s-.592.935-1.119,1.681c-.42.592-.651.888-.953.959a2.569,2.569,0,0,1-2.4-1.184l.776-1.184a6.748,6.748,0,0,0-2.368.071,5.156,5.156,0,0,0-3.22,2.919c-1.184,2.7-.959,3.12-4.31,3.363s-21.057.533-21.057.533h0c-2.108-2.445-9.875-11.461-12.87-15.031-3.481-4.144-10.064-13.255-12.911-12.331s-5.506,9.6-1.658,16.28c3.41,5.92,15.232,16.422,20.057,20.678.515.474.983.882,1.409,1.237l.083.077h0c2.96,2.409,4.239,2.113,7.779,1.433,4.227-.811,24.183-4.86,28.179-6.63s7.619-6.571,7.607-9S239.331,210.34,239.331,210.34Z" transform="translate(-175.315 -190.07)"/></g></g></g></g></svg>