<svg xmlns="http://www.w3.org/2000/svg" xmlns:xlink="http://www.w3.org/1999/xlink" width="210.88" height="205.117" viewBox="0 0 210.88 205.117"><defs><style>.a{fill-rule:evenodd;fill:url(#a);}</style><linearGradient id="a" x1="0.5" x2="0.5" y2="1" gradientUnits="objectBoundingBox"><stop offset="0" stop-color="#5bab2f"/><stop offset="1" stop-color="#a8e063"/></linearGradient></defs><g transform="translate(-515.87 -513.346)"><g transform="translate(515.87 513.346)"><path class="a" d="M126.309,109.541a49.773,49.773,0,1,1-49.773,49.773A49.751,49.751,0,0,1,126.309,109.541Zm68.11,30.388v97.188H58.461V139.929l9.693-9.693v97.188H184.727V130.236Zm-143.032-2.62h.262v23.839H21V137.309l90.115-90.115L126.309,32,141.5,47.194l27.244,27.244v-20.7h40.6v61.3l22.529,22.267v23.839H200.968V137.309h.524L126.309,62.388Zm77.8-8.645v1.572c8.383,1.31,15.718,7.6,15.718,16.5,0,5.239-8.907,5.239-8.907,0,0-4.191-3.144-7.073-6.811-8.121v16.766c8.383,1.31,15.718,7.6,15.718,16.5s-7.335,15.194-15.718,16.5v1.572a2.882,2.882,0,1,1-5.763,0v-1.572c-8.121-1.31-15.456-7.6-15.456-16.5,0-5.5,8.907-5.5,8.907,0a8.653,8.653,0,0,0,6.549,8.121V163.243c-8.121-1.31-15.456-7.859-15.456-16.5,0-8.907,7.335-15.194,15.456-16.5v-1.572A2.882,2.882,0,1,1,129.191,128.664Zm0,35.1v16.242c3.667-1.048,6.811-4.191,6.811-8.121S132.858,164.815,129.191,163.767Zm-5.763-8.907V138.619c-3.667,1.048-6.549,3.929-6.549,8.121A8.653,8.653,0,0,0,123.427,154.86Z" transform="translate(-21 -32)"/></g></g></svg>