<svg xmlns="http://www.w3.org/2000/svg" xmlns:xlink="http://www.w3.org/1999/xlink" width="229.943" height="174.959" viewBox="0 0 229.943 174.959"><defs><style>.a{fill:url(#a);}</style><linearGradient id="a" x1="0.5" x2="0.5" y2="1" gradientUnits="objectBoundingBox"><stop offset="0" stop-color="#5bab2f"/><stop offset="1" stop-color="#a8e063"/></linearGradient></defs><g transform="translate(0 -41.75)"><g transform="translate(0 41.75)"><path class="a" d="M222.3,89.49,130.643,44.713c-7.9-3.951-21.335-3.951-29.237,0L7.638,89.49C1.054,92.651,0,97.129,0,99.5s1.054,6.585,7.638,10.009l7.638,3.688v42.143a12.906,12.906,0,0,0-8.165,11.853,13.076,13.076,0,0,0,7.9,11.853L3.161,216.709H36.348L24.5,179.044a12.762,12.762,0,0,0-.263-23.705V117.673l13.96,6.848v54.786a4.248,4.248,0,0,0,.79,2.371c1.317,1.58,25.813,35.031,75.857,35.031s74.54-33.714,75.594-35.031a4.248,4.248,0,0,0,.79-2.371V124.785l31.08-15.277c6.585-3.161,7.638-7.638,7.638-10.009C229.679,97.129,228.889,92.651,222.3,89.49ZM182.8,177.99c-4.214,5.268-26.866,30.554-67.956,30.554S51.1,183.258,46.884,177.99V128.209l54.522,26.076a35.521,35.521,0,0,0,14.487,2.9c5.531,0,10.8-1.054,14.75-3.161L182.8,128.472Zm35.822-75.857-31.607,15.54a3.026,3.026,0,0,0-2.9,1.58L126.956,146.91c-5.531,2.9-16.33,2.9-22.125,0L34.5,113.2l80.862-9.482a4.1,4.1,0,1,0-.79-8.165L20.808,106.611l-9.482-4.478c-2.371-1.054-2.9-2.371-2.9-2.371,0-.263.527-1.317,2.9-2.371l93.768-45.04a27.209,27.209,0,0,1,10.8-2.107,26.7,26.7,0,0,1,11.063,2.107l91.661,44.777c2.371,1.054,2.9,2.107,2.9,2.634A7.242,7.242,0,0,1,218.617,102.133Z" transform="translate(0 -41.75)"/></g></g></svg>