<svg xmlns="http://www.w3.org/2000/svg" width="43.269" height="29.208" viewBox="0 0 43.269 29.208"><path d="M.072,30.689V6.655q0-.042.125-.793l14.145,12.1L.239,31.523a3.536,3.536,0,0,1-.167-.835ZM1.95,4.193a1.8,1.8,0,0,1,.709-.125h38.1a2.363,2.363,0,0,1,.751.125L27.319,16.335l-1.878,1.5-3.714,3.046-3.714-3.046-1.878-1.5Zm.042,28.958L16.22,19.506l5.508,4.465,5.508-4.465L41.464,33.151a2,2,0,0,1-.709.125H2.659a1.89,1.89,0,0,1-.668-.125ZM29.113,17.963l14.1-12.1a2.491,2.491,0,0,1,.125.793V30.689a3.2,3.2,0,0,1-.125.835Z" transform="translate(-0.072 -4.068)" fill="#fff"/></svg>