<svg xmlns="http://www.w3.org/2000/svg" xmlns:xlink="http://www.w3.org/1999/xlink" width="217.432" height="205.749" viewBox="0 0 217.432 205.749"><defs><style>.a{fill:url(#a);}</style><linearGradient id="a" x1="0.5" x2="0.5" y2="1" gradientUnits="objectBoundingBox"><stop offset="0" stop-color="#5bab2f"/><stop offset="1" stop-color="#a8e063"/></linearGradient></defs><g transform="translate(0 0)"><path class="a" d="M128.334,297.5a4.247,4.247,0,1,0-5.8-1.554A4.248,4.248,0,0,0,128.334,297.5Zm0,0" transform="translate(-70.169 -166.601)"/><path class="a" d="M40.762,173.071l21.386,37.044A16.986,16.986,0,1,0,91.57,193.13l-12.74-22.07,11.033-6.37a4.248,4.248,0,0,0,1.554-5.8L85.9,149.324c.659-.128,4.988-.977,81.341-15.955a12.738,12.738,0,0,0,10.327-19.089L163.449,89.835l9.019-13.661a4.248,4.248,0,0,0,.134-4.464L164.109,57a4.256,4.256,0,0,0-3.933-2.115l-16.338.98L128.17,28.726A12.629,12.629,0,0,0,117.3,22.357c-.055,0-.108,0-.163,0a12.628,12.628,0,0,0-10.726,5.874L50.931,98.9,14.865,119.723a29.727,29.727,0,0,0,25.9,53.348Zm43.454,24.308A8.494,8.494,0,0,1,69.5,205.87L48.27,169.088l14.711-8.493C87.556,203.165,83.821,196.7,84.216,197.379ZM74.583,163.7l-4.247-7.355,7.355-4.247,4.247,7.355ZM158.066,63.519l5.869,10.166L158.7,81.611,148.586,64.088ZM113.51,32.886a4.245,4.245,0,0,1,7.3.085l49.395,85.557a4.246,4.246,0,0,1-3.573,6.367,15.592,15.592,0,0,0-2.329.395l-52.25-90.5C113.152,33.379,113.293,33.243,113.51,32.886Zm-7.107,9.1,49.091,85.029L81.406,141.549,58.879,102.531ZM11.34,156.084a21.219,21.219,0,0,1,7.772-29.005l33.1-19.11,21.234,36.777-33.1,19.112A21.26,21.26,0,0,1,11.34,156.084Zm0,0" transform="translate(0 -12.862)"/><path class="a" d="M69.565,311.7a4.247,4.247,0,0,0-5.8-1.554l-7.355,4.247a4.252,4.252,0,0,1-5.8-1.554,4.247,4.247,0,0,0-7.355,4.247,12.757,12.757,0,0,0,17.4,4.663l7.355-4.247A4.247,4.247,0,0,0,69.565,311.7Zm0,0" transform="translate(-24.556 -178.106)"/><path class="a" d="M462.121,43.018,438.457,56.186a4.247,4.247,0,0,0,4.131,7.422L466.25,50.44a4.247,4.247,0,0,0-4.129-7.422Zm0,0" transform="translate(-251.001 -24.44)"/><path class="a" d="M461.819,141.163l-16.408-4.4a4.246,4.246,0,1,0-2.2,8.2l16.41,4.4a4.246,4.246,0,1,0,2.2-8.2Zm0,0" transform="translate(-253.18 -78.602)"/><path class="a" d="M388.039,3.149l-4.4,16.41a4.247,4.247,0,1,0,8.2,2.2l4.4-16.41a4.246,4.246,0,1,0-8.2-2.2Zm0,0" transform="translate(-220.634 0)"/></g></svg>