<svg xmlns="http://www.w3.org/2000/svg" xmlns:xlink="http://www.w3.org/1999/xlink" width="233.387" height="199.299" viewBox="0 0 233.387 199.299"><defs><style>.a,.c,.d,.f,.o,.q{fill:#fff;}.a,.g,.j,.n,.o,.p,.q,.r{stroke:#263238;}.a,.g,.h,.j,.n{stroke-linecap:round;stroke-linejoin:round;}.b,.p{fill:#5bab2f;}.c{opacity:0.7;}.d,.e,.o{opacity:0.5;}.g,.m,.r{fill:#263238;}.h,.j,.n{fill:none;}.h{stroke:#fff;stroke-width:0.75px;}.i{clip-path:url(#a);}.k{clip-path:url(#b);}.l{clip-path:url(#c);}.n{stroke-width:0.5px;}.o,.p,.q,.r{stroke-miterlimit:10;}</style><clipPath id="a"><path class="a" d="M190,173.9s-9.1-1.706-10.237-1.99-11.658-9.1-11.658-9.1l-7.268-18.3-3.8,1.024s.688,11.158,1.137,14.286a55.229,55.229,0,0,0,3.128,9.81,7.442,7.442,0,0,0,2.275,2.417c.569.142,7.251,5.118,8.815,5.971s7.82,4.55,7.82,4.55,3.128,7.962,3.554,9.526,2.417,11.658,2.559,12.8-.569,1.99,0,2.986,4.692,3.839,10.379,3.839,10.805-1.99,11.374-3.7-.284-6.967-.284-7.393.569-6.682.569-6.682,2.986,6.114,4.265,8.1,3.27,4.692,4.692,4.692,19.478-11.09,19.478-11.09l-.853-3.554a34.532,34.532,0,0,1-8.246,2.559c-3.981.569-9.384,1.99-9.384,1.99s-5.26-11.516-5.829-13.649-1.422-5.971-2.133-6.682-10.379-2.133-11.658-2.133S190,173.9,190,173.9Z" transform="translate(-157.04 -144.52)"/></clipPath><clipPath id="b"><path class="a" d="M215.316,183.851s1.041,5.016,1.422,5.96,3.594,5.585,4.26,5.585,2.747-5.118,2.844-5.96.1-2.844.1-2.844-3.219.853-4.732-.188-2.844-3.594-3.412-3.594S215.316,183.851,215.316,183.851Z" transform="translate(-215.311 -182.81)"/></clipPath><clipPath id="c"><path class="a" d="M223.814,161.5s.284,4.641.569,6.722.375,4.55-.665,6.153a5.471,5.471,0,0,1-4.26,2.935,6.855,6.855,0,0,1-5.772-2.366c-.853-1.325-1.609-2.65-1.609-2.65a3.111,3.111,0,0,1-3.122-3.981c.284-.853,1.706-.944,1.706-.944s-.66-2.935-1.041-4.925a4.186,4.186,0,0,1,3.031-4.823c2.366-.762,5.869-.665,7.666.284S223.342,159.894,223.814,161.5Z" transform="translate(-208.893 -157.117)"/></clipPath></defs><g transform="translate(-45.647 -73.553)"><g transform="translate(45.647 73.553)"><path class="b" d="M279.015,172.193a148.892,148.892,0,0,0-1.507-23.658c-2.667-19.108-8.479-40.48-23.527-53.685C226.8,71,172.822,64.708,143.75,88.81c-9.19,7.615-17.459,13.927-28.845,18.233-12.813,4.868-26.4,5.477-39.314,9.839-7.456,2.519-14.587,6.506-19.7,12.511-17.743,20.758-9.73,56.688,3.606,77.491,9.6,14.974,24.517,25.131,40.838,31.591,7.962,3.145,16.919,6.91,25.54,7.257,11,.438,21.343-4.476,31.341-8.394,31.529-12.358,66.282,6.176,96.8-11.971C272.475,214.4,278.583,192.393,279.015,172.193Z" transform="translate(-45.647 -73.553)"/><path class="c" d="M279.015,172.193a148.892,148.892,0,0,0-1.507-23.658c-2.667-19.108-8.479-40.48-23.527-53.685C226.8,71,172.822,64.708,143.75,88.81c-9.19,7.615-17.459,13.927-28.845,18.233-12.813,4.868-26.4,5.477-39.314,9.839-7.456,2.519-14.587,6.506-19.7,12.511-17.743,20.758-9.73,56.688,3.606,77.491,9.6,14.974,24.517,25.131,40.838,31.591,7.962,3.145,16.919,6.91,25.54,7.257,11,.438,21.343-4.476,31.341-8.394,31.529-12.358,66.282,6.176,96.8-11.971C272.475,214.4,278.583,192.393,279.015,172.193Z" transform="translate(-45.647 -73.553)"/></g><g transform="translate(110.68 250.673)"><ellipse class="b" cx="35.828" cy="11.09" rx="35.828" ry="11.09"/><ellipse class="d" cx="35.828" cy="11.09" rx="35.828" ry="11.09"/></g><g transform="translate(176.79 203.214)"><path class="b" d="M343.74,314.525s2.661-2.1,3.338-3.452a4.79,4.79,0,0,0,.4-3.981,2.275,2.275,0,0,0-3.236-1.041c-1.638,1.024-1.814,4.5-1.393,6.165C342.887,312.352,343.711,314.547,343.74,314.525Z" transform="translate(-304.89 -303.354)"/><path class="b" d="M299.467,346.549c.108.1,2.008,1.479,2.019,1.445s1.058-3.219.881-4.72a4.817,4.817,0,0,0-1.865-3.554,2.275,2.275,0,0,0-3.27.921C296.447,342.369,298.2,345.366,299.467,346.549Z" transform="translate(-285.214 -317.857)"/><path class="b" d="M391.988,326.78s-9.736,10.055-9.668,22.4S392.2,371.5,392.2,371.5s9.742-10.055,9.668-22.4S391.988,326.78,391.988,326.78Z" transform="translate(-321.996 -312.43)"/><path class="b" d="M332.357,345.7a4.444,4.444,0,0,0,.353-.444,4.785,4.785,0,0,0,.859-3.924,2.275,2.275,0,0,0-3.094-1.422c-1.325.626-1.973,2.741-2.11,4.476-.529-.119-1.007-.21-1.416-.279-.171-.392-.347-.791-.529-1.189s-.324-.825-.495-1.24c-.233-.62-.438-1.268-.654-1.911a14.538,14.538,0,0,0,3.85-2.32,4.8,4.8,0,0,0,1.444-3.742,2.275,2.275,0,0,0-2.844-1.86c-1.848.569-2.935,3.856-2.974,5.579,0,.057.028.421.068.853-.182-.637-.375-1.274-.54-1.922-.478-1.848-.9-3.748-1.336-5.647-.091-.4-.188-.79-.279-1.189a15.32,15.32,0,0,0,3.981-2.371,4.665,4.665,0,0,0,1.444-3.742,2.275,2.275,0,0,0-2.843-1.86c-1.848.569-2.935,3.856-2.974,5.579,0,.063.034.495.08.984-.25-1.029-.512-2.053-.808-3.06a40.518,40.518,0,0,0-1.82-5.073,15.848,15.848,0,0,0,4.095-2.428,4.726,4.726,0,0,0,1.439-3.742,2.275,2.275,0,0,0-2.844-1.86c-1.848.569-2.935,3.856-2.974,5.579,0,.119.142,1.706.21,2.275a.236.236,0,0,1,0-.057,29.669,29.669,0,0,0-2.65-4.584,41.4,41.4,0,0,0-2.929-3.719c-.961-1.1-1.905-2.059-2.747-2.895-.461-.449-.893-.853-1.3-1.223h.04c.034,0-.9-2.15-.972-2.275-.864-1.49-3.412-3.861-5.295-3.452a2.275,2.275,0,0,0-1.6,3,4.78,4.78,0,0,0,3.071,2.588,15.693,15.693,0,0,0,4.646.165c.409.392.847.819,1.319,1.3.825.853,1.746,1.82,2.679,2.946.25.3.506.626.756.944-.535-.444-1.285-1.046-1.365-1.092-1.45-.927-4.806-1.86-6.29-.626a2.275,2.275,0,0,0-.034,3.412,4.76,4.76,0,0,0,3.913.881,16.071,16.071,0,0,0,4.22-2.007,26.448,26.448,0,0,1,1.626,2.275,29.522,29.522,0,0,1,2.519,4.578c.04.091.068.193.108.29-.227-.267-1.581-1.638-1.706-1.706-1.342-1.075-4.55-2.371-6.182-1.308a2.275,2.275,0,0,0-.409,3.372,4.757,4.757,0,0,0,3.793,1.3,15.933,15.933,0,0,0,4.51-1.581,40.376,40.376,0,0,1,1.649,4.948c.33,1.245.62,2.519.893,3.8-.3-.336-1.564-1.609-1.666-1.706-1.342-1.081-4.55-2.371-6.182-1.314a2.275,2.275,0,0,0-.409,3.372,4.761,4.761,0,0,0,3.793,1.308,15.738,15.738,0,0,0,4.487-1.57c.125.569.25,1.137.37,1.746.4,1.905.785,3.822,1.223,5.687.154.648.324,1.28.495,1.922-.472-.495-1.348-1.376-1.433-1.444-1.342-1.081-4.55-2.371-6.182-1.314a2.275,2.275,0,0,0-.41,3.372,4.762,4.762,0,0,0,3.793,1.308,15,15,0,0,0,4.345-1.5c.29,1.058.6,2.1.961,3.116.165.432.3.882.483,1.291l.273.648-.37-.04s-.028.6.028,1.587c-1.416-1.012-3.458-1.882-4.788-1.268a2.275,2.275,0,0,0-.916,3.27,2.844,2.844,0,0,0,.3.409,8.838,8.838,0,0,0,1.831,4.078c.074.085,1.035.972,1.535,1.416-.483-.262-.967-.523-1.467-.808-.722-.4-1.473-.847-2.207-1.274l-1.137-.717c-.387-.239-.728-.506-1.1-.762-.535-.387-1.069-.813-1.6-1.234a14.769,14.769,0,0,0,1.934-4.055,4.853,4.853,0,0,0-.864-3.924,2.275,2.275,0,0,0-3.412,0c-1.24,1.479-.324,4.834.6,6.3.028.046.256.336.523.671-.506-.427-1.012-.853-1.513-1.3-1.416-1.28-2.844-2.627-4.231-3.981l-.887-.836a14.345,14.345,0,0,0,2-4.163,4.709,4.709,0,0,0-.864-3.918,2.275,2.275,0,0,0-3.412,0c-1.24,1.479-.324,4.834.569,6.29.034.051.307.4.614.779-.779-.722-1.564-1.427-2.366-2.1a39.281,39.281,0,0,0-4.316-3.23,15.664,15.664,0,0,0,2.076-4.282,4.769,4.769,0,0,0-.864-3.918,2.275,2.275,0,0,0-3.412,0c-1.24,1.479-.324,4.834.6,6.29.063.1,1.052,1.336,1.416,1.769l-.051-.04a29.829,29.829,0,0,0-4.737-2.354,40.234,40.234,0,0,0-4.493-1.49c-1.41-.392-2.724-.665-3.89-.9-.631-.119-1.211-.216-1.752-.3l.028-.028c.028,0-1.939-1.3-2.07-1.365-1.541-.768-4.976-1.336-6.318.04a2.275,2.275,0,0,0,.318,3.384,4.765,4.765,0,0,0,3.981.466,16.382,16.382,0,0,0,3.981-2.428c.569.1,1.137.216,1.82.358,1.137.256,2.462.569,3.856.978.375.114.768.25,1.137.375-.694-.08-1.649-.165-1.74-.165-1.706.034-5.033,1.1-5.59,2.952a2.275,2.275,0,0,0,1.843,2.844,4.794,4.794,0,0,0,3.753-1.427,15.989,15.989,0,0,0,2.406-3.981c.853.284,1.706.6,2.6.984a29.668,29.668,0,0,1,4.629,2.428l.245.182c-.336-.1-2.218-.495-2.354-.506-1.706-.159-5.118.569-5.88,2.32a2.275,2.275,0,0,0,1.518,3.037,4.743,4.743,0,0,0,3.884-1.007,15.607,15.607,0,0,0,2.889-3.8,39.633,39.633,0,0,1,4.106,3.219c.961.853,1.905,1.757,2.844,2.673-.444-.114-2.2-.478-2.326-.489-1.706-.159-5.118.54-5.88,2.315a2.275,2.275,0,0,0,1.518,3.037,4.772,4.772,0,0,0,3.89-1,15.746,15.746,0,0,0,2.872-3.788l1.274,1.257c1.382,1.371,2.758,2.753,4.157,4.078.489.455.984.893,1.479,1.325-.665-.148-1.882-.4-1.99-.409-1.706-.159-5.118.54-5.88,2.315a2.275,2.275,0,0,0,1.518,3.043,4.783,4.783,0,0,0,3.884-1.007,15.076,15.076,0,0,0,2.792-3.645c.83.722,1.666,1.416,2.525,2.064.375.273.739.569,1.137.813l1.109.739c.773.478,1.49.927,2.224,1.354l1.081.626c-.654-.256-1.706-.643-1.791-.665-1.672-.421-5.147-.239-6.165,1.4a2.275,2.275,0,0,0,1.041,3.23,4.724,4.724,0,0,0,3.981-.4,15.817,15.817,0,0,0,3.412-3.287c.887.506,1.752.99,2.571,1.427,2.184,1.166,4.095,2.1,5.573,2.8,4.811,4.157,11.579,4.612,11.579,4.612s.358-8.1-4.413-13.444A16.748,16.748,0,0,0,332.357,345.7Zm-8.587,7.9a16.793,16.793,0,0,0,1.382-4.362c.267-.045.535-.1.8-.165a18.767,18.767,0,0,0,2.986,7.137q-1.314-.626-2.844-1.388C325.356,354.45,324.572,354.035,323.77,353.6Z" transform="translate(-276.248 -301.548)"/><path class="b" d="M423.652,376.45s-8.115.25-13.08,5.408-4.9,13.273-4.9,13.273,8.11-.25,13.08-5.408S423.652,376.45,423.652,376.45Z" transform="translate(-332.067 -333.853)"/><g class="e"><path class="f" d="M343.74,314.525s2.661-2.1,3.338-3.452a4.79,4.79,0,0,0,.4-3.981,2.275,2.275,0,0,0-3.236-1.041c-1.638,1.024-1.814,4.5-1.393,6.165C342.887,312.352,343.711,314.547,343.74,314.525Z" transform="translate(-304.89 -303.354)"/><path class="f" d="M299.467,346.549c.108.1,2.008,1.479,2.019,1.445s1.058-3.219.881-4.72a4.817,4.817,0,0,0-1.865-3.554,2.275,2.275,0,0,0-3.27.921C296.447,342.369,298.2,345.366,299.467,346.549Z" transform="translate(-285.214 -317.857)"/><path class="f" d="M391.988,326.78s-9.736,10.055-9.668,22.4S392.2,371.5,392.2,371.5s9.742-10.055,9.668-22.4S391.988,326.78,391.988,326.78Z" transform="translate(-321.996 -312.43)"/><path class="f" d="M332.357,345.7a4.444,4.444,0,0,0,.353-.444,4.785,4.785,0,0,0,.859-3.924,2.275,2.275,0,0,0-3.094-1.422c-1.325.626-1.973,2.741-2.11,4.476-.529-.119-1.007-.21-1.416-.279-.171-.392-.347-.791-.529-1.189s-.324-.825-.495-1.24c-.233-.62-.438-1.268-.654-1.911a14.538,14.538,0,0,0,3.85-2.32,4.8,4.8,0,0,0,1.444-3.742,2.275,2.275,0,0,0-2.844-1.86c-1.848.569-2.935,3.856-2.974,5.579,0,.057.028.421.068.853-.182-.637-.375-1.274-.54-1.922-.478-1.848-.9-3.748-1.336-5.647-.091-.4-.188-.79-.279-1.189a15.32,15.32,0,0,0,3.981-2.371,4.665,4.665,0,0,0,1.444-3.742,2.275,2.275,0,0,0-2.843-1.86c-1.848.569-2.935,3.856-2.974,5.579,0,.063.034.495.08.984-.25-1.029-.512-2.053-.808-3.06a40.518,40.518,0,0,0-1.82-5.073,15.848,15.848,0,0,0,4.095-2.428,4.726,4.726,0,0,0,1.439-3.742,2.275,2.275,0,0,0-2.844-1.86c-1.848.569-2.935,3.856-2.974,5.579,0,.119.142,1.706.21,2.275a.236.236,0,0,1,0-.057,29.669,29.669,0,0,0-2.65-4.584,41.4,41.4,0,0,0-2.929-3.719c-.961-1.1-1.905-2.059-2.747-2.895-.461-.449-.893-.853-1.3-1.223h.04c.034,0-.9-2.15-.972-2.275-.864-1.49-3.412-3.861-5.295-3.452a2.275,2.275,0,0,0-1.6,3,4.78,4.78,0,0,0,3.071,2.588,15.693,15.693,0,0,0,4.646.165c.409.392.847.819,1.319,1.3.825.853,1.746,1.82,2.679,2.946.25.3.506.626.756.944-.535-.444-1.285-1.046-1.365-1.092-1.45-.927-4.806-1.86-6.29-.626a2.275,2.275,0,0,0-.034,3.412,4.76,4.76,0,0,0,3.913.881,16.071,16.071,0,0,0,4.22-2.007,26.448,26.448,0,0,1,1.626,2.275,29.522,29.522,0,0,1,2.519,4.578c.04.091.068.193.108.29-.227-.267-1.581-1.638-1.706-1.706-1.342-1.075-4.55-2.371-6.182-1.308a2.275,2.275,0,0,0-.409,3.372,4.757,4.757,0,0,0,3.793,1.3,15.933,15.933,0,0,0,4.51-1.581,40.376,40.376,0,0,1,1.649,4.948c.33,1.245.62,2.519.893,3.8-.3-.336-1.564-1.609-1.666-1.706-1.342-1.081-4.55-2.371-6.182-1.314a2.275,2.275,0,0,0-.409,3.372,4.761,4.761,0,0,0,3.793,1.308,15.738,15.738,0,0,0,4.487-1.57c.125.569.25,1.137.37,1.746.4,1.905.785,3.822,1.223,5.687.154.648.324,1.28.495,1.922-.472-.495-1.348-1.376-1.433-1.444-1.342-1.081-4.55-2.371-6.182-1.314a2.275,2.275,0,0,0-.41,3.372,4.762,4.762,0,0,0,3.793,1.308,15,15,0,0,0,4.345-1.5c.29,1.058.6,2.1.961,3.116.165.432.3.882.483,1.291l.273.648-.37-.04s-.028.6.028,1.587c-1.416-1.012-3.458-1.882-4.788-1.268a2.275,2.275,0,0,0-.916,3.27,2.844,2.844,0,0,0,.3.409,8.838,8.838,0,0,0,1.831,4.078c.074.085,1.035.972,1.535,1.416-.483-.262-.967-.523-1.467-.808-.722-.4-1.473-.847-2.207-1.274l-1.137-.717c-.387-.239-.728-.506-1.1-.762-.535-.387-1.069-.813-1.6-1.234a14.769,14.769,0,0,0,1.934-4.055,4.853,4.853,0,0,0-.864-3.924,2.275,2.275,0,0,0-3.412,0c-1.24,1.479-.324,4.834.6,6.3.028.046.256.336.523.671-.506-.427-1.012-.853-1.513-1.3-1.416-1.28-2.844-2.627-4.231-3.981l-.887-.836a14.345,14.345,0,0,0,2-4.163,4.709,4.709,0,0,0-.864-3.918,2.275,2.275,0,0,0-3.412,0c-1.24,1.479-.324,4.834.569,6.29.034.051.307.4.614.779-.779-.722-1.564-1.427-2.366-2.1a39.281,39.281,0,0,0-4.316-3.23,15.664,15.664,0,0,0,2.076-4.282,4.769,4.769,0,0,0-.864-3.918,2.275,2.275,0,0,0-3.412,0c-1.24,1.479-.324,4.834.6,6.29.063.1,1.052,1.336,1.416,1.769l-.051-.04a29.829,29.829,0,0,0-4.737-2.354,40.234,40.234,0,0,0-4.493-1.49c-1.41-.392-2.724-.665-3.89-.9-.631-.119-1.211-.216-1.752-.3l.028-.028c.028,0-1.939-1.3-2.07-1.365-1.541-.768-4.976-1.336-6.318.04a2.275,2.275,0,0,0,.318,3.384,4.765,4.765,0,0,0,3.981.466,16.382,16.382,0,0,0,3.981-2.428c.569.1,1.137.216,1.82.358,1.137.256,2.462.569,3.856.978.375.114.768.25,1.137.375-.694-.08-1.649-.165-1.74-.165-1.706.034-5.033,1.1-5.59,2.952a2.275,2.275,0,0,0,1.843,2.844,4.794,4.794,0,0,0,3.753-1.427,15.989,15.989,0,0,0,2.406-3.981c.853.284,1.706.6,2.6.984a29.668,29.668,0,0,1,4.629,2.428l.245.182c-.336-.1-2.218-.495-2.354-.506-1.706-.159-5.118.569-5.88,2.32a2.275,2.275,0,0,0,1.518,3.037,4.743,4.743,0,0,0,3.884-1.007,15.607,15.607,0,0,0,2.889-3.8,39.633,39.633,0,0,1,4.106,3.219c.961.853,1.905,1.757,2.844,2.673-.444-.114-2.2-.478-2.326-.489-1.706-.159-5.118.54-5.88,2.315a2.275,2.275,0,0,0,1.518,3.037,4.772,4.772,0,0,0,3.89-1,15.746,15.746,0,0,0,2.872-3.788l1.274,1.257c1.382,1.371,2.758,2.753,4.157,4.078.489.455.984.893,1.479,1.325-.665-.148-1.882-.4-1.99-.409-1.706-.159-5.118.54-5.88,2.315a2.275,2.275,0,0,0,1.518,3.043,4.783,4.783,0,0,0,3.884-1.007,15.076,15.076,0,0,0,2.792-3.645c.83.722,1.666,1.416,2.525,2.064.375.273.739.569,1.137.813l1.109.739c.773.478,1.49.927,2.224,1.354l1.081.626c-.654-.256-1.706-.643-1.791-.665-1.672-.421-5.147-.239-6.165,1.4a2.275,2.275,0,0,0,1.041,3.23,4.724,4.724,0,0,0,3.981-.4,15.817,15.817,0,0,0,3.412-3.287c.887.506,1.752.99,2.571,1.427,2.184,1.166,4.095,2.1,5.573,2.8,4.811,4.157,11.579,4.612,11.579,4.612s.358-8.1-4.413-13.444A16.748,16.748,0,0,0,332.357,345.7Zm-8.587,7.9a16.793,16.793,0,0,0,1.382-4.362c.267-.045.535-.1.8-.165a18.767,18.767,0,0,0,2.986,7.137q-1.314-.626-2.844-1.388C325.356,354.45,324.572,354.035,323.77,353.6Z" transform="translate(-276.248 -301.548)"/><path class="f" d="M423.652,376.45s-8.115.25-13.08,5.408-4.9,13.273-4.9,13.273,8.11-.25,13.08-5.408S423.652,376.45,423.652,376.45Z" transform="translate(-332.067 -333.853)"/></g><path class="f" d="M393.53,360.254l7.968-7.166-.341-.375-7.632,6.859-.04-9.389.04.028,6.739-9.856-.421-.284-6.364,9.3-.1-22.589-.506.006.063,15.332-5.073-4.39-.336.387,5.414,4.68.046,10.965-7.689-6.807-.341.387,8.03,7.1.045,9.981-5.778-4.533-.318.4,6.1,4.783.023,6.426.512-.006-.046-11.243Z" transform="translate(-323.135 -312.43)"/><path class="f" d="M376.467,384.147l-.506-.057-.643,5.676-3.424-3.827h.011l-.87-6.864-.506.063.773,6.142-8.5-9.509-.381.341,5.767,6.449-3.651.045.006.512,4.1-.051,4.049,4.527-5.715.006v.512l6.17-.011,3.68,4.117-4.032.239.034.512,4.43-.267,2.451,2.735.381-.341-4.316-4.823Z" transform="translate(-313.414 -333.56)"/><path class="f" d="M414.234,386.331l6.779-1.376-.1-.5-6.062,1.228,8.843-9.19-.37-.353-6,6.239L417,378.733l-.506.046.353,4.083-4.208,4.373-.432-5.7-.512.04.472,6.153-3.827,3.975-.54-4-.512.068.6,4.4-2.548,2.65.37.353,4.487-4.663,6.159.239.023-.512-5.7-.216,3.554-3.7Z" transform="translate(-331.925 -333.719)"/></g><g transform="translate(102.545 100.417)"><path class="a" d="M179.665,393.225s-3.736,4.362-4.2,5.914.933,2.65,3.583,2.5,4.516-4.049,5.295-4.987,2.65-2.025,2.957-4.2S180.6,391.353,179.665,393.225Z" transform="translate(-158.496 -237.435)"/><path class="g" d="M187.3,392.929a.79.79,0,0,0-.119-.569c-.688,1.894-2.1,3.7-2.844,3.981s-2.184,2.963-4.362,4.362c-1.49.955-3.48.176-4.6-.421.074,1.189,1.416,1.956,3.668,1.826,2.644-.159,4.515-4.049,5.295-4.988S186.989,395.107,187.3,392.929Z" transform="translate(-158.495 -237.918)"/><path class="a" d="M256.144,393.225s3.742,4.362,4.208,5.914-.938,2.65-3.583,2.5-4.55-4.049-5.3-4.987-2.644-2.025-2.957-4.2S255.212,391.353,256.144,393.225Z" transform="translate(-190.036 -237.435)"/><path class="g" d="M248.511,392.929a.762.762,0,0,1,.125-.569c.682,1.894,2.1,3.7,2.844,3.981s2.184,2.963,4.362,4.362c1.49.955,3.48.176,4.6-.421-.068,1.189-1.416,1.956-3.662,1.826-2.65-.159-4.55-4.049-5.3-4.988S248.824,395.107,248.511,392.929Z" transform="translate(-190.035 -237.918)"/><path class="g" d="M197.439,255.94s-1.9,12.728-2.059,13.194-5.761,28.816-6.853,34.577-2.644,11.528-2.8,14.957-1.245,12.147-1.245,12.147a8.286,8.286,0,0,0-1.092,2.337,9.1,9.1,0,0,1-.466,1.706,23.258,23.258,0,0,0,3.27.62c1.558.159,3.276-.62,3.9-.62s1.871-4.675,2.337-6.7,2.8-11.681,3.27-13.4,6.386-24.921,6.386-24.921l5.346-14.07,2.337-.933,3.532,26.53,5.767,30.244,1.245,4.362a10.657,10.657,0,0,0,3.412.472,15.424,15.424,0,0,0,4.055-1.706s.307-2.025-.159-2.644-1.558-2.337-1.558-2.337-.933-19.785-1.706-24.3-1.706-10.129-1.706-10.129-1.245-19.779-1.245-24.608-2.207-14.61-2.207-14.61S207.909,258.818,197.439,255.94Z" transform="translate(-161.751 -179.08)"/><path class="a" d="M223.73,260l.159,3.117s3.412.62,5.295-.466V259.69Z" transform="translate(-179.352 -180.697)"/><line class="h" x1="0.193" y2="9.861" transform="translate(46.544 84.799)"/><path class="h" d="M228.22,274.1l1.16-.967.193-4.254" transform="translate(-181.289 -184.661)"/><path class="h" d="M209.7,262.42s.967,3.094-.387,4.254a8.412,8.412,0,0,1-2.514,1.547" transform="translate(-172.05 -181.875)"/><path class="h" d="M241.82,262.08s.967,3.094,3.674,3.48" transform="translate(-187.154 -181.728)"/><path class="f" d="M190,173.9s-9.1-1.706-10.237-1.99-11.658-9.1-11.658-9.1l-7.268-18.3-3.8,1.024s.688,11.158,1.137,14.286a55.229,55.229,0,0,0,3.128,9.81,7.442,7.442,0,0,0,2.275,2.417c.569.142,7.251,5.118,8.815,5.971s7.82,4.55,7.82,4.55,3.128,7.962,3.554,9.526,2.417,11.658,2.559,12.8-.569,1.99,0,2.986,4.692,3.839,10.379,3.839,10.805-1.99,11.374-3.7-.284-6.967-.284-7.393.569-6.682.569-6.682,2.986,6.114,4.265,8.1,3.27,4.692,4.692,4.692,19.478-11.09,19.478-11.09l-.853-3.554a34.532,34.532,0,0,1-8.246,2.559c-3.981.569-9.384,1.99-9.384,1.99s-5.26-11.516-5.829-13.649-1.422-5.971-2.133-6.682-10.379-2.133-11.658-2.133S190,173.9,190,173.9Z" transform="translate(-150.589 -131.025)"/><g class="i" transform="translate(6.451 13.495)"><path class="b" d="M209.617,222.669c.569-1.706-.284-6.967-.284-7.393,0-.29.262-3.264.432-5.147l-.08.569a59.137,59.137,0,0,0-1.285,8.155c0,2.36.21,5.152-3.651,6.011s-7.08-3.008-10.515-6.011-5.363-6.438-5.789-8.582,4.5,3,4.5,3-4.72-6.648-6.222-10.3-4.078-12.017-4.078-12.017l.216,6.438-3-4.288s-.859-2.15-1.706-4.078-1.934,1.928-1.934,1.928-5.147-9.224-6.648-10.515.853,7.513.853,7.513a84.164,84.164,0,0,1-6.648-5.8,25.2,25.2,0,0,1-3.06-3.691c.853,2.724,1.945,5.454,2.133,5.824a7.442,7.442,0,0,0,2.275,2.417c.569.142,7.251,5.118,8.815,5.971s7.82,4.55,7.82,4.55,3.128,7.962,3.554,9.526,2.417,11.658,2.559,12.8-.569,1.99,0,2.986,4.692,3.839,10.379,3.839S209.048,224.376,209.617,222.669Z" transform="translate(-158.627 -159.163)"/><path class="b" d="M256.9,235.958c-1.706-.427-7.08-8.366-7.08-9.224s.643-4.936.643-4.936l-1.934,2.144.432-3.861-.859.859-.8,5.75c.421.853,3.031,6.153,4.208,7.962,1.28,1.99,3.27,4.692,4.692,4.692.893,0,8.388-4.4,13.814-7.655C264.907,233.649,257.963,236.2,256.9,235.958Z" transform="translate(-195.969 -177.109)"/><g class="e" transform="translate(2.093 19.307)"><path class="f" d="M209.617,222.669c.569-1.706-.284-6.967-.284-7.393,0-.29.262-3.264.432-5.147l-.08.569a59.137,59.137,0,0,0-1.285,8.155c0,2.36.21,5.152-3.651,6.011s-7.08-3.008-10.515-6.011-5.363-6.438-5.789-8.582,4.5,3,4.5,3-4.72-6.648-6.222-10.3-4.078-12.017-4.078-12.017l.216,6.438-3-4.288s-.859-2.15-1.706-4.078-1.934,1.928-1.934,1.928-5.147-9.224-6.648-10.515.853,7.513.853,7.513a84.164,84.164,0,0,1-6.648-5.8,25.2,25.2,0,0,1-3.06-3.691c.853,2.724,1.945,5.454,2.133,5.824a7.442,7.442,0,0,0,2.275,2.417c.569.142,7.251,5.118,8.815,5.971s7.82,4.55,7.82,4.55,3.128,7.962,3.554,9.526,2.417,11.658,2.559,12.8-.569,1.99,0,2.986,4.692,3.839,10.379,3.839S209.048,224.376,209.617,222.669Z" transform="translate(-160.72 -178.47)"/><path class="f" d="M256.9,235.958c-1.706-.427-7.08-8.366-7.08-9.224s.643-4.936.643-4.936l-1.934,2.144.432-3.861-.859.859-.8,5.75c.421.853,3.031,6.153,4.208,7.962,1.28,1.99,3.27,4.692,4.692,4.692.893,0,8.388-4.4,13.814-7.655C264.907,233.649,257.963,236.2,256.9,235.958Z" transform="translate(-198.062 -196.416)"/></g></g><path class="j" d="M190,173.9s-9.1-1.706-10.237-1.99-11.658-9.1-11.658-9.1l-7.268-18.3-3.8,1.024s.688,11.158,1.137,14.286a55.229,55.229,0,0,0,3.128,9.81,7.442,7.442,0,0,0,2.275,2.417c.569.142,7.251,5.118,8.815,5.971s7.82,4.55,7.82,4.55,3.128,7.962,3.554,9.526,2.417,11.658,2.559,12.8-.569,1.99,0,2.986,4.692,3.839,10.379,3.839,10.805-1.99,11.374-3.7-.284-6.967-.284-7.393.569-6.682.569-6.682,2.986,6.114,4.265,8.1,3.27,4.692,4.692,4.692,19.478-11.09,19.478-11.09l-.853-3.554a34.532,34.532,0,0,1-8.246,2.559c-3.981.569-9.384,1.99-9.384,1.99s-5.26-11.516-5.829-13.649-1.422-5.971-2.133-6.682-10.379-2.133-11.658-2.133S190,173.9,190,173.9Z" transform="translate(-150.589 -131.025)"/><line class="j" x2="1.354" y2="3.441" transform="translate(82.902 62.318)"/><line class="j" y1="1.234" x2="4.459" transform="translate(6.588 15.867)"/><path class="j" d="M212,237.69s7.677,8.815,15.639,10.805" transform="translate(-174.293 -171.209)"/><line class="j" y1="1.661" x2="0.25" transform="translate(59.181 51.695)"/><line class="j" y1="7.968" x2="1.211" transform="translate(57.725 54.959)"/><line class="j" y1="6.256" x2="2.844" transform="translate(57.867 55.391)"/><line class="j" x1="0.256" y1="1.211" transform="translate(27.3 40.747)"/><line class="j" x1="1.672" y1="7.939" transform="translate(27.902 43.614)"/><line class="j" x1="0.785" y1="1.678" transform="translate(23.319 37.904)"/><line class="j" x1="4.544" y1="9.742" transform="translate(24.746 40.958)"/><path class="j" d="M176,177.94s1.422,5.687,3.27,8.531" transform="translate(-158.766 -145.439)"/><path class="j" d="M266.69,240.029l-1.99-3.839,3.839,3.128" transform="translate(-197.023 -170.562)"/><path class="g" d="M220.2,203.6l2.7,4.265-.427,24.028,2.843,4.265,2.417-6.114-3.981-22.606,1.706-3.412-2.275-3.839Z" transform="translate(-177.83 -155.035)"/><path class="a" d="M216.448,191.695s-1.8-.1-2.366.66a5.716,5.716,0,0,0-.762,2.178s.853,3.025,1.046,4.163.847,3.981.847,3.981l4.925-3.5,5.585,3.219s-1.041-6.153-1.422-8.138-1.325-2.462-2.934-2.65a34.646,34.646,0,0,0-4.919.091Z" transform="translate(-174.862 -151.311)"/><path class="f" d="M215.316,183.851s1.041,5.016,1.422,5.96,3.594,5.585,4.26,5.585,2.747-5.118,2.844-5.96.1-2.844.1-2.844-3.219.853-4.732-.188-2.844-3.594-3.412-3.594S215.316,183.851,215.316,183.851Z" transform="translate(-175.721 -147.539)"/><g class="k" transform="translate(39.59 35.271)"><path class="b" d="M219.2,186.4c-1.518-1.041-2.844-3.594-3.412-3.594s-.472,1.041-.472,1.041.569,2.662,1,4.476a7.393,7.393,0,0,0,3.827,1.922,5.96,5.96,0,0,0,3.708-.95c.08-.91.08-2.707.08-2.707S220.712,187.468,219.2,186.4Z" transform="translate(-215.31 -182.81)"/><path class="d" d="M219.2,186.4c-1.518-1.041-2.844-3.594-3.412-3.594s-.472,1.041-.472,1.041.569,2.662,1,4.476a7.393,7.393,0,0,0,3.827,1.922,5.96,5.96,0,0,0,3.708-.95c.08-.91.08-2.707.08-2.707S220.712,187.468,219.2,186.4Z" transform="translate(-215.31 -182.81)"/></g><path class="j" d="M215.316,183.851s1.041,5.016,1.422,5.96,3.594,5.585,4.26,5.585,2.747-5.118,2.844-5.96.1-2.844.1-2.844-3.219.853-4.732-.188-2.844-3.594-3.412-3.594S215.316,183.851,215.316,183.851Z" transform="translate(-175.721 -147.539)"/><path class="f" d="M223.814,161.5s.284,4.641.569,6.722.375,4.55-.665,6.153a5.471,5.471,0,0,1-4.26,2.935,6.855,6.855,0,0,1-5.772-2.366c-.853-1.325-1.609-2.65-1.609-2.65a3.111,3.111,0,0,1-3.122-3.981c.284-.853,1.706-.944,1.706-.944s-.66-2.935-1.041-4.925a4.186,4.186,0,0,1,3.031-4.823c2.366-.762,5.869-.665,7.666.284S223.342,159.894,223.814,161.5Z" transform="translate(-172.953 -136.458)"/><g class="l" transform="translate(35.94 20.659)"><path class="b" d="M217.1,161.78c1.325.95,3.662,3.736,7.746,3.037-.136-1.706-.233-3.316-.233-3.316-.472-1.609-1.706-2.65-3.5-3.6s-5.3-1.041-7.666-.279a4.373,4.373,0,0,0-2.7,2.235l1.558,1.263S215.6,160.711,217.1,161.78Z" transform="translate(-209.694 -157.115)"/><path class="d" d="M217.1,161.78c1.325.95,3.662,3.736,7.746,3.037-.136-1.706-.233-3.316-.233-3.316-.472-1.609-1.706-2.65-3.5-3.6s-5.3-1.041-7.666-.279a4.373,4.373,0,0,0-2.7,2.235l1.558,1.263S215.6,160.711,217.1,161.78Z" transform="translate(-209.694 -157.115)"/></g><path class="j" d="M223.814,161.5s.284,4.641.569,6.722.375,4.55-.665,6.153a5.471,5.471,0,0,1-4.26,2.935,6.855,6.855,0,0,1-5.772-2.366c-.853-1.325-1.609-2.65-1.609-2.65a3.111,3.111,0,0,1-3.122-3.981c.284-.853,1.706-.944,1.706-.944s-.66-2.935-1.041-4.925a4.186,4.186,0,0,1,3.031-4.823c2.366-.762,5.869-.665,7.666.284S223.342,159.894,223.814,161.5Z" transform="translate(-172.953 -136.458)"/><path class="j" d="M230.286,168.645a2.423,2.423,0,0,0-1.894.569c-.853.756.381,4.351.381,4.919s-1.8,1.041-1.8,1.041" transform="translate(-180.75 -141.421)"/><path class="j" d="M227.457,183.924s-2.536.569-3.537-.944" transform="translate(-179.434 -147.613)"/><path class="j" d="M221.7,170.366a2.1,2.1,0,0,0-3.031.66" transform="translate(-177.17 -142.005)"/><path class="m" d="M222.764,174.846c.057.409-.131.779-.415.813s-.569-.267-.614-.682.131-.779.415-.819S222.713,174.43,222.764,174.846Z" transform="translate(-178.489 -143.806)"/><path class="m" d="M231.92,173.846c.051.415-.137.779-.421.813s-.569-.267-.614-.682.136-.779.421-.819S231.863,173.43,231.92,173.846Z" transform="translate(-182.435 -143.375)"/><line class="n" y1="0.097" x2="1.422" transform="translate(42.245 32.143)"/><line class="n" x1="1.513" y2="0.478" transform="translate(49.064 31.102)"/><path class="g" d="M207.7,162.525l1.325,4.072a.785.785,0,0,0,.853-.472c.193-.569-1.041-2.934-.853-3.219s1.518-.756,1.325-1.8-1.228-2.747-1.228-3.7,1.894-1.706,2.935-1.706,2.553,1.137,3.788,2.178,1.041-.762,1.041-.762,3.691,1.894,5.772,1.331-.091-3.981-.091-3.981,2.457-1.8,1.416-3.691-6.529-2.844-10.976-1.894-6.068,2.565-6.443,3.316a5.255,5.255,0,0,0-.478,1.513,5.915,5.915,0,0,0-2.65,3.316c-.569,2.178,1.706,3.981,2.65,4.26A3.526,3.526,0,0,1,207.7,162.525Z" transform="translate(-170.559 -132.748)"/><path class="h" d="M223.542,155.245c-2.1-.847-4.988-1.666-7-.9-3.509,1.342-2.673,3.179-2.673,3.179s4.817-2.366,7.507,1.99" transform="translate(-175.064 -135.13)"/><path class="h" d="M234.78,157.929s-.461-.256-1.2-.609" transform="translate(-183.601 -136.545)"/><path class="a" d="M295.7,222.791a15.75,15.75,0,0,1,1.28-3.554c.569-.711,1.848-1.137,2.275-1.99s1-1.99,1.422-1.422a1.541,1.541,0,0,1,.262,1.678,5.022,5.022,0,0,1-1.018,1.547,2.406,2.406,0,0,0-.569.967.687.687,0,0,1-.1.341l8.468-3.293a.859.859,0,0,1,.483.631c.1.483-.529.773-.819.87s-3.822,1.706-3.822,1.706l.387.626,5.46-.6a.62.62,0,0,1,.171,1.223l-5.391.933-.142.626,5.926.569a.569.569,0,0,1,.478.609.529.529,0,0,1-.535.455l-5.92-.085c.984.569,1.371.762,2.371,1.3,1.706.921,2.178,1.462.916,1.4a5.413,5.413,0,0,1-1.257-.41l-2.622-.825s-1.137.1-2.127.239-2.275.438-2.809.438a11.431,11.431,0,0,1-1.917-.4Z" transform="translate(-210.393 -161.712)"/><path class="j" d="M300.869,223.91v1.985c0,.569-.483,1.063-1.4,1.354" transform="translate(-212.019 -165.266)"/><path class="a" d="M155.622,134.274a15.8,15.8,0,0,0,2.445-2.878c.336-.847.068-2.167.569-2.963s1.234-1.854.523-1.939a1.53,1.53,0,0,0-1.581.6,5.073,5.073,0,0,0-.836,1.655,2.338,2.338,0,0,1-.569.984.688.688,0,0,0-.245.256l-1.365-8.985a.847.847,0,0,0-.734-.1c-.472.154-.409.847-.347,1.137s.438,4.163.438,4.163h-.739l-2.2-5.061a.614.614,0,0,0-1.137.461l1.877,5.118-.472.444-3.452-4.857a.535.535,0,0,0-.893.569L149.935,128c-.984-.569-1.342-.808-2.309-1.4-1.644-1.012-2.354-1.137-1.672-.1a5.409,5.409,0,0,0,.978.887l2.036,1.837s.495,1.058.853,1.968.751,2.189,1.018,2.65a11.654,11.654,0,0,0,1.3,1.467Z" transform="translate(-145.697 -120.79)"/><path class="j" d="M162.04,137l-1.706.984c-.506.29-.682.955-.478,1.894" transform="translate(-151.768 -127.781)"/></g><g transform="translate(61.953 75.621)"><rect class="o" width="100.37" height="63.558" transform="translate(110.43 56.415)"/><path class="p" d="M298.458,159.178l-1.939-5.568H265.07v81.137H369.341V159.178Zm68.938,70.94H267.021V166.565H367.4Z" transform="translate(-156.59 -110.15)"/><rect class="q" width="49.864" height="3.054" transform="translate(141.857 51.132)"/><path class="j" d="M271.649,166.24l-1.439,1.388,1.5,1.6" transform="translate(-158.807 -115.597)"/><line class="j" x2="3.196" transform="translate(111.403 52.03)"/><path class="j" d="M287.041,166.24l1.439,1.388-1.49,1.6" transform="translate(-166.044 -115.597)"/><line class="j" x1="3.196" transform="translate(119.24 52.03)"/><path class="j" d="M299.486,167.487a1.581,1.581,0,0,0-1.467-1.137,1.439,1.439,0,0,0,0,2.878,1.411,1.411,0,0,0,.91-.324" transform="translate(-170.18 -115.645)"/><path class="j" d="M299.98,167.621h1.12V166.29" transform="translate(-171.647 -115.619)"/><path class="j" d="M313.123,166.985,311.8,165.91l-1.268,1.075v2.337h2.593Z" transform="translate(-176.197 -115.455)"/><rect class="m" width="1.012" height="1.621" transform="translate(135.095 52.161)"/><line class="j" x1="0.756" y2="0.7" transform="translate(133.577 51.53)"/><line class="j" x2="0.711" y2="0.637" transform="translate(136.926 51.53)"/><line class="j" x2="2.019" y2="2.081" transform="translate(136.448 46.343)"/><line class="j" x1="2.087" y2="2.019" transform="translate(136.414 46.372)"/><line class="j" x2="3.998" transform="translate(205.512 51.689)"/><line class="j" x2="3.998" transform="translate(205.512 52.593)"/><line class="j" x2="3.998" transform="translate(205.512 53.492)"/><line class="j" x2="3.998" transform="translate(205.512 54.396)"/><rect class="o" width="66.896" height="42.357" transform="translate(1.302 8.633)"/><path class="p" d="M96.579,80.9l-1.3-3.714H74.32v54.078h69.5V80.9Zm45.94,47.282h-66.9V85.823h66.9Z" transform="translate(-74.32 -77.19)"/><rect class="q" width="33.235" height="2.036" transform="translate(22.248 5.113)"/><path class="j" d="M78.711,85.61l-.961.921,1,1.069" transform="translate(-75.799 -80.822)"/><line class="j" x2="2.133" transform="translate(1.951 5.71)"/><path class="j" d="M88.964,85.61l.961.921-1,1.069" transform="translate(-80.621 -80.822)"/><line class="j" x1="2.133" transform="translate(7.171 5.71)"/><path class="j" d="M97.256,86.426a1.046,1.046,0,0,0-.984-.756.961.961,0,1,0,.609,1.706" transform="translate(-83.374 -80.847)"/><path class="j" d="M97.59,86.531h.751V85.65" transform="translate(-84.356 -80.839)"/><path class="j" d="M106.353,86.107l-.881-.717-.842.717v1.558h1.723Z" transform="translate(-87.393 -80.727)"/><rect class="m" width="0.671" height="1.081" transform="translate(17.738 5.801)"/><line class="j" x1="0.506" y2="0.466" transform="translate(16.731 5.38)"/><line class="j" x2="0.478" y2="0.427" transform="translate(18.961 5.38)"/><line class="j" x2="1.348" y2="1.388" transform="translate(18.642 1.922)"/><line class="j" x1="1.393" y2="1.342" transform="translate(18.619 1.945)"/><line class="j" x2="2.667" transform="translate(64.673 5.488)"/><line class="j" x2="2.667" transform="translate(64.673 6.085)"/><line class="j" x2="2.667" transform="translate(64.673 6.688)"/><line class="j" x2="2.667" transform="translate(64.673 7.291)"/><rect class="r" width="64.57" height="39.132" transform="translate(0 92.414)"/><rect class="p" width="64.57" height="5.784" transform="translate(0 125.763)"/><circle class="q" cx="10.214" cy="10.214" r="10.214" transform="translate(21.195 100.45)"/><path class="r" d="M134.076,266.868,122.85,260.39v12.961Z" transform="translate(-95.251 -156.204)"/><rect class="m" width="58.155" height="1.046" transform="translate(3.213 127.594)"/><path class="p" d="M82.105,301.733a.933.933,0,1,0-.933.933.933.933,0,0,0,.933-.933Z" transform="translate(-76.873 -173.633)"/></g></g></svg>