<svg xmlns="http://www.w3.org/2000/svg" xmlns:xlink="http://www.w3.org/1999/xlink" width="238.124" height="187.894" viewBox="0 0 238.124 187.894"><defs><style>.a{fill:url(#a);}</style><linearGradient id="a" x1="0.5" x2="0.5" y2="1" gradientUnits="objectBoundingBox"><stop offset="0" stop-color="#5bab2f"/><stop offset="1" stop-color="#a8e063"/></linearGradient></defs><g transform="translate(0 -54)"><g transform="translate(0 54)"><path class="a" d="M224.171,158.179H206.65V133.065a13.974,13.974,0,0,0-11.314-13.7V70.751A16.77,16.77,0,0,0,178.585,54H118.6a4.651,4.651,0,1,0,0,9.3h59.988a7.458,7.458,0,0,1,7.449,7.449v48.362H125.728a13.968,13.968,0,0,0-13.953,13.953v29.406H9.3V70.751A7.458,7.458,0,0,1,16.751,63.3H76.739a4.651,4.651,0,1,0,0-9.3H16.751A16.77,16.77,0,0,0,0,70.751V177.38a16.77,16.77,0,0,0,16.751,16.751H74.11V210.9a26.314,26.314,0,0,1-12.382,22.4,4.651,4.651,0,0,0,2.474,8.589h159.97a13.968,13.968,0,0,0,13.953-13.953v-55.81a13.968,13.968,0,0,0-13.953-13.953Zm-98.443-29.766H192.7a4.656,4.656,0,0,1,4.651,4.651v25.115h-6.663a13.968,13.968,0,0,0-13.953,13.953v55.81a13.886,13.886,0,0,0,.8,4.651h-51.8a4.656,4.656,0,0,1-4.651-4.651V133.065A4.656,4.656,0,0,1,125.728,128.414ZM9.3,177.38v-5.608H111.776v13.056H16.751A7.457,7.457,0,0,1,9.3,177.38ZM83.412,210.9V194.131h28.364v33.811a13.886,13.886,0,0,0,.8,4.651H76.112a35.59,35.59,0,0,0,7.3-21.69Zm145.411,17.039a4.656,4.656,0,0,1-4.651,4.651H190.685a4.656,4.656,0,0,1-4.651-4.651v-55.81a4.656,4.656,0,0,1,4.651-4.651h33.486a4.656,4.656,0,0,1,4.651,4.651Z" transform="translate(0 -54)"/><path class="a" d="M52.651,114.614A4.651,4.651,0,0,0,48,119.265v52.09a4.651,4.651,0,0,0,4.651,4.651H93.578a4.651,4.651,0,0,0,4.651-4.651v-52.09a4.651,4.651,0,0,0-4.651-4.651ZM88.928,166.7H57.3V123.916H88.928Z" transform="translate(-25.676 -86.423)"/><path class="a" d="M188.651,123.916h46.974a4.651,4.651,0,1,0,0-9.3H188.651a4.651,4.651,0,1,0,0,9.3Z" transform="translate(-98.424 -86.423)"/><path class="a" d="M188.651,219.912a4.645,4.645,0,1,0-3.288-1.358A4.68,4.68,0,0,0,188.651,219.912Z" transform="translate(-98.424 -137.773)"/><path class="a" d="M188.651,171.916h17.441a4.651,4.651,0,1,0,0-9.3H188.651a4.651,4.651,0,1,0,0,9.3Z" transform="translate(-98.424 -112.099)"/><path class="a" d="M440.651,398a4.653,4.653,0,1,0,3.288,1.363A4.684,4.684,0,0,0,440.651,398Z" transform="translate(-233.222 -238.01)"/><path class="a" d="M336.981,407.3a4.653,4.653,0,1,0-3.288-1.363A4.683,4.683,0,0,0,336.981,407.3Z" transform="translate(-177.768 -238.01)"/><path class="a" d="M204.651,63.3a4.653,4.653,0,1,0-3.288-1.363A4.684,4.684,0,0,0,204.651,63.3Z" transform="translate(-106.983 -54)"/></g></g></svg>