<svg xmlns="http://www.w3.org/2000/svg" xmlns:xlink="http://www.w3.org/1999/xlink" width="172.74" height="204.708" viewBox="0 0 172.74 204.708"><defs><style>.a{fill:url(#a);}.b{fill:#fdfefd;}</style><linearGradient id="a" x1="0.696" y1="0.385" x2="1.07" y2="0.828" gradientUnits="objectBoundingBox"><stop offset="0" stop-color="#56ab2f"/><stop offset="1" stop-color="#a8e063"/></linearGradient></defs><g transform="translate(-1324.813 -1797)"><path class="a" d="M384.249,189.719c-.633,1.114-1.342,2.3-2.123,3.557A103.769,103.769,0,0,1,335.97,233.27a101.937,101.937,0,0,1-9.684,3.688q-2.924.949-5.92,1.726L333.358,59.067,349.512,73.2l17.364.405Z" transform="translate(1113.304 1761.787)"/><path class="a" d="M165.379,26.217C160.974,14.74,153.986,4.5,142.525,6.33A14.8,14.8,0,0,0,131.279.03h-.017c-.329-.021-.662-.03-1-.03a23.49,23.49,0,0,0-3.038.2C109.4,2.532,94.816,25.1,89.34,50.9l-24.9,8.085L50.813,165.22a103.936,103.936,0,0,0,27.2,25.293l76.3,14.2a101.787,101.787,0,0,0,11.279-2.962l7.072-177.892ZM97.235,48.342a188.621,188.621,0,0,1,8.389-21.259c4.849-10.094,20.6-24.635,29.483-19.183a8.858,8.858,0,0,1,.768.532c-10.2,4.709-18.217,15.718-22.3,34.606Zm44.818-14.55-20.039,6.5s3.823-20.8,17.985-25.9C143.129,22.436,142.052,33.792,142.052,33.792Zm7.389-2.4a59.028,59.028,0,0,0-3.148-17.921c7.262.76,10.988,8.536,12.824,14.782Z" transform="translate(1274 1797)"/><path class="b" d="M116.425,251.127c3.63,2.623,7.262,5.288,11.467,7.009a25.4,25.4,0,0,0,5.592,1.628c3.479.561,6.634.1,8.848-2.946,2.32-3.189,1.909-6.59.365-9.942a17.639,17.639,0,0,0-4.719-5.72q-3.645-3.188-7.353-6.3c-8.009-6.755-10.488-15.519-9.078-25.564,2.459-17.512,15.481-30.024,33.094-32.17,7.571-.922,15-.848,22.315,1.622,1.642.554,1.806,1.223,1.281,2.734q-3.437,9.9-6.657,19.865c-.433,1.342-.79,1.563-2.163,1-5.6-2.3-11.4-3.666-17.509-2.642-4.25.712-7.664,2.575-8.86,7.094-.842,3.181.273,5.825,2.535,8.048,3.129,3.077,6.776,5.514,10.233,8.185,4.177,3.229,8.042,6.762,10.743,11.367,4.813,8.2,4.865,16.962,2.367,25.762-4.225,14.885-17.009,22.918-32.387,20.976a43.771,43.771,0,0,1-23.67-10.246c-1.539-1.319-2.117-2.507-1.359-4.632,1.6-4.485,2.825-9.105,4.2-13.671C115.863,252.082,115.885,251.523,116.425,251.127Z" transform="translate(1240.838 1681.637)"/></g></svg>