<svg xmlns="http://www.w3.org/2000/svg" width="759" height="679.089" viewBox="0 0 759 679.089"><defs><style>.a{fill:#72b5e8;}.b{fill:#a8cff0;}.c{fill:#d1ebff;}.d,.g{fill:#fff;}.e{fill:#eb4680;}.f{fill:#d62d69;}.g,.u{opacity:0.7;}.h{fill:#3f92d1;}.i{fill:#4f9fdb;}.j{fill:#03336e;}.k{fill:#001a46;}.l{fill:#fc0;}.m{fill:#0fbab8;}.n{fill:#2672ab;}.o{fill:#084c94;}.p,.u{fill:#1488cc;}.q{fill:#ffd70f;}.r{fill:#d99f00;}.s{fill:#b08100;}.t{fill:#ffde17;}.v{fill:#f76195;}.w{fill:#92b4d1;opacity:0.2;}</style></defs><g transform="translate(-11517.17 -6796.456)"><g transform="translate(12049.439 6841.124)"><g transform="translate(46.776 241.678)"><path class="a" d="M611.655,277.744C594.57,267.876,580.716,244,580.716,224.4c0-7.261,1.916-12.9,5.19-16.617-9.378.668-15.726,8.531-15.726,21.762,0,19.6,13.855,43.48,30.939,53.347,10.736,6.192,20.158,5.346,25.7-.98C622.369,282.243,617.2,280.929,611.655,277.744Z" transform="translate(-547.794 -170.427)"/><path class="b" d="M654.061,288.087a61.99,61.99,0,0,0-.535-7.507l12.5-1.581a114.647,114.647,0,0,0-5.658-18.933l-14.256-4.3a101.625,101.625,0,0,0-8.865-15.3l3.408-14.367A115.021,115.021,0,0,0,627,211.708l-7.662,9.912a65.723,65.723,0,0,0-6.259-4.232,49.828,49.828,0,0,0-6.259-3.007L599.155,195.6a38.434,38.434,0,0,0-13.654-1.381l3.408,18.31a19.669,19.669,0,0,0-8.865,5.056l-14.256-12.14a37.094,37.094,0,0,0-5.658,12.385l12.5,16.015a47.676,47.676,0,0,0-.535,6.883,61.989,61.989,0,0,0,.535,7.506l-12.5,1.581a114.628,114.628,0,0,0,5.658,18.933l14.256,4.3a101.641,101.641,0,0,0,8.865,15.3L585.5,302.722a115.022,115.022,0,0,0,13.654,14.389l7.662-9.912a65.689,65.689,0,0,0,6.259,4.232,49.806,49.806,0,0,0,6.259,3.007L627,333.215a37.931,37.931,0,0,0,13.654,1.381l-3.408-18.31a19.669,19.669,0,0,0,8.865-5.056l14.256,12.14a37.1,37.1,0,0,0,5.658-12.385l-12.5-16.015A44.7,44.7,0,0,0,654.061,288.087Zm-40.584,11.6c-17.085-9.868-30.939-33.746-30.939-53.347s13.855-27.509,30.939-17.641,30.939,33.746,30.939,53.347C644.416,301.675,630.562,309.56,613.477,299.692Z" transform="translate(-560.13 -187.23)"/><path class="a" d="M597.3,210.467l-7.662-18.777-11.984,6.883,7.662,18.777Z" transform="translate(-538.625 -190.176)"/><path class="c" d="M581.09,207a49.823,49.823,0,0,1,6.259,3.007,58.313,58.313,0,0,1,6.259,4.232l7.662-9.912h0s-1.292-.824-1.96-1.2a49.829,49.829,0,0,0-6.259-3.007Z" transform="translate(-534.403 -179.829)"/><path class="c" d="M597.158,192.524a38.435,38.435,0,0,0-13.654-1.381l-11.984,6.883a37.93,37.93,0,0,1,13.654,1.381Z" transform="translate(-546.15 -191.01)"/><path class="c" d="M615.8,213.3a115.024,115.024,0,0,0-13.654-14.389l-11.984,6.883a115.1,115.1,0,0,1,13.654,14.389Z" transform="translate(-523.27 -181.314)"/><path class="a" d="M598.168,212.253,594.76,226.62l11.984-6.883,3.408-14.367Z" transform="translate(-517.624 -173.385)"/><path class="a" d="M594.76,218.7a100.552,100.552,0,0,1,8.865,15.3l11.984-6.883a101.626,101.626,0,0,0-8.865-15.3Z" transform="translate(-517.624 -165.468)"/><path class="c" d="M598.74,225.573l14.233,4.3,11.984-6.883-14.234-4.3Z" transform="translate(-512.739 -157.035)"/><path class="a" d="M605.13,227.5a111.92,111.92,0,0,1,5.658,18.933l11.984-6.883a114.621,114.621,0,0,0-5.658-18.933Z" transform="translate(-504.895 -154.666)"/><path class="a" d="M585.8,210.076l-1-5.324-10.135-8.642-11.984,6.883,14.256,12.14A19.641,19.641,0,0,1,585.8,210.076Z" transform="translate(-557 -184.751)"/><path class="a" d="M610.8,250.363a37.33,37.33,0,0,1-5.658,12.385l11.984-6.883a37.1,37.1,0,0,0,5.658-12.385Z" transform="translate(-504.883 -126.607)"/><path class="a" d="M614.044,241.286a47.676,47.676,0,0,0,.535-6.883c0-.713-.044-1.448-.089-2.183L602.06,233.8a61.977,61.977,0,0,1,.535,7.506,47.667,47.667,0,0,1-.535,6.883Z" transform="translate(-508.664 -140.428)"/><path class="c" d="M602.06,243.173l12.518,16.015,11.984-6.883L614.044,236.29Z" transform="translate(-508.664 -135.433)"/><path class="a" d="M603.625,246.68a19.672,19.672,0,0,1-8.865,5.056l3.408,18.31,11.984-6.883-2.428-12.986Z" transform="translate(-517.624 -122.679)"/><path class="c" d="M572.19,215.95l-12.05,7.083,12.5-1.582C572.391,219.581,572.257,217.754,572.19,215.95Z" transform="translate(-560.118 -160.399)"/><path class="a" d="M585.312,244.88l-7.662,9.912,12.073-6.861C588.23,246.974,586.76,245.971,585.312,244.88Z" transform="translate(-538.625 -124.889)"/><g transform="translate(0.624 6.838)"><path class="d" d="M573.345,202.858l-.045-.178c-.579.223-1.114.49-1.671.757A12.975,12.975,0,0,1,573.345,202.858Z" transform="translate(-546.638 -183.525)"/><path class="d" d="M570.79,218.51l-10.38,1.314.134.6,10.313-1.314A5.545,5.545,0,0,1,570.79,218.51Z" transform="translate(-560.41 -164.095)"/><path class="d" d="M603.072,217.193l-3.408,14.367a100.552,100.552,0,0,1,8.865,15.3l14.256,4.3a113.418,113.418,0,0,1,5.524,18.332l1.4-.223a114.646,114.646,0,0,0-5.658-18.933l-14.256-4.3a101.636,101.636,0,0,0-8.865-15.3l3.408-14.367a115.024,115.024,0,0,0-13.654-14.389l-.468,1.582A115.292,115.292,0,0,1,603.072,217.193Z" transform="translate(-523.82 -184.384)"/><path class="d" d="M601.817,281.022c-17.084-9.868-30.939-33.746-30.939-53.347,0-8.665,2.717-15.013,7.217-18.555-5.19,3.341-8.375,10-8.375,19.4,0,19.6,13.855,43.48,30.939,53.347,8.62,4.989,16.416,5.413,22.029,2.116-.423.134-.846.2-1.27.312C616.051,286.212,609.257,285.3,601.817,281.022Z" transform="translate(-548.983 -175.62)"/><path class="d" d="M595.79,250.658a19.008,19.008,0,0,0,5.635-3.163l-.534-.445A19.3,19.3,0,0,1,595.79,250.658Z" transform="translate(-516.983 -129.063)"/><path class="d" d="M576.382,211.7c-.512.022,0-.4.535-.824L563.2,199.18c-.379.535-.735,1.136-.089,1.2Z" transform="translate(-557.538 -187.821)"/><path class="d" d="M594.664,249.7l3.274,17.53c-.379-.022.356-.022,1.091-.089l-3.386-18.131C594.976,249.277,594.263,249.522,594.664,249.7Z" transform="translate(-518.508 -126.658)"/><path class="d" d="M603.515,240.053a60.549,60.549,0,0,0-.468-6.883l-1.247.089a61.989,61.989,0,0,1,.535,7.506,47.676,47.676,0,0,1-.535,6.883l12.5,16.015a38.234,38.234,0,0,1-4.566,10.692l.089,1a37.1,37.1,0,0,0,5.658-12.385l-12.5-16.015A45.225,45.225,0,0,0,603.515,240.053Z" transform="translate(-509.606 -146.1)"/><path class="d" d="M584.32,196.129l7.662,18.777a49.824,49.824,0,0,1,6.259,3.007,58.314,58.314,0,0,1,6.259,4.232l.245-1.181a55.194,55.194,0,0,0-5.39-3.586,49.8,49.8,0,0,0-6.259-3.007l-7.662-18.777a38.434,38.434,0,0,0-13.654-1.381l.156.78A44.5,44.5,0,0,1,584.32,196.129Z" transform="translate(-546.454 -194.08)"/><path class="d" d="M583.975,245.25l-6.415,8.286c.267.245.535.512.8.735l6.5-8.4C584.554,245.673,584.265,245.473,583.975,245.25Z" transform="translate(-539.359 -131.273)"/></g></g><g transform="translate(10.135 40.438)"><path class="a" d="M621.166,231.159c-25.7-14.835-46.531-50.763-46.531-80.255,0-10.937,2.9-19.4,7.818-25.014-14.1,1.025-23.633,12.83-23.633,32.743,0,29.491,20.826,65.42,46.531,80.255C621.5,248.2,635.667,246.929,644,237.4,637.248,237.908,629.474,235.948,621.166,231.159Z" transform="translate(-525.096 -69.702)"/><path class="b" d="M684.954,246.668a88.577,88.577,0,0,0-.8-11.271l18.8-2.383a169.366,169.366,0,0,0-8.531-28.467l-21.428-6.482a150.823,150.823,0,0,0-13.342-23.009l5.145-21.628A170.882,170.882,0,0,0,644.281,131.8l-11.538,14.924a93.085,93.085,0,0,0-9.422-6.348,72.213,72.213,0,0,0-9.422-4.522l-11.538-28.244a57.075,57.075,0,0,0-20.515-2.072l5.145,27.553a29.354,29.354,0,0,0-13.342,7.6l-21.428-18.265a56.041,56.041,0,0,0-8.531,18.621l18.8,24.1a72.124,72.124,0,0,0-.8,10.358,88.577,88.577,0,0,0,.8,11.271l-18.8,2.383a169.376,169.376,0,0,0,8.531,28.467l21.428,6.482a150.834,150.834,0,0,0,13.342,23.009l-5.145,21.628a170.875,170.875,0,0,0,20.515,21.629L613.9,275.446a93.078,93.078,0,0,0,9.422,6.348,72.2,72.2,0,0,0,9.422,4.522l11.538,28.244a57.075,57.075,0,0,0,20.515,2.072l-5.145-27.553a29.353,29.353,0,0,0,13.342-7.6l21.428,18.265a56.04,56.04,0,0,0,8.531-18.621l-18.8-24.1A68.827,68.827,0,0,0,684.954,246.668Zm-61.032,17.463c-25.7-14.835-46.531-50.763-46.531-80.255s20.826-41.364,46.531-26.529,46.531,50.763,46.531,80.255S649.6,278.988,623.922,264.131Z" transform="translate(-543.668 -94.945)"/><path class="a" d="M599.588,129.934,588.05,101.69l-18.02,10.358,11.538,28.244Z" transform="translate(-511.337 -99.406)"/><path class="c" d="M575.21,124.74a72.211,72.211,0,0,1,9.422,4.522,93.085,93.085,0,0,1,9.422,6.348l11.538-14.924h0s-1.96-1.225-2.94-1.8a72.213,72.213,0,0,0-9.422-4.522Z" transform="translate(-504.979 -83.854)"/><path class="c" d="M599.355,102.949a57.074,57.074,0,0,0-20.515-2.072l-18.02,10.358a57.075,57.075,0,0,1,20.515,2.072Z" transform="translate(-522.642 -100.664)"/><path class="c" d="M627.395,134.188A170.881,170.881,0,0,0,606.88,112.56l-18.02,10.358a170.89,170.89,0,0,1,20.515,21.628Z" transform="translate(-488.224 -86.063)"/><path class="a" d="M600.905,132.628l-5.145,21.628L613.78,143.9l5.145-21.628Z" transform="translate(-479.755 -74.145)"/><path class="a" d="M595.76,142.338A150.838,150.838,0,0,1,609.1,165.347l18.02-10.358A150.825,150.825,0,0,0,613.78,131.98Z" transform="translate(-479.755 -62.227)"/><path class="c" d="M601.75,152.668l21.428,6.482,18.02-10.358L619.77,142.31Z" transform="translate(-472.403 -49.547)"/><path class="a" d="M611.37,155.578a169.394,169.394,0,0,1,8.531,28.467l18.02-10.358a169.367,169.367,0,0,0-8.531-28.467Z" transform="translate(-460.595 -45.975)"/><path class="a" d="M582.28,129.367l-1.492-8.019L565.53,108.34,547.51,118.7l21.428,18.265A29.762,29.762,0,0,1,582.28,129.367Z" transform="translate(-538.979 -91.243)"/><path class="a" d="M619.9,189.958a55.831,55.831,0,0,1-8.531,18.621l18.02-10.358a56.04,56.04,0,0,0,8.531-18.621Z" transform="translate(-460.595 -3.776)"/><path class="a" d="M624.78,176.3a72.115,72.115,0,0,0,.8-10.358c0-1.091-.067-2.183-.134-3.3l-18.688,2.361a93.166,93.166,0,0,1,.8,11.271,68.827,68.827,0,0,1-.8,10.358Z" transform="translate(-466.253 -24.581)"/><path class="c" d="M606.75,179.138l18.822,24.1,18.02-10.358-18.8-24.1Z" transform="translate(-466.265 -17.057)"/><path class="a" d="M609.1,184.41a29.354,29.354,0,0,1-13.342,7.6l5.145,27.553,18.02-10.358-3.631-19.535Z" transform="translate(-479.755 2.128)"/><path class="c" d="M561.811,138.18,543.68,148.827l18.8-2.383C562.145,143.66,561.945,140.92,561.811,138.18Z" transform="translate(-543.68 -54.616)"/><path class="a" d="M581.568,181.7,570.03,196.624l18.154-10.335C585.956,184.863,583.729,183.348,581.568,181.7Z" transform="translate(-511.337 -1.198)"/><g transform="translate(0.913 10.291)"><path class="d" d="M563.539,118.487l-.045-.267A25.186,25.186,0,0,0,561,119.356,22.673,22.673,0,0,1,563.539,118.487Z" transform="translate(-523.334 -89.407)"/><path class="d" d="M559.7,142.04l-15.615,1.982c.067.312.134.6.2.913l15.5-1.96C559.771,142.641,559.749,142.352,559.7,142.04Z" transform="translate(-544.09 -60.169)"/><path class="d" d="M608.264,140.068,603.119,161.7a150.824,150.824,0,0,1,13.342,23.009l21.428,6.482a172.183,172.183,0,0,1,8.308,27.553l2.116-.356a169.383,169.383,0,0,0-8.531-28.467l-21.428-6.482a150.839,150.839,0,0,0-13.342-23.009l5.145-21.628a170.884,170.884,0,0,0-20.515-21.628l-.713,2.383A169.627,169.627,0,0,1,608.264,140.068Z" transform="translate(-489.052 -90.696)"/><path class="d" d="M606.391,236.087c-25.7-14.835-46.531-50.763-46.531-80.255,0-13.031,4.076-22.564,10.848-27.932-7.818,5.034-12.607,15.057-12.607,29.179,0,29.491,20.827,65.42,46.531,80.255,12.964,7.484,24.7,8.152,33.144,3.185-.624.2-1.27.312-1.916.468C627.819,243.905,617.573,242.524,606.391,236.087Z" transform="translate(-526.893 -77.525)"/><path class="d" d="M597.32,190.393a29.446,29.446,0,0,0,8.487-4.744l-.8-.668A30.022,30.022,0,0,1,597.32,190.393Z" transform="translate(-478.753 -7.463)"/><path class="d" d="M568.139,131.8c-.78.022,0-.6.8-1.247l-20.648-17.6c-.579.8-1.114,1.693-.134,1.8Z" transform="translate(-539.762 -95.863)"/><path class="d" d="M595.627,188.967l4.923,26.373c-.579-.022.557-.045,1.626-.134L597.1,187.92C596.073,188.3,595.026,188.677,595.627,188.967Z" transform="translate(-481.048 -3.854)"/><path class="d" d="M608.944,174.448a86.709,86.709,0,0,0-.713-10.358l-1.871.134a93.165,93.165,0,0,1,.8,11.271,68.843,68.843,0,0,1-.8,10.358l18.8,24.1a57.7,57.7,0,0,1-6.861,16.082l.111,1.492a56.042,56.042,0,0,0,8.531-18.621l-18.8-24.1A71.86,71.86,0,0,0,608.944,174.448Z" transform="translate(-467.657 -33.104)"/><path class="d" d="M580.052,108.393l11.538,28.244a72.212,72.212,0,0,1,9.422,4.522,93.108,93.108,0,0,1,9.422,6.348l.356-1.782a86.467,86.467,0,0,0-8.086-5.39,72.2,72.2,0,0,0-9.422-4.522l-11.538-28.244A57.075,57.075,0,0,0,561.23,105.5l.223,1.181C566.843,106.522,573.993,106.722,580.052,108.393Z" transform="translate(-523.052 -105.284)"/><path class="d" d="M579.535,182.26l-9.645,12.474c.4.356.8.757,1.2,1.114l9.756-12.63C580.426,182.906,579.98,182.594,579.535,182.26Z" transform="translate(-512.422 -10.802)"/></g></g><path class="e" d="M589.905,102.661c.134-2.985,2.183-4.277,4.566-2.9a9.316,9.316,0,0,1,4.054,7.885c-.156,2.985-2.183,4.277-4.566,2.9A9.316,9.316,0,0,1,589.905,102.661Z" transform="translate(-476.818 -62.01)"/><path class="e" d="M583.913,262.068c.089-1.982,1.448-2.851,3.052-1.938a6.259,6.259,0,0,1,2.7,5.257c-.089,1.982-1.448,2.851-3.052,1.938A6.288,6.288,0,0,1,583.913,262.068Z" transform="translate(-484.168 135.062)"/><g transform="translate(185.752 241.613)"><path class="e" d="M623.63,202.361a1.131,1.131,0,0,1-.869-.423,1.11,1.11,0,0,1-.089-1.247l5.346-9.155a1.108,1.108,0,1,1,1.915,1.114l-3.9,6.682,7.885-2.428a1.106,1.106,0,1,1,.646,2.116l-10.6,3.274A.893.893,0,0,1,623.63,202.361Z" transform="translate(-622.523 -190.981)"/></g><g transform="translate(78.651 291.744)"><path class="f" d="M588.932,215.1c4.165,2.406,7.841,7.016,9.934,11.984a24.393,24.393,0,0,0,3.3-1.114c2.049-.824,4.722-.512,7.64,1.181,6.5,3.764,11.783,12.852,11.783,20.314,0,13.654-23.366,18.376-23.366,18.376s-22.208-29.692-22.208-43.324c0-3.72-1.582-4.878.535-6.081.178-.111,4.41-2.361,4.611-2.428C583.23,213.07,585.947,213.382,588.932,215.1Z" transform="translate(-573.206 -213.487)"/><path class="e" d="M586.223,216.047c4.544,2.628,8.464,7.841,10.424,13.276,1.96-3.163,5.9-3.853,10.424-1.225,6.5,3.764,11.783,12.852,11.783,20.314,0,13.654-22.208,17.686-22.208,17.686s-22.208-29.692-22.208-43.324C574.44,215.311,579.719,212.3,586.223,216.047Z" transform="translate(-574.44 -212.321)"/><g transform="translate(3.987 1.949)"><path class="g" d="M583.38,216.429a26.791,26.791,0,0,1,10.959,13.3c.4-.646-.156-.4.4-.846-2.049-5.19-5.813-10.068-10.135-12.563-3.564-2.049-6.259-2.539-8.375-1.225C578.212,214.491,580.685,214.87,583.38,216.429Z" transform="translate(-576.23 -214.362)"/><path class="g" d="M593.7,221.494c-3.542-2.049-6.326-2.094-8.086-1,1.983-.6,4.433-.223,7.128,1.336,6.5,3.764,11.783,12.852,11.783,20.314,0,6.348-4.789,10.6-9.934,13.365,5.747-2.7,10.892-6.638,10.892-13.7C605.479,234.346,600.2,225.258,593.7,221.494Z" transform="translate(-564.716 -207.71)"/></g></g><g transform="translate(117.876 42.722)"><path class="e" d="M664.419,310.446l-1.492-1.648c11.984-10.892,18.332-28.623,18.332-51.3,0-56.443-40.027-125.472-89.209-153.872l1.114-1.938c49.805,28.756,90.323,98.653,90.323,155.809C683.486,280.821,676.893,299.13,664.419,310.446Z" transform="translate(-592.05 -101.69)"/></g><g transform="translate(143.33 209.001)"><g transform="translate(81.151)"><path class="b" d="M641.024,180.795h0a1.122,1.122,0,0,1-1.114-1.136c0-.735.022-1.47.022-2.205a1.114,1.114,0,1,1,2.227,0c0,.757,0,1.515-.022,2.25A1.113,1.113,0,0,1,641.024,180.795Z" transform="translate(-639.91 -176.34)"/></g><g transform="translate(8.819 8.864)"><path class="b" d="M619.583,253.091a1.117,1.117,0,0,1-1.114-1.114,1.1,1.1,0,0,1,1.114-1.114c1.448,0,2.918-.067,4.343-.178a1.15,1.15,0,0,1,1.2,1.025,1.136,1.136,0,0,1-1.025,1.2c-1.515.111-3.029.178-4.522.178Zm-6.638-.245h-.089c-1.47-.134-2.962-.29-4.455-.512a1.137,1.137,0,0,1-.958-1.247,1.151,1.151,0,0,1,1.247-.958c1.47.2,2.9.379,4.344.49a1.115,1.115,0,0,1-.089,2.227Zm17.619-.78a1.112,1.112,0,0,1-.2-2.205c1.426-.267,2.851-.579,4.232-.936a1.116,1.116,0,0,1,.557,2.161c-1.426.379-2.918.713-4.388.98Zm10.625-3.007a1.077,1.077,0,0,1-1.025-.713,1.109,1.109,0,0,1,.624-1.448c1.336-.535,2.673-1.114,3.943-1.76a1.116,1.116,0,0,1,.98,2c-1.336.668-2.717,1.27-4.121,1.827A.875.875,0,0,1,641.189,249.059Zm9.779-5.079a1.162,1.162,0,0,1-.936-.49,1.11,1.11,0,0,1,.312-1.537c1.2-.8,2.383-1.648,3.519-2.539a1.11,1.11,0,1,1,1.381,1.737c-1.181.913-2.406,1.8-3.653,2.628A1.146,1.146,0,0,1,650.968,243.981Zm8.531-6.994a1.045,1.045,0,0,1-.78-.334,1.1,1.1,0,0,1,0-1.582c1.025-1.025,2-2.094,2.94-3.185a1.121,1.121,0,0,1,1.693,1.47c-.98,1.136-2,2.25-3.052,3.3A1.131,1.131,0,0,1,659.5,236.986Zm7.039-8.509a1.042,1.042,0,0,1-.624-.2,1.115,1.115,0,0,1-.29-1.559c.824-1.181,1.6-2.428,2.339-3.675a1.108,1.108,0,1,1,1.916,1.114c-.757,1.292-1.559,2.562-2.406,3.787A1.075,1.075,0,0,1,666.538,228.478Zm5.457-9.578a1.2,1.2,0,0,1-.468-.111,1.123,1.123,0,0,1-.535-1.492c.6-1.292,1.2-2.628,1.737-3.987a1.115,1.115,0,0,1,2.072.824c-.557,1.4-1.158,2.784-1.8,4.121A1.1,1.1,0,0,1,671.995,218.9ZM676,208.609a1.716,1.716,0,0,1-.334-.045,1.127,1.127,0,0,1-.735-1.4c.423-1.381.846-2.762,1.2-4.188a1.116,1.116,0,0,1,2.161.557c-.379,1.47-.8,2.9-1.247,4.3A1.1,1.1,0,0,1,676,208.609Zm2.7-10.714a.836.836,0,0,1-.223-.022,1.134,1.134,0,0,1-.891-1.314c.267-1.4.535-2.851.757-4.321a1.113,1.113,0,0,1,1.27-.936,1.125,1.125,0,0,1,.935,1.27c-.223,1.492-.49,2.962-.757,4.41A1.1,1.1,0,0,1,678.7,197.895Zm1.581-10.937h-.111a1.123,1.123,0,0,1-1-1.225c.134-1.448.245-2.9.356-4.366a1.116,1.116,0,1,1,2.227.134c-.089,1.492-.223,2.985-.356,4.455A1.148,1.148,0,0,1,680.281,186.958Z" transform="translate(-607.437 -180.32)"/></g><g transform="translate(0 76.93)"><path class="b" d="M606.78,213.623a.916.916,0,0,1-.245-.022c-.735-.156-1.47-.334-2.205-.512a1.124,1.124,0,0,1,.535-2.183c.713.178,1.426.356,2.138.512a1.121,1.121,0,0,1,.846,1.336A1.1,1.1,0,0,1,606.78,213.623Z" transform="translate(-603.478 -210.877)"/></g></g><g transform="translate(0 0)"><g transform="translate(2.499 107.946)"><path class="b" d="M541.74,135.4a1.1,1.1,0,0,1-1.091-.913c-.134-.735-.267-1.47-.379-2.205a1.119,1.119,0,0,1,2.205-.379c.111.735.245,1.448.379,2.183a1.112,1.112,0,0,1-.891,1.292A.834.834,0,0,1,541.74,135.4Z" transform="translate(-540.252 -130.972)"/></g><path class="b" d="M748.465,217.515a1.111,1.111,0,0,1-1.025-.691c-.557-1.381-1.136-2.762-1.715-4.143a1.117,1.117,0,1,1,2.049-.891c.6,1.4,1.181,2.784,1.738,4.188a1.109,1.109,0,0,1-.624,1.448A.964.964,0,0,1,748.465,217.515Zm-4.455-10.358a1.153,1.153,0,0,1-1.025-.646c-.624-1.359-1.247-2.717-1.893-4.076a1.121,1.121,0,1,1,2.027-.958c.646,1.359,1.292,2.74,1.916,4.121a1.119,1.119,0,0,1-.557,1.47A1.735,1.735,0,0,1,744.01,207.157Zm-4.923-10.179a1.145,1.145,0,0,1-1-.6c-.668-1.337-1.359-2.673-2.072-3.987A1.121,1.121,0,0,1,738,191.343c.713,1.336,1.4,2.673,2.094,4.032a1.105,1.105,0,0,1-.49,1.492A1.016,1.016,0,0,1,739.087,196.978Zm-5.3-9.957a1.166,1.166,0,0,1-.98-.557c-.735-1.314-1.47-2.606-2.228-3.9a1.108,1.108,0,0,1,1.916-1.114c.757,1.314,1.515,2.606,2.25,3.943a1.1,1.1,0,0,1-.423,1.515A1.531,1.531,0,0,1,733.786,187.021ZM541.736,186a1.125,1.125,0,0,1-1.114-.958c-.2-1.515-.379-3.007-.535-4.5a1.109,1.109,0,0,1,2.205-.245c.156,1.47.334,2.962.535,4.455A1.12,1.12,0,0,1,541.87,186Zm186.325-8.687a1.108,1.108,0,0,1-.958-.535c-.78-1.27-1.582-2.539-2.383-3.809a1.112,1.112,0,1,1,1.871-1.2c.824,1.27,1.6,2.539,2.406,3.831a1.142,1.142,0,0,1-.356,1.537A.937.937,0,0,1,728.061,177.31ZM540.6,174.793a1.119,1.119,0,0,1-1.114-1.047c-.111-1.515-.178-3.029-.245-4.544a1.1,1.1,0,0,1,1.069-1.158h.045a1.108,1.108,0,0,1,1.114,1.069c.067,1.492.134,2.985.245,4.477a1.1,1.1,0,0,1-1.025,1.181C540.667,174.793,540.645,174.793,540.6,174.793Zm181.336-6.95a1.093,1.093,0,0,1-.913-.49c-.846-1.247-1.693-2.472-2.539-3.7a1.119,1.119,0,0,1,1.827-1.292c.869,1.225,1.715,2.472,2.562,3.72a1.1,1.1,0,0,1-.29,1.537A1.034,1.034,0,0,1,721.936,167.843Zm-181.692-4.321h0a1.117,1.117,0,0,1-1.114-1.114c0-1.537.045-3.052.089-4.544a1.108,1.108,0,0,1,1.114-1.069h.045a1.1,1.1,0,0,1,1.069,1.158c-.045,1.47-.089,2.962-.089,4.477A1.1,1.1,0,0,1,540.244,163.522Zm175.21-4.9a1.129,1.129,0,0,1-.891-.445c-.891-1.2-1.782-2.406-2.7-3.586a1.112,1.112,0,0,1,1.76-1.359c.913,1.2,1.827,2.406,2.717,3.608a1.11,1.11,0,0,1-.245,1.559A.991.991,0,0,1,715.454,158.622Zm-174.7-6.37h-.089a1.12,1.12,0,0,1-1.025-1.2c.134-1.537.29-3.052.468-4.522a1.108,1.108,0,0,1,1.247-.958,1.128,1.128,0,0,1,.98,1.247c-.178,1.448-.334,2.94-.468,4.455A1.128,1.128,0,0,1,540.756,152.251Zm167.815-2.539a1.065,1.065,0,0,1-.869-.423c-.936-1.158-1.893-2.317-2.851-3.475a1.107,1.107,0,0,1,1.693-1.426c.958,1.158,1.916,2.317,2.873,3.5a1.1,1.1,0,0,1-.178,1.559A.942.942,0,0,1,708.571,149.712Zm-7.261-8.6a1.15,1.15,0,0,1-.846-.379c-.98-1.114-1.982-2.227-2.985-3.319a1.119,1.119,0,0,1,1.648-1.515c1.025,1.114,2.027,2.227,3.029,3.363a1.146,1.146,0,0,1-.089,1.581A1.359,1.359,0,0,1,701.31,141.114Zm-159.084-.022a.618.618,0,0,1-.2-.022,1.111,1.111,0,0,1-.891-1.292c.267-1.515.579-3.007.913-4.455a1.119,1.119,0,1,1,2.183.49c-.334,1.426-.624,2.873-.891,4.366A1.141,1.141,0,0,1,542.226,141.092Zm151.443-8.264a1.13,1.13,0,0,1-.8-.334c-1.047-1.069-2.094-2.138-3.163-3.185a1.118,1.118,0,1,1,1.581-1.581c1.069,1.069,2.139,2.138,3.185,3.23a1.123,1.123,0,0,1-.022,1.581A1.171,1.171,0,0,1,693.67,132.828Zm-148.815-2.7a1.723,1.723,0,0,1-.334-.045,1.113,1.113,0,0,1-.735-1.381c.446-1.47.936-2.918,1.448-4.343a1.113,1.113,0,1,1,2.094.757c-.49,1.381-.958,2.784-1.4,4.232A1.1,1.1,0,0,1,544.855,130.133Zm140.752-5.19a1.116,1.116,0,0,1-.757-.29c-1.091-1.025-2.205-2.027-3.319-3.029a1.12,1.12,0,1,1,1.493-1.671c1.114,1,2.25,2.027,3.341,3.052a1.144,1.144,0,0,1,.067,1.581A1.116,1.116,0,0,1,685.606,124.943ZM548.842,119.6a.9.9,0,0,1-.468-.111,1.126,1.126,0,0,1-.557-1.47c.646-1.4,1.314-2.762,2.027-4.1a1.116,1.116,0,0,1,1.96,1.069c-.69,1.292-1.359,2.606-1.982,3.965A1.043,1.043,0,0,1,548.842,119.6Zm128.3-2.116a1.093,1.093,0,0,1-.713-.267c-1.158-.958-2.317-1.916-3.475-2.829a1.11,1.11,0,0,1,1.381-1.737c1.181.936,2.361,1.893,3.52,2.873a1.1,1.1,0,0,1,.134,1.559A1.035,1.035,0,0,1,677.142,117.481Zm-8.865-6.972a1.1,1.1,0,0,1-.668-.223c-1.2-.891-2.428-1.76-3.631-2.628a1.119,1.119,0,1,1,1.292-1.826c1.225.869,2.472,1.76,3.675,2.651a1.13,1.13,0,0,1,.245,1.559A1.1,1.1,0,0,1,668.277,110.509Zm-113.956-.735a1.261,1.261,0,0,1-.624-.178,1.114,1.114,0,0,1-.312-1.537c.869-1.27,1.76-2.539,2.7-3.72a1.083,1.083,0,0,1,1.559-.178,1.125,1.125,0,0,1,.2,1.559c-.891,1.136-1.76,2.339-2.606,3.586A1.129,1.129,0,0,1,554.321,109.774Zm104.69-5.658a1.18,1.18,0,0,1-.6-.178c-1.27-.8-2.539-1.6-3.809-2.361a1.119,1.119,0,0,1,1.158-1.916c1.292.78,2.584,1.581,3.853,2.406a1.116,1.116,0,0,1,.334,1.537A1.186,1.186,0,0,1,659.011,104.116Zm-97.584-3.074a1.153,1.153,0,0,1-.779-.312,1.1,1.1,0,0,1,0-1.581c1.069-1.091,2.205-2.138,3.363-3.141a1.121,1.121,0,0,1,1.47,1.693c-1.114.958-2.183,1.96-3.23,3.007A1.222,1.222,0,0,1,561.427,101.042Zm87.895-2.7a1.186,1.186,0,0,1-.535-.134c-1.336-.713-2.651-1.426-3.965-2.072a1.112,1.112,0,0,1-.49-1.492,1.087,1.087,0,0,1,1.492-.49c1.336.668,2.673,1.381,4.032,2.116a1.1,1.1,0,0,1-.535,2.072Zm-79.208-4.455a1.162,1.162,0,0,1-.936-.49,1.11,1.11,0,0,1,.312-1.537c1.27-.846,2.606-1.648,3.943-2.383a1.116,1.116,0,1,1,1.069,1.96c-1.292.69-2.562,1.47-3.764,2.272A1.329,1.329,0,0,1,570.114,93.892Zm69.1-.535a1,1,0,0,1-.445-.089c-1.381-.6-2.762-1.181-4.121-1.737a1.115,1.115,0,0,1,.824-2.072c1.381.557,2.784,1.136,4.188,1.76a1.1,1.1,0,0,1,.557,1.47A1.082,1.082,0,0,1,639.209,93.358ZM628.7,89.3a2.222,2.222,0,0,1-.356-.045c-1.426-.468-2.851-.913-4.277-1.314a1.121,1.121,0,1,1,.6-2.161c1.448.4,2.9.846,4.366,1.336A1.12,1.12,0,0,1,628.7,89.3Zm-48.6-.6a1.121,1.121,0,0,1-.423-2.161c1.4-.557,2.873-1.069,4.343-1.492a1.1,1.1,0,1,1,.624,2.116c-1.426.423-2.829.913-4.165,1.448A.733.733,0,0,1,580.093,88.7Zm37.733-2.339a.757.757,0,0,1-.223-.022c-1.47-.312-2.94-.557-4.388-.78a1.115,1.115,0,0,1,.334-2.205c1.492.223,2.985.49,4.5.8a1.13,1.13,0,0,1,.869,1.314A1.116,1.116,0,0,1,617.826,86.363Zm-26.908-.691a1.11,1.11,0,0,1-.178-2.205c1.492-.267,3.007-.468,4.544-.624a1.119,1.119,0,0,1,.223,2.227c-1.47.156-2.94.356-4.388.6Zm15.726-.8h-.067c-1.492-.089-2.985-.134-4.433-.134a1.114,1.114,0,0,1,0-2.227c1.515,0,3.029.045,4.566.156a1.1,1.1,0,0,1,1.047,1.181A1.134,1.134,0,0,1,606.644,84.871Z" transform="translate(-539.13 -82.51)"/><g transform="translate(210.733 139.209)"><path class="b" d="M635.636,149.334a1.126,1.126,0,0,1-1.047-.735l-.78-2.094a1.107,1.107,0,1,1,2.071-.78l.78,2.094a1.116,1.116,0,0,1-.668,1.426A.706.706,0,0,1,635.636,149.334Z" transform="translate(-633.738 -145.007)"/></g></g><g transform="translate(106.92 305.425)"><g transform="translate(63.344)"><path class="e" d="M617.531,223.908a1.111,1.111,0,0,1-1.025-.691c-.267-.69-.557-1.359-.846-2.049a1.109,1.109,0,0,1,2.049-.846c.29.691.579,1.381.846,2.072a1.109,1.109,0,0,1-.624,1.448A1.165,1.165,0,0,1,617.531,223.908Z" transform="translate(-615.569 -219.629)"/></g><g transform="translate(7.922 8.247)"><path class="e" d="M617.333,323.051h0c-1.492,0-3.007-.089-4.5-.223a1.1,1.1,0,0,1-1-1.2,1.143,1.143,0,0,1,1.2-1c1.448.134,2.9.2,4.3.223a1.117,1.117,0,0,1,1.114,1.114A1.1,1.1,0,0,1,617.333,323.051Zm6.593-.468a1.1,1.1,0,0,1-1.091-.958,1.126,1.126,0,0,1,.935-1.27,42.2,42.2,0,0,0,4.188-.869,1.108,1.108,0,0,1,.579,2.138,42.252,42.252,0,0,1-4.433.913A.268.268,0,0,1,623.926,322.583Zm-17.53-.78a1,1,0,0,1-.245-.022c-1.426-.312-2.9-.668-4.344-1.091a1.114,1.114,0,1,1,.624-2.138q2.138.6,4.21,1.069a1.1,1.1,0,0,1,.846,1.314A1.119,1.119,0,0,1,606.4,321.8Zm28.066-2.383a1.111,1.111,0,0,1-.468-2.116,35.958,35.958,0,0,0,3.742-2.049,1.112,1.112,0,1,1,1.2,1.871,31.533,31.533,0,0,1-3.987,2.183A1.039,1.039,0,0,1,634.462,319.42Zm-38.6-.846a1.26,1.26,0,0,1-.4-.067c-1.359-.535-2.74-1.114-4.121-1.76a1.112,1.112,0,1,1,.913-2.027c1.336.624,2.673,1.181,4.009,1.693a1.109,1.109,0,0,1,.624,1.448A1.077,1.077,0,0,1,595.861,318.573Zm47.667-5.3a1.114,1.114,0,0,1-.757-1.938,39.065,39.065,0,0,0,2.962-3.1,1.107,1.107,0,1,1,1.693,1.426,39.723,39.723,0,0,1-3.141,3.274A.927.927,0,0,1,643.528,313.272Zm6.927-8.531a1.079,1.079,0,0,1-.579-.156,1.118,1.118,0,0,1-.379-1.537c.735-1.2,1.426-2.472,2.072-3.764a1.116,1.116,0,1,1,2,.98c-.668,1.359-1.4,2.7-2.161,3.965A1.163,1.163,0,0,1,650.455,304.741Zm4.655-9.979a1.008,1.008,0,0,1-.356-.067,1.1,1.1,0,0,1-.69-1.4c.468-1.336.891-2.74,1.247-4.143a1.116,1.116,0,1,1,2.161.557c-.379,1.47-.824,2.918-1.292,4.3A1.167,1.167,0,0,1,655.111,294.762Zm2.651-10.692a.434.434,0,0,1-.178-.022,1.1,1.1,0,0,1-.913-1.292c.223-1.4.423-2.829.579-4.3a1.088,1.088,0,0,1,1.225-.98,1.119,1.119,0,0,1,.98,1.225c-.156,1.515-.356,2.985-.6,4.433A1.12,1.12,0,0,1,657.761,284.07Zm1.025-10.981h-.045a1.1,1.1,0,0,1-1.069-1.158c.022-1,.045-2,.045-3.052v-1.314a1.132,1.132,0,0,1,1.091-1.136,1.2,1.2,0,0,1,1.136,1.091v1.359c0,1.047-.022,2.094-.045,3.118A1.112,1.112,0,0,1,658.786,273.089Zm-.245-11.026a1.116,1.116,0,0,1-1.114-1.025c-.111-1.448-.245-2.9-.4-4.366a1.109,1.109,0,1,1,2.205-.245c.156,1.492.312,2.962.423,4.433a1.122,1.122,0,0,1-1.025,1.2ZM657.2,251.1a1.1,1.1,0,0,1-1.091-.936c-.245-1.426-.512-2.873-.8-4.3a1.114,1.114,0,0,1,2.183-.445c.29,1.47.557,2.918.8,4.366a1.127,1.127,0,0,1-.913,1.292A.494.494,0,0,1,657.2,251.1Zm-2.272-10.781a1.137,1.137,0,0,1-1.091-.846c-.356-1.4-.735-2.829-1.136-4.232a1.111,1.111,0,0,1,.78-1.381,1.139,1.139,0,0,1,1.381.78c.4,1.426.78,2.873,1.136,4.3a1.126,1.126,0,0,1-.8,1.359C655.133,240.3,655.022,240.323,654.933,240.323Zm-3.074-10.6a1.076,1.076,0,0,1-1.047-.757c-.468-1.381-.935-2.762-1.426-4.143a1.113,1.113,0,0,1,2.094-.757c.49,1.4.98,2.807,1.448,4.21a1.115,1.115,0,0,1-.713,1.4A1.735,1.735,0,0,1,651.859,229.721Z" transform="translate(-590.688 -223.332)"/></g><g transform="translate(0 95.45)"><path class="e" d="M590.18,265.8a1.185,1.185,0,0,1-.535-.134c-.646-.356-1.314-.735-1.96-1.114a1.108,1.108,0,1,1,1.114-1.916c.646.379,1.292.735,1.916,1.091a1.128,1.128,0,0,1,.445,1.515A1.113,1.113,0,0,1,590.18,265.8Z" transform="translate(-587.131 -262.481)"/></g></g><g transform="translate(168.481 302.623)"><path class="e" d="M615.885,226.543h-.067a1.1,1.1,0,0,1-1.047-1.181l.379-5.947a1.123,1.123,0,0,1,1.782-.824l5.012,3.72a1.114,1.114,0,1,1-1.336,1.782l-3.364-2.495L617,225.5A1.119,1.119,0,0,1,615.885,226.543Z" transform="translate(-614.769 -218.371)"/></g></g><path class="d" d="M459.073,140.736c-.045-7.306-10.335-13.253-23.009-13.276s-22.9,5.88-22.854,13.209c.045,6.682,8.665,12.229,19.846,13.142l.022,3.7c-2.116.334-3.675,1.426-3.675,2.762l.067,12.652c0,1.581,2.25,2.873,4.989,2.873h3.764c2.74,0,4.967-1.27,4.945-2.851l-.067-12.652c0-1.336-1.581-2.428-3.7-2.762l-.022-3.7C450.52,152.942,459.1,147.44,459.073,140.736Z" transform="translate(11355.75 6813.788)"/><g transform="translate(11666.319 6796.456)"><path class="c" d="M793.239,735.064,395.04,505.036c-15.414-8.91-27.91-32.788-27.91-53.325V89.463c0-20.559,12.5-30,27.91-21.094L793.239,298.4c15.414,8.91,27.91,32.788,27.91,53.325V713.948C821.149,734.507,808.653,743.951,793.239,735.064Z" transform="translate(-367.13 -59.318)"/><path class="h" d="M798.447,295.833,400.27,65.806c-6.1-3.519-11.739-4.165-16.327-2.406-.579.223-11.494,5.858-12.05,6.17a.022.022,0,0,0-.022.022c4.767-2.317,10.781-1.871,17.374,1.916l398.2,230.028c15.414,8.91,27.91,32.788,27.91,53.325V717.087c0,12.83-4.878,21.317-12.273,23.745a4.792,4.792,0,0,0,2.45-.824c.356-.2,11.917-6.46,12.273-6.7,5.3-3.72,8.6-11.338,8.6-21.918V349.158C826.379,328.6,813.861,304.721,798.447,295.833Z" transform="translate(-361.312 -62.456)"/><path class="i" d="M795.328,296.5,397.129,66.476c-6.1-3.519-11.739-4.165-16.327-2.406-.579.223-8.375,4.366-8.91,4.655a.022.022,0,0,0-.022.022c4.767-2.317,10.781-1.871,17.374,1.916l398.2,230.028Z" transform="translate(-361.312 -61.634)"/><path class="d" d="M787.727,298.075,389.527,68.047c-6.326-3.653-12.14-4.165-16.817-2.138,3.987-.624,8.576.334,13.454,3.163L784.363,299.1c15.414,8.91,27.91,32.788,27.91,53.325v362.2c0,12.117-4.366,20.336-11.093,23.254,8.62-1.359,14.456-10.2,14.456-24.257V351.4C815.636,330.841,803.14,306.962,787.727,298.075Z" transform="translate(-360.281 -59.664)"/><path class="j" d="M374.17,90.45V420.467c0,16.127,7.662,31.875,20.069,39.76L788.184,687.782c.156.089.379.223.646.379a5.346,5.346,0,0,0,8-4.633V334.622Z" transform="translate(-358.489 -28.096)"/><path class="k" d="M796.258,685.189c-.29-.156-.512-.289-.646-.379L401.667,457.277c-12.407-7.885-20.069-23.633-20.069-39.76V94.739l-7.417-4.3V420.457c0,16.127,7.662,31.875,20.069,39.76L788.194,687.772c.156.089.379.223.646.379a5.326,5.326,0,0,0,7.662-2.873A.8.8,0,0,1,796.258,685.189Z" transform="translate(-358.477 -28.108)"/><g transform="translate(376.549 238.439)"><path class="l" d="M553.97,185.28a16.89,16.89,0,0,0,7.685,13.253c4.232,2.45,7.685.49,7.685-4.388a16.89,16.89,0,0,0-7.685-13.253C557.4,178.441,553.97,180.4,553.97,185.28Z" transform="translate(-514.344 -156.818)"/><path class="e" d="M545.07,180.11a16.89,16.89,0,0,0,7.685,13.253c4.232,2.45,7.685.49,7.685-4.388a16.89,16.89,0,0,0-7.685-13.253C548.523,173.271,545.07,175.232,545.07,180.11Z" transform="translate(-525.268 -163.164)"/><path class="m" d="M536.18,174.932a16.89,16.89,0,0,0,7.685,13.253c4.232,2.45,7.685.49,7.685-4.388a16.89,16.89,0,0,0-7.685-13.253C539.61,168.116,536.18,170.076,536.18,174.932Z" transform="translate(-536.18 -169.502)"/></g></g><path class="a" d="M509.639,176.6l-28.89-16.684c-2.918-1.693-5.279-.334-5.279,3.007a11.621,11.621,0,0,0,5.279,9.11l28.89,16.684c2.918,1.693,5.279.334,5.279-3.007A11.6,11.6,0,0,0,509.639,176.6Zm47.578,27.464-28.89-16.684c-2.918-1.693-5.279-.334-5.279,3.007a11.621,11.621,0,0,0,5.279,9.11l28.89,16.684c2.918,1.693,5.279.334,5.279-3.007A11.656,11.656,0,0,0,557.217,204.06Zm47.556,27.464-28.89-16.684c-2.918-1.693-5.279-.334-5.279,3.007a11.621,11.621,0,0,0,5.279,9.11l28.89,16.684c2.918,1.693,5.279.334,5.279-3.007A11.6,11.6,0,0,0,604.773,231.524Zm47.578,27.464L623.461,242.3c-2.918-1.693-5.279-.334-5.279,3.007a11.621,11.621,0,0,0,5.279,9.11l28.89,16.684c2.918,1.693,5.279.334,5.279-3.007A11.656,11.656,0,0,0,652.351,258.988Z" transform="translate(11432.17 6852.726)"/><g transform="translate(11535.68 6889.059)"><g transform="translate(20.247 0)"><path class="n" d="M439.34,182.3V306.636l13.61-7.952V173.97Z" transform="translate(-168.105 -18.183)"/><path class="h" d="M588.872,263.643V387.979L317.57,232.392V107.7Z" transform="translate(-317.57 -99.525)"/><path class="a" d="M317.57,112.2l271.3,155.943,13.543-8.331L331.024,104.03Z" transform="translate(-317.57 -104.03)"/><path class="g" d="M317.57,107.7l271.3,155.943,13.543-8.331-13.587,6.437Z" transform="translate(-317.57 -99.525)"/></g><g transform="translate(129.102 91.191)"><path class="d" d="M468.713,243.009V237.73L383.09,189.06v5.279Z" transform="translate(-346.003 -90.852)"/><path class="d" d="M366.44,144.97v5.279L510.377,232.6v-5.279Z" transform="translate(-366.44 -144.97)"/><path class="d" d="M417.114,193.939,366.44,164.67v5.279l50.674,29.269Z" transform="translate(-366.44 -120.789)"/><path class="d" d="M404.59,196.55v5.279l20.938,11.315v-5.279Z" transform="translate(-319.613 -81.659)"/><path class="d" d="M448.165,202.019l-81.725-47.2V160.1l81.725,47.2Z" transform="translate(-366.44 -132.88)"/><path class="d" d="M396.377,177.035,366.44,159.75v5.279l29.937,17.285Z" transform="translate(-366.44 -126.828)"/><path class="d" d="M376.46,185.589l57.468,33.167v-5.279L376.46,180.31Z" transform="translate(-354.141 -101.592)"/><path class="d" d="M382.21,168.86v5.279l80.678,45.8v-5.279Z" transform="translate(-347.083 -115.646)"/><path class="d" d="M391.53,179.16v5.279l40.317,23.277v-5.279Z" transform="translate(-335.644 -103.004)"/><path class="d" d="M383.569,184.4,366.44,174.53v5.279l17.129,9.868Z" transform="translate(-366.44 -108.687)"/><path class="d" d="M405.46,182.629l57.022,32.164v-5.279L405.46,177.35Z" transform="translate(-318.545 -105.226)"/><path class="d" d="M420.76,196.049,443.7,209.28V204L420.76,190.77Z" transform="translate(-299.765 -88.753)"/><path class="d" d="M366.44,155.179l143.937,82.326v-5.279L366.44,149.9Z" transform="translate(-366.44 -138.919)"/><path class="d" d="M411.96,196.239,454.5,220.028v-5.279L411.96,190.96Z" transform="translate(-310.567 -88.52)"/><path class="d" d="M398.337,197.849l-31.9-18.4v5.279l31.9,18.4Z" transform="translate(-366.44 -102.648)"/><path class="d" d="M423.86,217.539l16.038,9.244V221.5L423.86,212.26Z" transform="translate(-295.96 -62.376)"/><path class="d" d="M416.32,208.259l32.832,18.955v-5.279L416.32,202.98Z" transform="translate(-305.215 -73.766)"/><path class="d" d="M366.44,174.879l143.937,82.326v-5.279L366.44,169.6Z" transform="translate(-366.44 -114.738)"/></g><path class="n" d="M387.259,151.674,339.948,124.3c-8.264-4.767-14.968.29-14.968,11.315v54.773c0,11.026,6.7,23.834,14.968,28.623l47.311,27.375c8.264,4.767,14.968-.29,14.968-11.315V180.3C402.25,169.271,395.545,156.441,387.259,151.674Z" transform="translate(-288.227 -81.354)"/><path class="o" d="M393.117,241.862l-47.311-27.375c-8.264-4.767-14.968-17.6-14.968-28.623v-54.75a17.964,17.964,0,0,1,1.849-8.553c-4.589.757-7.707,5.5-7.707,13.008v54.773c0,11.026,6.7,23.834,14.968,28.623l47.311,27.375c5.658,3.274,10.58,1.916,13.12-2.784A11.2,11.2,0,0,1,393.117,241.862Z" transform="translate(-288.227 -81.286)"/><g transform="translate(0 51.937)"><path class="p" d="M370.759,158.544l-47.311-27.375c-8.264-4.767-14.968.29-14.968,11.315v54.773c0,11.026,6.7,23.834,14.968,28.623l47.311,27.375c8.264,4.767,14.968-.29,14.968-11.315V187.167C385.75,176.141,379.045,163.333,370.759,158.544Z" transform="translate(-308.48 -124.859)"/><path class="p" d="M375.7,156.511l-47.311-27.375c-3.542-2.049-6.794-2.272-9.355-1l-.089-.089-8.2,4.811.022.111c2.628-1.559,6.081-1.47,9.868.713l47.311,27.375c8.264,4.767,14.968,17.6,14.968,28.623V244.45c0,5.368-1.6,9.288-4.165,11.4l4.566-3.007c3.831-2.205,7.328-5.613,7.328-12.919V185.156C390.671,174.107,383.966,161.3,375.7,156.511Z" transform="translate(-305.694 -127.347)"/><path class="g" d="M368.7,158.239l-47.311-27.375c-4.1-2.383-7.818-2.317-10.536-.312,2.45-.936,5.457-.6,8.709,1.292l47.311,27.375c8.264,4.767,14.968,17.6,14.968,28.623v54.773c0,5.546-1.693,9.578-4.433,11.627,3.787-1.448,6.259-5.925,6.259-12.607V186.861C383.665,175.835,376.96,163.005,368.7,158.239Z" transform="translate(-305.571 -125.244)"/><path class="d" d="M314.11,136.97v62.7l51.32,29.647v-62.7Zm48.024,86.647-44.727-25.838V142.672l44.727,25.838Z" transform="translate(-301.57 -115.536)"/><path class="d" d="M339.234,161.932c0,4.1-2.9,5.769-6.482,3.7a14.29,14.29,0,0,1-6.482-11.182c0-4.1,2.9-5.769,6.482-3.7A14.35,14.35,0,0,1,339.234,161.932Z" transform="translate(-286.644 -99.713)"/><path class="d" d="M314.88,167.153l13.365-17.263,13.565,34.325,9.868-8.019,10.892,29.6-.2,2.985L315.1,183.5Z" transform="translate(-300.624 -99.677)"/></g></g><g transform="translate(12100.528 6955.491)"><g transform="translate(0 0)"><path class="l" d="M627.658,186.936c0,8.509-2.94,14.545-7.729,17.485-.134.089-8.175,5.056-8.308,5.145-4.967,2.784-1.782-3.519-9.355-7.885-15.191-8.776-27.509-30.026-27.509-47.467,0-8.62-7.974-8.687-3.1-11.583.134-.089,9.11-5.212,9.244-5.279,4.967-2.7,11.739-2.183,19.2,2.116C615.341,148.246,627.658,169.5,627.658,186.936Z" transform="translate(-552.229 -131.595)"/><path class="d" d="M590.5,141.579c-7.284-4.21-13.9-4.767-18.822-2.316,4.588-1.292,10.291-.334,16.461,3.23,15.191,8.776,27.509,30.026,27.509,47.467,0,9.088-3.341,15.325-8.687,18,6.727-1.871,11.07-8.553,11.07-18.933C618.011,171.6,605.693,150.355,590.5,141.579Z" transform="translate(-550.266 -129.005)"/><ellipse class="q" cx="22.408" cy="38.802" rx="22.408" ry="38.802" transform="matrix(0.863, -0.505, 0.505, 0.863, 0, 22.619)"/></g><path class="r" d="M581.6,152.861c0,2.45-1.737,3.43-3.876,2.205a8.494,8.494,0,0,1-3.876-6.66c0-2.45,1.738-3.43,3.876-2.205A8.494,8.494,0,0,1,581.6,152.861Z" transform="translate(-547.602 -119.348)"/><path class="r" d="M588.621,156.911c0,2.45-1.737,3.43-3.876,2.205a8.493,8.493,0,0,1-3.876-6.66c0-2.45,1.738-3.43,3.876-2.205A8.494,8.494,0,0,1,588.621,156.911Z" transform="translate(-538.986 -114.377)"/><path class="r" d="M572.54,153.43l3.608.6c1.671,6.326,6.1,12.5,11.07,15.347,4.811,2.784,9.222,1.871,10.959-2.272l3.564,3.653c-2.316,5.5-8.152,6.7-14.523,3.029C580.648,169.98,574.745,161.805,572.54,153.43Z" transform="translate(-549.21 -109.827)"/><path class="s" d="M578.862,154.243a8.494,8.494,0,0,1-3.876-6.66,3.35,3.35,0,0,1,.512-1.893c-1,.223-1.648,1.181-1.648,2.673a8.494,8.494,0,0,0,3.876,6.66c1.448.824,2.673.624,3.341-.312A2.948,2.948,0,0,1,578.862,154.243Z" transform="translate(-547.602 -119.328)"/><path class="s" d="M585.882,158.3a8.493,8.493,0,0,1-3.876-6.66,3.349,3.349,0,0,1,.512-1.893c-1,.223-1.648,1.181-1.648,2.673a8.494,8.494,0,0,0,3.876,6.66c1.448.824,2.673.624,3.341-.312A3.168,3.168,0,0,1,585.882,158.3Z" transform="translate(-538.986 -114.344)"/><g transform="translate(23.33 43.58)"><path class="s" d="M585.4,160.025l-.446-.445a6.411,6.411,0,0,1-1.648,2.361A5.924,5.924,0,0,0,585.4,160.025Z" transform="translate(-559.32 -145.859)"/><path class="s" d="M588.355,173c-6.3-3.631-11.984-11.315-14.389-19.334l-1.426-.245c2.205,8.375,8.108,16.572,14.679,20.359,4.811,2.784,9.288,2.762,12.206.245C596.552,175.717,592.565,175.449,588.355,173Z" transform="translate(-572.54 -153.42)"/></g></g><g transform="translate(11865.587 7105.566)"><g transform="translate(0 0)"><path class="n" d="M589.86,286.078V437.945l13.61-7.974V277.77Z" transform="translate(-293.009 -107.282)"/><path class="h" d="M753.508,375.51V527.376L456.59,357.111V204.91Z" transform="translate(-456.59 -196.713)"/><path class="a" d="M456.59,209.427l296.918,170.6,13.543-8.308L470.044,201.23Z" transform="translate(-456.59 -201.23)"/><path class="g" d="M456.59,204.91l296.918,170.6L767.05,367.2l-13.587,6.415Z" transform="translate(-456.59 -196.713)"/></g><ellipse class="n" cx="37.933" cy="65.687" rx="37.933" ry="65.687" transform="matrix(0.863, -0.505, 0.505, 0.863, 166.406, 180.814)"/><path class="o" d="M591.013,379.711c-25.727-14.857-46.6-50.83-46.6-80.366,0-11.026,2.9-19.579,7.885-25.215-7.662,5.1-12.34,15.124-12.34,29.113,0,29.536,20.849,65.509,46.6,80.366,16.127,9.311,30.338,8.108,38.713-1.359C616.74,387.93,604.556,387.529,591.013,379.711Z" transform="translate(-354.258 -111.75)"/><g transform="translate(17.24 80.121)"><path class="n" d="M548.616,248.649l-10.023-5.791V355.744l10.023,5.791Zm14.412-5.658L553,237.2V363.964l10.024,5.791Zm14.857,25.5L567.861,262.7V372.45l10.023,5.791Zm-69.006,7.952V338.3l10.023,5.791V282.239Zm24.88-17.2-10.023-5.791v93.307l10.023,5.791Zm58.693,40.584-10.023-5.791v86.892l10.023,5.791Zm14.3,35.839-10.023-5.791V389.29l10.023,5.791ZM504.045,265.733l-10.023-5.791v69.407l10.023,5.791Zm-39.715,4.1v42.054l10.023,5.791V275.623Zm24.881-16.505-10.024-5.791V320.35l10.024,5.791Z" transform="translate(-464.33 -237.2)"/><path class="b" d="M548.616,282.615l-10.023-5.791v68.583l10.023,5.791Zm14.412-31.184L553,245.64V353.6l10.024,5.791Zm14.857,26.752-10.023-5.791v89.7l10.023,5.791Zm-69.006,2.94v46.821l10.023,5.791V286.915Zm24.88-1.849-10.023-5.791v62.925l10.023,5.791Zm-29.714-18.22-10.023-5.791V318.99l10.023,5.791ZM464.33,289.342v12.184l10.023,5.791V295.134Zm24.881.022-10.024-5.791v26.417l10.024,5.791Zm103.242,16.283-10.023-5.791v70.721l10.023,5.791Zm14.3,28.467-10.023-5.791v50.585l10.023,5.791Z" transform="translate(-464.33 -226.84)"/><g transform="translate(0 18.8)"><path class="d" d="M520.821,264.689l-10-5.791V257.65l10,5.791Z" transform="translate(-407.266 -230.898)"/><path class="d" d="M514.151,252.679l-10-5.769v-1.27l10,5.791Z" transform="translate(-415.453 -245.64)"/><path class="d" d="M533.793,289.809l-10.023-5.791V282.77l10.023,5.769Z" transform="translate(-391.371 -200.065)"/><path class="d" d="M507.693,266.679l-10.023-5.791V259.64l10.023,5.791Z" transform="translate(-423.407 -228.456)"/><path class="d" d="M527.361,277.006l-10-5.769V269.99l10,5.769Z" transform="translate(-399.239 -215.752)"/><path class="d" d="M481.023,269.709,471,263.917V262.67l10.023,5.791Z" transform="translate(-456.143 -224.737)"/><path class="d" d="M487.671,257l-10-5.791V249.96l10,5.791Z" transform="translate(-447.956 -240.337)"/><path class="d" d="M474.353,271.029v1.27l-10.023-5.791V265.26Z" transform="translate(-464.33 -221.558)"/><path class="d" d="M501.023,265.166,491,259.4V258.15l10.023,5.769Z" transform="translate(-431.594 -230.285)"/><path class="d" d="M494.353,268.609l-10.023-5.791V261.57l10.023,5.769Z" transform="translate(-439.781 -226.087)"/></g></g><g transform="translate(174.275 162.421)"><g transform="translate(0.423)"><path class="l" d="M545.271,310.392c.6-22.319,16.839-31.184,36.73-19.691,10.246,5.925,19.512,16.1,26.195,27.754l7.351-1.849c-8.353-15.169-20.292-28.556-33.545-36.2-25.036-14.456-45.44-3.029-45.752,25.46l5.88,5.324Z" transform="translate(-533.51 -274.148)"/><path class="l" d="M601.955,359.08c-5.435.49-11.716-1.025-18.443-4.9-18.844-10.892-34.414-36.24-36.53-58.448L538,291.21c.022.156-3.007.78-2.985.935,2.606,27.643,25.036,58.782,48.491,72.325,8.531,4.923,14.3,7.506,21.138,6.771.29-.022,2.784-.735,3.074-.78Z" transform="translate(-535.02 -253.206)"/><path class="l" d="M573.829,298.066c4.455,9.556,7.128,19.668,7.128,28.979,0,13.342-5.435,22.1-13.877,24.97l5.68,11.271c10.447-3.586,17.174-14.5,17.174-31.051,0-11.538-3.274-24.123-8.8-36Z" transform="translate(-495.668 -247.032)"/></g><path class="l" d="M579.96,328.3a30.842,30.842,0,0,1-6.46-7.729c-1.069-1.782-1.025-3.72,0-4.321a8.342,8.342,0,0,0,3.3-3.675c1.136.312,2.539-.111,2.539-1.648a6.09,6.09,0,0,0-1.626-4.165c-.267-6.771-2.584-13.721-10.38-18.22-2.717-1.581-4.767-2.071-6.3-1.782-.356.067-3.452.891-3.742,1.025-2.116,1.047-.178,3.319-.334,6.994-.935-.2-1.626.713-1.626,2.294,0,1.559,1.4,3.586,2.539,4.589a37.881,37.881,0,0,0,3.3,7.484c1.047,1.8,1.069,3.787,0,4.344a8.479,8.479,0,0,1-6.46.267,4.888,4.888,0,0,0-2.7-.111c-.223.067-3.007.78-3.207.891-1.448.713.2,1.782.2,4.232v6.972a4.663,4.663,0,0,0,2.139,3.675l29.914,19.8c.512.29,3.453-.735,3.831-.891a1.423,1.423,0,0,0,.78-1.448V339.9C585.662,335.868,583.234,331.079,579.96,328.3Z" transform="translate(-518.416 -258.773)"/><g transform="translate(1.158 0.557)"><path class="d" d="M544.371,310.642c.6-22.319,16.839-31.184,36.73-19.691,10.246,5.925,19.512,16.1,26.195,27.754l7.351-1.849c-8.353-15.169-20.292-28.556-33.545-36.2-25.036-14.456-45.44-3.029-45.752,25.46Z" transform="translate(-535.35 -274.398)"/><path class="d" d="M599.41,359.34c-5.435.49-11.716-1.025-18.443-4.9-18.844-10.892-34.414-36.24-36.53-58.448l-8.977-4.522c2.406,27.754,21.9,59.629,45.506,73.26,8.888,5.123,17.174,6.994,24.212,5.992Z" transform="translate(-535.215 -253.444)"/><path class="d" d="M572.929,298.316c4.455,9.556,7.128,19.668,7.128,28.979,0,13.342-5.435,22.1-13.877,24.97l5.68,11.271c10.447-3.586,17.174-14.5,17.174-31.05,0-11.538-3.274-24.123-8.8-36Z" transform="translate(-497.508 -247.282)"/></g><path class="d" d="M578.621,328.553a30.84,30.84,0,0,1-6.46-7.729c-1.069-1.782-1.025-3.72,0-4.321a8.342,8.342,0,0,0,3.3-3.675c1.136.312,2.539-.111,2.539-1.648a6.09,6.09,0,0,0-1.626-4.165c-.267-6.771-2.584-13.721-10.38-18.22s-10.09-.2-10.38,6.237c-.935-.2-1.626.713-1.626,2.294,0,1.559,1.4,3.586,2.539,4.589a37.881,37.881,0,0,0,3.3,7.484c1.047,1.8,1.069,3.787,0,4.344a8.479,8.479,0,0,1-6.46.267c-3.274-.98-5.7.98-5.7,5.012v6.972a4.663,4.663,0,0,0,2.138,3.675l32.387,18.688c1.181.69,2.138.134,2.138-1.225v-6.972C584.324,336.126,581.9,331.337,578.621,328.553Z" transform="translate(-519.082 -258.452)"/><g transform="translate(0 0.846)"><path class="t" d="M543.851,310.772c.6-22.319,16.84-31.184,36.73-19.691,10.246,5.925,19.512,16.1,26.195,27.754l7.35-1.849c-8.353-15.169-20.292-28.556-33.545-36.2-25.036-14.456-45.44-3.029-45.752,25.46Z" transform="translate(-534.83 -274.528)"/><path class="t" d="M598.89,359.47c-5.435.49-11.716-1.025-18.443-4.9-18.844-10.892-34.414-36.24-36.53-58.448L534.94,291.6c2.406,27.754,21.9,59.628,45.507,73.26,8.888,5.123,17.174,6.994,24.212,5.992Z" transform="translate(-534.695 -253.574)"/><path class="t" d="M572.409,298.446c4.455,9.556,7.128,19.668,7.128,28.979,0,13.342-5.435,22.1-13.877,24.97l5.68,11.271c10.447-3.586,17.174-14.5,17.174-31.051,0-11.538-3.274-24.123-8.8-36Z" transform="translate(-496.988 -247.412)"/></g><path class="t" d="M578.1,328.683a30.843,30.843,0,0,1-6.46-7.729c-1.069-1.782-1.025-3.72,0-4.321a8.342,8.342,0,0,0,3.3-3.675c1.136.312,2.539-.111,2.539-1.648a6.09,6.09,0,0,0-1.626-4.165c-.267-6.771-2.584-13.721-10.38-18.22s-10.09-.2-10.38,6.237c-.936-.2-1.626.713-1.626,2.294,0,1.559,1.4,3.586,2.539,4.589a37.87,37.87,0,0,0,3.3,7.484c1.047,1.8,1.069,3.787,0,4.344a8.478,8.478,0,0,1-6.46.267c-3.274-.98-5.7.98-5.7,5.012v6.972a4.663,4.663,0,0,0,2.138,3.675l32.387,18.688c1.181.69,2.139.134,2.139-1.225v-6.972C583.8,336.234,581.376,331.468,578.1,328.683Z" transform="translate(-519.72 -258.293)"/></g></g><g transform="translate(11631.974 7103.917)"><g transform="translate(0 0)"><path class="p" d="M457.33,267.795v63.593L468,325.53V261.58Z" transform="translate(-222.068 -125.506)"/><path class="p" d="M587.017,339.428v63.593L351.71,267.17V203.22Z" transform="translate(-351.71 -197.139)"/><path class="p" d="M351.71,206.571,587.017,342.779l10.625-6.215L362.223,200.49Z" transform="translate(-351.71 -200.49)"/><path class="u" d="M351.71,203.22,587.017,339.428l10.625-6.215-10.4,4.544Z" transform="translate(-351.71 -197.139)"/></g><path class="d" d="M568.66,373.024,356.92,249.446V211.98L568.66,335.558Z" transform="translate(-345.315 -186.387)"/><g transform="translate(20.492 36.174)"><path class="o" d="M360.91,216.73l4.277,2.472,1.982,20.448.089.045,2.094-18.087,4.856,2.807,2.094,20.515.089.045,1.982-18.176L382.2,229l-2.873,25.17-5.524-3.185-2.027-17.419-.089-.045-2.027,15.08-5.9-3.408Z" transform="translate(-360.91 -216.73)"/><path class="o" d="M372.29,223.35l4.277,2.472,1.982,20.448.089.045,2.094-18.087,4.856,2.807,2.094,20.515.089.045,1.982-18.176,3.831,2.205-2.873,25.17-5.524-3.185-2.027-17.419-.089-.045-2.027,15.08-5.9-3.408Z" transform="translate(-346.942 -208.604)"/><path class="o" d="M383.76,229.87l4.277,2.472,1.982,20.448.089.045,2.094-18.087,4.856,2.807,2.094,20.515.089.045,1.982-18.176,3.831,2.205-2.873,25.17-5.524-3.185L394.63,246.71l-.089-.045-2.027,15.08-5.9-3.408Z" transform="translate(-332.863 -200.601)"/></g></g><g transform="translate(11699.375 6860.348)"><g transform="translate(0 31.563)"><path class="l" d="M399.67,119.672V164.02l6.682-3.675v-44.7Z" transform="translate(-360.244 -92.631)"/><path class="q" d="M421.44,130.2v44.348l-39.47-22.809V107.06Z" transform="translate(-381.97 -103.162)"/><path class="t" d="M381.97,109.208l39.47,23.143,6.638-4.032L388.519,105.31Z" transform="translate(-381.97 -105.31)"/><path class="d" d="M381.97,107.06,421.44,130.2l6.638-4.032-6.972,1.893Z" transform="translate(-381.97 -103.162)"/></g><g transform="translate(10.291 0)"><path class="f" d="M415.25,114.406v71.813l10.848-5.97V107.88Z" transform="translate(-351.412 -70.593)"/><path class="v" d="M386.59,97.466l63.928,37.488,10.758-6.526L397.215,91.14Z" transform="translate(-386.59 -91.14)"/><path class="g" d="M386.59,93.98l63.928,37.488,10.758-6.526-10.469,4.989Z" transform="translate(-386.59 -87.654)"/></g><path class="e" d="M386.59,93.98v29.781l33.835,19.847v42.277l30.093,17.4V131.468Z" transform="translate(-376.299 -87.654)"/></g><g transform="translate(11866.076 7047.296)"><g transform="translate(0 0)"><path class="p" d="M476.59,191.129v49.583l7.484-4.121V186.63Z" transform="translate(-432.531 -160.881)"/><path class="p" d="M500.936,202.913V252.5l-44.126-25.5V177.03Z" transform="translate(-456.81 -172.664)"/><path class="p" d="M456.81,179.436l44.126,25.883,7.417-4.5L464.116,175.07Z" transform="translate(-456.81 -175.07)"/><path class="g" d="M456.81,177.03l44.126,25.883,7.417-4.5-7.8,2.116Z" transform="translate(-456.81 -172.664)"/></g><g transform="translate(57.913 33.412)"><path class="p" d="M502.59,206.129v49.583l7.484-4.121V201.63Z" transform="translate(-458.531 -175.881)"/><path class="p" d="M526.935,217.913V267.5l-44.126-25.5V192.03Z" transform="translate(-482.81 -187.664)"/><path class="p" d="M482.81,194.436l44.126,25.883,7.417-4.5L490.116,190.07Z" transform="translate(-482.81 -190.07)"/><path class="g" d="M482.81,192.03l44.126,25.883,7.417-4.5-7.8,2.116Z" transform="translate(-482.81 -187.664)"/></g><g transform="translate(115.448 66.467)"><path class="p" d="M528.43,220.969V270.53l7.462-4.121V216.47Z" transform="translate(-484.349 -190.721)"/><path class="p" d="M552.766,232.753v49.561L508.64,256.831V206.87Z" transform="translate(-508.64 -202.504)"/><path class="p" d="M508.64,209.276l44.126,25.883,7.417-4.5L515.968,204.91Z" transform="translate(-508.64 -204.91)"/><path class="g" d="M508.64,206.87l44.126,25.883,7.417-4.5-7.8,2.094Z" transform="translate(-508.64 -202.504)"/></g><g transform="translate(172.248 98.765)"><path class="p" d="M553.93,235.469V285.03l7.462-4.121V230.97Z" transform="translate(-509.849 -205.221)"/><path class="p" d="M578.266,247.253v49.561L534.14,271.332V221.37Z" transform="translate(-534.14 -217.004)"/><path class="p" d="M534.14,223.776l44.125,25.883,7.417-4.5L541.468,219.41Z" transform="translate(-534.14 -219.41)"/><path class="g" d="M534.14,221.37l44.125,25.883,7.417-4.5-7.8,2.094Z" transform="translate(-534.14 -217.004)"/></g><path class="d" d="M533.277,242.429a20.216,20.216,0,0,1-4.076-4.878c-.668-1.136-.646-2.361,0-2.74a5.328,5.328,0,0,0,2.094-2.317c.713.2,1.6-.067,1.6-1.047a3.962,3.962,0,0,0-1.025-2.651c-.178-4.277-1.648-8.687-6.571-11.538s-6.393-.134-6.571,3.943c-.6-.134-1.025.445-1.025,1.448a4.737,4.737,0,0,0,1.6,2.9,22.288,22.288,0,0,0,2.094,4.722c.646,1.136.69,2.383,0,2.74a5.383,5.383,0,0,1-4.076.178c-2.071-.624-3.608.624-3.608,3.163v4.41a3.009,3.009,0,0,0,1.359,2.339l20.493,11.828c.735.423,1.359.089,1.359-.78v-4.41A10.922,10.922,0,0,0,533.277,242.429Z" transform="translate(-386.957 -124.731)"/><path class="d" d="M537.72,253.866l7.15,4.121v-12.83l-7.15-4.121Zm11.315,6.549,7.15,4.121V241.014l-7.15-4.121Zm11.338-27.665v34.191l7.15,4.121V236.871Z" transform="translate(-357.498 -104.271)"/><path class="d" d="M511.9,226.217c0-.668-.067-1.337-.134-2.027l3.386-.423a29.855,29.855,0,0,0-1.537-5.123l-3.853-1.158a25.714,25.714,0,0,0-2.406-4.143l.913-3.876a29.153,29.153,0,0,0-3.7-3.876l-2.072,2.673a16.036,16.036,0,0,0-1.693-1.136,13.083,13.083,0,0,0-1.693-.824l-2.071-5.079a10.839,10.839,0,0,0-3.7-.379l.913,4.945a5.634,5.634,0,0,0-2.406,1.359L488,203.875a10.275,10.275,0,0,0-1.537,3.341l3.386,4.321a12.316,12.316,0,0,0-.134,1.871c0,.668.067,1.336.134,2.027l-3.386.423A29.852,29.852,0,0,0,488,220.982l3.853,1.158a25.7,25.7,0,0,0,2.406,4.143l-.913,3.876a29.15,29.15,0,0,0,3.7,3.876l2.071-2.673A16.05,16.05,0,0,0,500.8,232.5a13.09,13.09,0,0,0,1.693.824l2.072,5.079a10.84,10.84,0,0,0,3.7.379l-.913-4.945a5.634,5.634,0,0,0,2.406-1.359l3.853,3.274a10.276,10.276,0,0,0,1.537-3.341l-3.386-4.321A16.44,16.44,0,0,0,511.9,226.217Zm-11.07-1.292a9.838,9.838,0,0,1-4.455-7.662c0-2.829,1.982-3.965,4.455-2.539a9.838,9.838,0,0,1,4.455,7.662C505.282,225.192,503.277,226.35,500.827,224.925Z" transform="translate(-420.416 -143.467)"/><g transform="translate(7.039 24.027)"><path class="d" d="M460.485,185.931,474.7,208.116l14.211-5.791a.022.022,0,0,0,.022.022,5.413,5.413,0,0,0-1.693-1.648L462.178,186.22a2.157,2.157,0,0,0-1.693-.29Z" transform="translate(-459.349 -185.857)"/><path class="d" d="M489.55,202.339l-14.256,8.13-4.032-6.95-10.179,4.143c-.022-.022-.022-.045-.045-.067l9.467-5.39-9.467-16.3a1.791,1.791,0,0,0-1.069,1.871v16.973a6.166,6.166,0,0,0,2.784,4.811l25.059,14.478c1.537.891,2.784.178,2.784-1.581V205.479A5.637,5.637,0,0,0,489.55,202.339Zm-.044,21.717-10.179-15.882.757-.423,9.467,16.3C489.55,224.034,489.528,224.056,489.506,224.056Z" transform="translate(-459.97 -185.804)"/></g></g><g transform="translate(11517.17 7117.639)"><g transform="translate(0 0)"><path class="n" d="M376.82,257.081v63.594l10.046-5.725V251Z" transform="translate(-206.087 -152.213)"/><path class="h" d="M470.948,308.241v63.593L300.17,273.27V209.32Z" transform="translate(-300.17 -203.373)"/><path class="a" d="M300.17,212.6l170.778,98.921,10-6.081L310.082,206.65Z" transform="translate(-300.17 -206.65)"/><path class="g" d="M300.17,209.32l170.778,98.921,10-6.081-10.4,4.188Z" transform="translate(-300.17 -203.373)"/></g><path class="d" d="M358.829,242.672,327.6,224.652c-1.916-1.114-3.475-.223-3.475,1.982v21.138a7.667,7.667,0,0,0,3.475,5.992l19.512,11.271,9.756,16.817v-11.2l1.96,1.136c1.916,1.114,3.475.223,3.475-1.982V248.664A7.667,7.667,0,0,0,358.829,242.672Zm-22.007,3.965c-1.025.579-2.673-.379-3.675-2.116-1.025-1.76-1.025-3.653,0-4.232s2.673.379,3.675,2.116C337.824,244.165,337.824,246.058,336.822,246.637Zm8.442,4.878c-1.025.579-2.673-.379-3.675-2.116-1.025-1.76-1.025-3.653,0-4.232s2.673.379,3.675,2.116C346.288,249.043,346.288,250.936,345.264,251.515Zm8.464,4.878c-1.025.579-2.673-.379-3.675-2.116-1.025-1.76-1.025-3.653,0-4.232s2.673.379,3.675,2.116C354.753,253.921,354.753,255.814,353.728,256.393Zm-32.187-10.113V229.107l-11.917-6.883c-1.916-1.114-3.475-.223-3.475,1.982v21.138a7.667,7.667,0,0,0,3.475,5.992l1.96,1.136v11.2l9.756-5.569,19.512,11.271c1.916,1.114,3.475.223,3.475-1.982v-1l-16.683-9.645A13.348,13.348,0,0,1,321.542,246.281Z" transform="translate(-292.83 -188.122)"/><path class="d" d="M334.55,235.92V241.2l81.569,47.088v-5.279Z" transform="translate(-257.971 -170.723)"/><path class="d" d="M390.325,278,334.55,245.77v5.279l55.775,32.231Z" transform="translate(-257.971 -158.633)"/><path class="d" d="M334.55,246.119l81.569,47.11V287.95L334.55,240.84Z" transform="translate(-257.971 -164.684)"/></g><g transform="translate(11614.91 7078.423)"><path class="w" d="M502.968,348.073l-53.035-29.781c4.588-3.363,7.261-7.35,7.261-11.65,0-11.872-20.247-21.473-45.217-21.473s-45.217,9.623-45.217,21.473c0,11.872,20.247,21.473,45.217,21.473a92.406,92.406,0,0,0,14.835-1.2l57.112,32.075c3.7,2.138,10.135,1.871,14.389-.6C503.012,355.98,508.626,351.392,502.968,348.073Z" transform="translate(-316.175 -71.056)"/><g transform="translate(0 0)"><g transform="translate(115.359 175.646)"><path class="k" d="M440.4,314.3a12.134,12.134,0,1,1-16.439-4.923A12.126,12.126,0,0,1,440.4,314.3Z" transform="translate(-369.149 -218.784)"/><path class="o" d="M425.064,276.51,398.78,290.677l39.2,72.3h0c.022.045.022.067.045.111,2.272,4.232,10,4.477,17.263.579,7.262-3.92,11.293-10.514,9.021-14.723-.022-.044-.044-.067-.067-.111h0Z" transform="translate(-392.231 -257.332)"/><path class="n" d="M425.423,278.37c2.272,4.232-1.76,10.825-9.021,14.723-7.261,3.92-14.991,3.653-17.263-.579s1.76-10.825,9.021-14.723S423.151,274.16,425.423,278.37Z" transform="translate(-392.568 -259.147)"/><path class="k" d="M411.477,267.9l-15.637,8.42,11.115,20.626h0c0,.022.022.045.022.067,1.359,2.517,5.947,2.673,10.269.334,4.321-2.317,6.727-6.259,5.368-8.754-.022-.022-.022-.045-.045-.067h0Z" transform="translate(-395.84 -267.9)"/></g><g transform="translate(17.374)"><path class="a" d="M421.346,198.88c-19.468-11.226-37.109-12.518-50.028-5.524-.356.2-18.889,10.536-19.468,11.427,13.142-9.912,32.587-9.756,54.3,2.762,39.582,22.854,71.657,78.183,71.657,123.6,0,23.165-8.353,39.27-21.784,46.464a16.6,16.6,0,0,0,3.5-1.537c.379-.223,13.008-7.863,13.387-8.108,12.451-7.6,20.091-23.321,20.091-45.507C493,277.085,460.905,221.733,421.346,198.88Z" transform="translate(-351.85 -189.045)"/></g><path class="c" d="M415.707,202.785c-39.582-22.854-71.657-4.566-71.657,40.851s32.075,100.747,71.657,123.6,71.657,4.566,71.657-40.851S455.288,225.639,415.707,202.785Zm-1.069,153.6c-33.59-19.379-60.809-66.355-60.809-104.89s27.219-54.06,60.809-34.659c33.59,19.379,60.809,66.355,60.809,104.89S448.227,375.768,414.638,356.389Z" transform="translate(-344.05 -184.263)"/><path class="a" d="M421.834,340.17c-33.59-19.379-60.809-66.355-60.809-104.89,0-15.726,4.544-27.6,12.184-34.859-15.013,4.032-24.769,18.844-24.769,41.9,0,38.535,27.219,85.489,60.809,104.89,19.891,11.471,37.532,10.714,48.625.2C447.806,350.1,435.332,347.966,421.834,340.17Z" transform="translate(-338.661 -175.082)"/><path class="d" d="M404.786,202c-18.978-10.959-36.2-12.429-49.026-6.014,11.939-3.341,29.536-1.537,45.6,7.729,39.582,22.854,71.657,78.183,71.657,123.6,0,23.633-11.449,40.606-25.393,47.556,17.485-4.9,28.823-22.3,28.823-49.271C476.443,280.188,444.368,224.836,404.786,202Z" transform="translate(-329.677 -185.198)"/></g></g></g></svg>