<svg xmlns="http://www.w3.org/2000/svg" xmlns:xlink="http://www.w3.org/1999/xlink" width="173.741" height="173.88" viewBox="0 0 173.741 173.88"><defs><style>.a{fill:url(#a);}</style><linearGradient id="a" x1="0.5" x2="0.5" y2="1" gradientUnits="objectBoundingBox"><stop offset="0" stop-color="#5bab2f"/><stop offset="1" stop-color="#a8e063"/></linearGradient></defs><g transform="translate(-0.205)"><g transform="translate(0.205)"><path class="a" d="M384.394,56.006a3.4,3.4,0,0,0-3.4-3.4h-.019a3.4,3.4,0,1,0,3.415,3.4Z" transform="translate(-249.428 -34.743)"/><path class="a" d="M438.335,56.006a3.4,3.4,0,0,0-3.4-3.4h-.019a3.4,3.4,0,1,0,3.415,3.4Z" transform="translate(-285.05 -34.743)"/><path class="a" d="M330.481,56.006a3.4,3.4,0,0,0-3.4-3.4h-.019a3.4,3.4,0,1,0,3.415,3.4Z" transform="translate(-213.824 -34.743)"/><path class="a" d="M60.438,56.006a3.4,3.4,0,0,0,3.4,3.4h50.981a3.4,3.4,0,0,0,0-6.792H63.834A3.4,3.4,0,0,0,60.438,56.006Z" transform="translate(-39.982 -34.743)"/><path class="a" d="M163.051,0H56.873a3.4,3.4,0,0,0,0,6.792H163.051a4.1,4.1,0,0,1,4.1,4.093V35.734H7V10.886a4.1,4.1,0,0,1,4.093-4.093H26.377a3.4,3.4,0,0,0,0-6.792H11.091A10.9,10.9,0,0,0,.2,10.886v152.1a10.9,10.9,0,0,0,10.886,10.9H163.051a10.908,10.908,0,0,0,10.9-10.9V10.886A10.9,10.9,0,0,0,163.051,0Zm0,167.088H11.091A4.1,4.1,0,0,1,7,162.985V42.526H167.154V162.985A4.108,4.108,0,0,1,163.051,167.088Z" transform="translate(-0.205)"/><path class="a" d="M66.14,382.613a14.144,14.144,0,1,0,14.139,14.149A14.165,14.165,0,0,0,66.14,382.613Zm0,21.5a7.352,7.352,0,1,1,7.347-7.347A7.36,7.36,0,0,1,66.14,404.109Z" transform="translate(-34.404 -252.674)"/><path class="a" d="M174.381,382.613a14.144,14.144,0,1,0,14.139,14.149A14.16,14.16,0,0,0,174.381,382.613Zm0,21.5a7.352,7.352,0,1,1,7.347-7.347A7.355,7.355,0,0,1,174.381,404.109Z" transform="translate(-105.892 -252.674)"/><path class="a" d="M282.6,382.613a14.144,14.144,0,1,0,14.149,14.149A14.16,14.16,0,0,0,282.6,382.613Zm0,21.5a7.352,7.352,0,1,1,7.357-7.347A7.355,7.355,0,0,1,282.6,404.109Z" transform="translate(-177.36 -252.674)"/><path class="a" d="M390.834,382.613a14.144,14.144,0,1,0,14.139,14.149A14.165,14.165,0,0,0,390.834,382.613Zm0,21.5a7.352,7.352,0,1,1,7.347-7.347A7.36,7.36,0,0,1,390.834,404.109Z" transform="translate(-248.829 -252.674)"/><path class="a" d="M52,215.033a3.424,3.424,0,0,0,3.389,3.158H131.4a3.432,3.432,0,0,0,3.4-3.4v-57.48a3.4,3.4,0,0,0-3.4-3.4H55.388a3.4,3.4,0,0,0-3.4,3.4v57.48C52,214.874,52,214.953,52,215.033Zm56.3-3.635-6.327-9.972,8.464-13.333L125.23,211.4Zm-8.044,0H61.566l19.35-30.486Zm27.751-50.688V203.1l-14.7-23.168a3.4,3.4,0,0,0-5.734,0l-9.619,15.152-14.17-22.333a3.4,3.4,0,0,0-2.867-1.577h0a3.4,3.4,0,0,0-2.867,1.576L58.784,203.107v-42.4Z" transform="translate(-34.405 -101.646)"/><path class="a" d="M331.441,160.71h37.879a3.4,3.4,0,1,0,0-6.792H331.441a3.4,3.4,0,0,0,0,6.792Z" transform="translate(-216.707 -101.646)"/><path class="a" d="M331.441,216.126h37.879a3.4,3.4,0,1,0,0-6.792H331.441a3.4,3.4,0,0,0,0,6.792Z" transform="translate(-216.707 -138.242)"/><path class="a" d="M331.441,271.515h37.879a3.4,3.4,0,1,0,0-6.792H331.441a3.4,3.4,0,0,0,0,6.792Z" transform="translate(-216.707 -174.82)"/><path class="a" d="M331.441,326.9h37.879a3.4,3.4,0,1,0,0-6.792H331.441a3.4,3.4,0,0,0,0,6.792Z" transform="translate(-216.707 -211.397)"/><path class="a" d="M115.565,6.792h.019a3.405,3.405,0,1,0-.019,0Z" transform="translate(-74.145)"/></g></g></svg>